<svg xmlns="http://www.w3.org/2000/svg" width="718.667" height="733.333" viewBox="0 0 539 550"><g transform="matrix(.1 0 0 -.1 0 550)"><path d="M1828 4463c67-2 177-2 245 0 67 1 12 3-123 3s-190-2-122-3m-744-703c0-129 2-182 3-117 2 64 2 170 0 235-1 64-3 11-3-118m2336-359c-57-21-151-111-180-175-16-36-21-67-21-122 0-99 25-151 112-236 80-77 89-107 39-133-24-12-81-15-339-15-170 0-316-3-325-6-14-5-16-30-16-175 0-93 3-169 7-169 3 0 41 12 82 27 62 23 93 28 171 28 88 0 101-3 162-33 105-52 218-179 246-278 17-60 15-182-5-240-31-93-111-201-180-241-132-77-279-82-435-14l-48 20v-479l23-5c13-4 374-3 802 2l779 8-2 600c-1 330-5 683-9 784l-6 183-299-7c-278-7-300-6-318 10-20 18-29 85-11 85 23 0 112 96 138 148 24 49 28 68 27 142 0 87-10 119-58 183-37 50-116 94-199 111-87 18-78 19-137-3m-1122-198c6-2 18-2 25 0 6 3 1 5-13 5s-19-2-12-5m210 0c6-2 18-2 25 0 6 3 1 5-13 5s-19-2-12-5"/><path d="M1036 2158c4-365 9-724 13-798l6-135 780 4c429 2 782 6 785 10 3 3 2 137-1 296-5 262-4 292 11 315 30 45 59 38 118-29 80-92 126-114 239-119 85-4 98-2 147 22 104 51 166 148 174 271 4 62 1 78-21 120-44 86-122 148-228 179-46 14-59 14-116 1-79-18-162-71-205-131-26-37-37-44-65-44-60 0-64 25-62 375 1 166-1 307-5 314-5 7-62 11-180 11h-174l31-72c27-65 30-85 31-178 1-97-1-110-28-165-34-70-126-165-207-212-111-66-276-65-394 2-71 40-149 114-176 167-65 127-63 262 5 421l16 37h-500z"/><path d="M1615 2719c-4-6-5-12-2-15 2-3 7 2 10 11 7 17 1 20-8 4m-63-184c0-16 2-22 5-12 2 9 2 23 0 30-3 6-5-1-5-18"/></g></svg>