<?xml version="1.0" encoding="iso-8859-1"?>
<!-- Uploaded to: SVG Repo, www.svgrepo.com, Generator: SVG Repo Mixer Tools -->
<svg height="800px" width="800px" version="1.1" id="Layer_1" xmlns="http://www.w3.org/2000/svg" xmlns:xlink="http://www.w3.org/1999/xlink" 
	 viewBox="0 0 512 512" xml:space="preserve">
<path style="fill:#7DD2F0;" d="M238.326,182.793c-14.207,0-26.907,6.444-35.345,16.564c-8.064-20.526-28.042-35.064-51.429-35.064
	c-27.28,0-49.927,19.777-54.424,45.773c-5.293-3.233-11.513-5.097-18.169-5.097c-19.283,0-34.913,15.632-34.913,34.913
	c0,19.283,15.632,34.913,34.913,34.913h159.369c25.406,0,46.002-20.596,46.002-46.002
	C284.328,203.39,263.732,182.793,238.326,182.793z"/>
<path style="fill:#9CE5FF;" d="M65.383,239.884c0-15.552,10.17-28.722,24.22-33.238c-3.359-1.075-6.93-1.675-10.646-1.675
	c-19.283,0-34.913,15.631-34.913,34.913s15.632,34.913,34.913,34.913h21.339C81.014,274.797,65.383,259.167,65.383,239.884z"/>
<polygon style="fill:#FF6465;" points="455.731,80.131 328.197,48.334 455.731,16.537 "/>
<path style="fill:#7DD2F0;" d="M455.731,181.26c-4.419,0-8.002-3.583-8.002-8.002V8.002c0-4.419,3.583-8.002,8.002-8.002
	c4.419,0,8.002,3.583,8.002,8.002v165.256C463.733,177.677,460.15,181.26,455.731,181.26z"/>
<path style="fill:#946C55;" d="M511.742,178.659l-1.366-1.917c-28.482-39.974-79.492-39.974-107.975,0L290.618,333.629L511.743,512
	L511.742,178.659z"/>
<g>
	<path style="fill:#AD7E64;" d="M322.626,333.629l111.784-156.887c10.391-14.583,23.784-23.82,37.983-27.763
		c-24.723-6.866-51.9,2.372-69.991,27.763L290.618,333.629L469.066,512L322.626,333.629z"/>
	<path style="fill:#AD7E64;" d="M352.469,277.034c-28.482-39.974-79.492-39.974-107.975,0L77.078,511.999h434.664L352.469,277.034z"
		/>
</g>
<g>
	<path style="fill:#C89173;" d="M314.486,249.271c-24.723-6.866-51.9,2.372-69.991,27.763L77.078,512h32.008l167.416-234.966
		C286.894,262.451,300.286,253.213,314.486,249.271z"/>
	<path style="fill:#C89173;" d="M185.408,382.062c-19.149-22.106-53.445-22.106-72.594,0L0.257,511.999h297.71L185.408,382.062z"/>
</g>
<path style="fill:#E0A381;" d="M165.115,368.228c-17.905-6.303-38.842-1.703-52.301,13.835L0.257,512h32.008l112.558-129.938
	C150.513,375.493,157.546,370.893,165.115,368.228z"/>
</svg>