<?xml version="1.0" encoding="iso-8859-1"?>
<!-- Uploaded to: SVG Repo, www.svgrepo.com, Generator: SVG Repo Mixer Tools -->
<svg height="800px" width="800px" version="1.1" id="Layer_1" xmlns="http://www.w3.org/2000/svg" xmlns:xlink="http://www.w3.org/1999/xlink" 
	 viewBox="0 0 512 512" xml:space="preserve">
<path style="fill:#6DC82A;" d="M256,512C114.839,512,0,397.161,0,256S114.839,0,256,0s256,114.839,256,256S397.161,512,256,512z"/>
<path style="fill:#61B325;" d="M512,256C512,114.839,397.161,0,256,0v512C397.161,512,512,397.161,512,256z"/>
<g>
	<path style="fill:#FFFFFF;" d="M389.594,272.699H122.406c-9.225,0-16.699-7.475-16.699-16.699c0-9.225,7.475-16.699,16.699-16.699
		h267.189c9.225,0,16.699,7.475,16.699,16.699C406.294,265.225,398.819,272.699,389.594,272.699z"/>
	<path style="fill:#FFFFFF;" d="M256,205.902c-27.625,0-50.098-22.473-50.098-50.098s22.473-50.098,50.098-50.098
		s50.098,22.473,50.098,50.098S283.625,205.902,256,205.902z M256,139.105c-9.208,0-16.699,7.491-16.699,16.699
		s7.491,16.699,16.699,16.699s16.699-7.491,16.699-16.699S265.208,139.105,256,139.105z"/>
	<path style="fill:#FFFFFF;" d="M256,406.294c-27.625,0-50.098-22.473-50.098-50.098s22.473-50.098,50.098-50.098
		s50.098,22.473,50.098,50.098S283.625,406.294,256,406.294z M256,339.496c-9.208,0-16.699,7.491-16.699,16.699
		c0,9.208,7.491,16.699,16.699,16.699s16.699-7.491,16.699-16.699C272.699,346.988,265.208,339.496,256,339.496z"/>
</g>
<g>
	<path style="fill:#FFE6B3;" d="M272.699,356.196c0,9.208-7.491,16.699-16.699,16.699v33.399c27.625,0,50.098-22.473,50.098-50.098
		S283.625,306.098,256,306.098v33.399C265.208,339.496,272.699,346.988,272.699,356.196z"/>
	<path style="fill:#FFE6B3;" d="M389.594,239.301H256v33.399h133.594c9.225,0,16.699-7.475,16.699-16.699
		C406.294,246.775,398.819,239.301,389.594,239.301z"/>
	<path style="fill:#FFE6B3;" d="M272.699,155.804c0,9.208-7.491,16.699-16.699,16.699v33.399c27.625,0,50.098-22.473,50.098-50.098
		S283.625,105.706,256,105.706v33.399C265.208,139.105,272.699,146.596,272.699,155.804z"/>
</g>
</svg>