<?xml version="1.0" encoding="utf-8"?>
<!-- Uploaded to: SVG Repo, www.svgrepo.com, Generator: SVG Repo Mixer Tools -->
<svg width="800px" height="800px" viewBox="-141.1 0 440.958 440.958" xmlns="http://www.w3.org/2000/svg"><defs><style>.a{fill:#ffffff;}.b{fill:#211715;}.c{fill:#3f88c9;}.d{fill:#645d5c;}.e{fill:#f4b467;}</style></defs><path class="a" d="M124.136,48.189a4.047,4.047,0,0,1,3.237-.947,3.821,3.821,0,0,1,2.746,1.826,5.415,5.415,0,0,1,.566,2.173,16.175,16.175,0,0,1-1.651,8.579,10.282,10.282,0,0,1-2.659,3.491A6.816,6.816,0,0,1,123.2,64.74l-.544.087c-.26.973-.552,1.792-.7,2.227-.919,2.494-6.039,11.094-12.5,14.294a38.885,38.885,0,0,0,.608,6.278c.344,1.967.237,3.725,2.971,4.713.182.065,3.259,1.266,3.536,1.38,0,0,.965,14.846-18.591,14.846S79.027,94.047,79.176,93.007c.53-.18,1.8-.6,1.98-.67,2.74-.99,2.63-2.74,2.97-4.71a37.457,37.457,0,0,0,.6-6.222,23.85,23.85,0,0,1-7.674-6.267A27.54,27.54,0,0,1,71.811,64.9l-1.034-.159a6.813,6.813,0,0,1-3.171-1.429,10.285,10.285,0,0,1-2.66-3.491,16.184,16.184,0,0,1-1.65-8.579,5.4,5.4,0,0,1,.565-2.173,3.823,3.823,0,0,1,2.747-1.826,4.048,4.048,0,0,1,3.237.947S65.433,24.121,94.731,24.121,124.136,48.189,124.136,48.189Z"/><path class="a" d="M87,118.992c-1.152-2.782-2.287-5.628-3.377-8.5-2.75-7.246-4.6-13.183-5.479-16.51l.175-.432a21.427,21.427,0,0,1,4.365-5.9A43.383,43.383,0,0,0,95.2,96.38c.259.117.548.261.632.533a1.007,1.007,0,0,1-.145.707h3.562a1,1,0,0,1-.145-.707c.084-.272.373-.416.632-.533a43.383,43.383,0,0,0,12.523-8.728,20.95,20.95,0,0,1,4.065,5.336,184.686,184.686,0,0,1-6.041,18.392c-4.99,13.012-9.07,22.169-12.593,29.778,0,0-.126.272-.35.759C94.319,135.674,90.58,127.646,87,118.992Z"/><path class="a" d="M143.071,213.447c-1.5,6.549-1.3,14.423-1.784,21.124-.126,1.733,1.078,2.778,2.324,1.568.6-.579,3.178-3.576,3.93-4.179.021,2.768.108,3.272.054,5.12-.172,5.906-.4,7.622-.779,11.548-.162,1.689-.076,3,.355,3.306,1.532,1.091,3.414,1.422,4.893.076a11.548,11.548,0,0,0,3.224-5.017,64.033,64.033,0,0,0,1.535-9.327,33.83,33.83,0,0,0-.906-8.984c-1.463-6.124-2.981-9.013-3.133-15.308l-.085-4.3-9.583.271Z"/><path class="b" d="M141.142,212.916c-1.521,6.836-1.354,13.878-1.8,20.828-.1,1.613.012,3.358,1.483,4.36a3.3,3.3,0,0,0,4.2-.551c1.391-1.307,2.469-2.941,3.93-4.178l-3.414-1.415c.04,4.34.015,8.648-.37,12.978a29.04,29.04,0,0,0-.347,6.28c.338,2.571,3.117,3.874,5.536,3.634,2.716-.269,4.749-2.8,5.911-5.081a18.415,18.415,0,0,0,1.619-5.3,40.482,40.482,0,0,0,.57-13.042c-.86-6.14-3.487-11.8-3.676-18.057-.078-2.568-4.078-2.579-4,0,.143,4.744,1.421,9.088,2.642,13.63a32.431,32.431,0,0,1,1.167,12.857c-.429,3.167-.709,6.832-2.731,9.455-.437.566-1.1,1.467-1.862,1.573-.439.061-.742-.171-1.144-.264l-.342-.2.308.51c-.063.013-.078-.619-.08-.649a40.3,40.3,0,0,1,.44-5.484c.377-4.286.4-8.55.359-12.846a2.025,2.025,0,0,0-3.414-1.414,38.832,38.832,0,0,0-3.334,3.546c-.094.1-.54.444-.554.59.045-.462,1.174.291,1.086.428a3.572,3.572,0,0,0-.024-.745c.068-1.341.16-2.68.218-4.022.237-5.466.287-11,1.48-16.364.558-2.508-3.3-3.579-3.857-1.063Z"/><path class="a" d="M121.253,313.567l-.2-.852c-12.213-.029-32.034-.072-47.01,0l-.187.849c-2.42,19.3,1.58,38.74,3.98,58.04,1.33,10.711,1.76,22.692-3.152,31.863a5.2,5.2,0,0,1,.707-.184c-.364,1.357-.909,4.71.288,5.446s3.021.735,4.426.759c6.152.107,12.725-4.3,16.14-7.381.233-.209.667.085.669.418l1.793-.092c0-.3.494-.482.759-.247,3.421,3.044,9.876,7.642,15.975,7.536,1.405-.024,3.376,0,4.573-.734s.582-4.348.218-5.7a1,1,0,0,1,.117.026c-4.823-9.151-4.393-21.053-3.063-31.7C119.683,352.307,123.683,332.867,121.253,313.567Z"/><path class="c" d="M64.741,190.429c-1.39,4.88-3.111,12.983-4.233,19.344-5.485,31.082-.183,62.809,2.2,93.229.226,2.89.444,6.914.654,9.8,18.779-.241,59.31-.072,67.427-.072.153-2.049.309-7.683.469-9.732,2.38-30.42,7.682-62.147,2.2-93.229-1.122-6.361-2.843-14.464-4.233-19.344"/><path class="d" d="M56.2,434.719c-.11-.143-.215-.292-.313-.446a8.36,8.36,0,0,1-.553-7.005A22.939,22.939,0,0,1,58.926,421q5.2-7.109,11-13.756c1.506-1.728,3.209-3.529,5.461-3.953-.364,1.357-.909,4.71.288,5.446s3.021.735,4.426.759c6.152.107,12.725-4.3,16.14-7.381.233-.209.667.085.669.418.032,3.964.364,5.677.344,10.056a10.086,10.086,0,0,1-.761,3.39c-.976,2.638-3.869,3.91-6.191,5.5-6.041,4.134-9.222,11.676-15.552,15.352a16.341,16.341,0,0,1-15.108.541A9.514,9.514,0,0,1,56.2,434.719Z"/><path class="d" d="M139.42,434.719c.11-.143.215-.292.313-.446a8.36,8.36,0,0,0,.553-7.005A22.939,22.939,0,0,0,136.691,421q-5.205-7.109-11-13.756c-1.506-1.728-3.209-3.529-5.461-3.953.364,1.357.978,4.969-.218,5.7s-3.168.71-4.573.734c-6.1.106-12.554-4.492-15.975-7.536-.265-.235-.756-.057-.759.247-.046,3.985-.517,5.4-.5,9.815a12.279,12.279,0,0,0,.916,3.723c.976,2.638,3.869,3.91,6.191,5.5,6.041,4.134,9.222,11.676,15.552,15.352a16.341,16.341,0,0,0,15.108.541A9.514,9.514,0,0,0,139.42,434.719Z"/><path class="b" d="M71.853,313.567c-1.512,12.327-.466,24.745,1.121,37.009,1.5,11.573,3.968,23.282,3.727,35-.119,5.8-1.018,11.7-3.745,16.884-1.2,2.277,2.254,4.3,3.454,2.019,5.142-9.776,4.79-21.377,3.523-32.043-1.488-12.536-3.762-24.98-4.548-37.594a115.581,115.581,0,0,1,.468-21.272,2.012,2.012,0,0,0-2-2,2.049,2.049,0,0,0-2,2Z"/><path class="b" d="M95.409,313.182C95.4,338.327,95.22,363.467,95,388.61c-.042,4.639-.085,9.279-.086,13.918,0,2.574,4,2.578,4,0,0-22.328.435-44.655.488-66.983q.025-11.181.01-22.363c0-2.574-4-2.578-4,0Z"/><path class="b" d="M119.253,313.567c1.548,12.571.43,25.233-1.206,37.735-.824,6.291-1.775,12.564-2.581,18.857a99.69,99.69,0,0,0-1.022,16.6,41.467,41.467,0,0,0,4.172,17.558c1.183,2.287,4.636.266,3.454-2.019-4.859-9.39-4.025-20.782-2.757-30.932,1.54-12.328,3.71-24.593,4.445-37.01a114.676,114.676,0,0,0-.5-20.788,2.063,2.063,0,0,0-2-2,2.011,2.011,0,0,0-2,2Z"/><path class="b" d="M62.813,189.9a181.263,181.263,0,0,0-6.678,46.18c-.273,16.915,1.472,33.769,3.1,50.582.844,8.71,1.5,17.419,2.124,26.146a2.039,2.039,0,0,0,2,2c19.285-.244,38.576-.136,57.862-.091q4.783.012,9.565.019a2.045,2.045,0,0,0,2-2c.191-2.687.237-5.383.371-8.073.187-3.787.584-7.569.934-11.344.806-8.69,1.719-17.371,2.442-26.069,1.452-17.464,2.094-35.059-.288-52.473a183.166,183.166,0,0,0-5.1-24.877c-.7-2.473-4.559-1.422-3.857,1.063a178.236,178.236,0,0,1,6.559,47.295c.107,17.386-1.822,34.691-3.467,51.974-.425,4.458-.892,8.923-1.169,13.393-.189,3.034-.212,6.078-.427,9.111l2-2c-17.45,0-34.9-.093-52.35-.034-5.026.017-10.051.042-15.077.106l2,2c-.545-7.613-1.078-15.214-1.8-22.814-.792-8.3-1.646-16.6-2.3-24.912-1.33-16.757-1.929-33.754.49-50.445a185.03,185.03,0,0,1,4.929-23.674c.7-2.481-3.157-3.54-3.857-1.063Z"/><path class="b" d="M57.923,433.71c-1.631-2.229-1.231-5.047-.048-7.4a52.083,52.083,0,0,1,5.491-7.93q3.03-3.954,6.267-7.746c1.711-2.014,3.553-4.809,6.287-5.424l-2.461-2.46c-.519,2.026-1.028,4.857.2,6.725,1.58,2.392,5.881,2.2,8.37,1.905,5.866-.7,11.281-3.987,15.622-7.859l-.882.514.2-.07H95.913l.218.075-.882-.514.175.177-.514-.883a11.691,11.691,0,0,1,.083,2.591c.042.882.1,1.763.146,2.645.107,1.994.392,4.2-.158,6.138a6.714,6.714,0,0,1-3.267,4,40.119,40.119,0,0,0-4.695,3.313c-5.591,4.87-9.016,12.974-16.7,14.98-4.212,1.1-9.812.374-12.7-3.188a2.014,2.014,0,0,0-2.829,0,2.048,2.048,0,0,0,0,2.829c2.179,2.683,5.788,4.12,9.133,4.6A18.719,18.719,0,0,0,74.508,439.2c5.881-2.72,9.185-8.572,13.5-13.088a21.323,21.323,0,0,1,3.453-3.011c1.239-.836,2.543-1.564,3.734-2.472,3.06-2.333,4.106-5.653,4.057-9.413-.02-1.491-.1-2.979-.185-4.468-.087-1.532.152-3.4-.261-4.869a2.523,2.523,0,0,0-1.719-1.73,2.662,2.662,0,0,0-2.587.84,34.216,34.216,0,0,1-3.283,2.491c-3.042,2.016-6.623,3.852-10.342,4a18.447,18.447,0,0,1-2.67-.063,9.21,9.21,0,0,1-1.1-.217c-.776-.179,0-.208-.065.145.1-.512-.1-1.28-.039-1.86a11.856,11.856,0,0,1,.32-1.67,2.024,2.024,0,0,0-2.461-2.46c-3.455.777-5.718,3.713-7.9,6.271q-3.793,4.455-7.335,9.115c-3.858,5.058-9.874,12.536-5.153,18.986a2.058,2.058,0,0,0,2.736.717A2.014,2.014,0,0,0,57.923,433.71Z"/><path class="b" d="M141.147,435.729c4.721-6.451-1.295-13.928-5.153-18.986q-3.548-4.653-7.335-9.115c-2.179-2.558-4.443-5.494-7.9-6.271a2.024,2.024,0,0,0-2.461,2.46,10.136,10.136,0,0,1,.407,3.3,2.373,2.373,0,0,1-.08.511c-.144-.064.851-.387.083-.218a11.542,11.542,0,0,1-2.226.3,17.715,17.715,0,0,1-9.377-2.486,35.228,35.228,0,0,1-4.132-2.71c-1.061-.8-2.314-2.415-3.742-2.424-2.405-.017-2.493,2.176-2.575,3.97-.064,1.418-.215,2.828-.318,4.242-.244,3.336-.278,7,1.692,9.9,1.822,2.677,4.906,3.795,7.322,5.791,4.955,4.094,7.961,10.052,13.277,13.779a18.059,18.059,0,0,0,11.335,3.159c3.913-.239,8.318-1.65,10.869-4.791a2.061,2.061,0,0,0,0-2.829,2.015,2.015,0,0,0-2.829,0c-2.55,3.142-7.352,4.091-11.193,3.509-4-.607-7.118-2.91-9.79-5.828-2.609-2.851-4.81-6.066-7.617-8.736a29.349,29.349,0,0,0-4.739-3.567c-1.342-.84-2.929-1.734-3.615-3.241-1-2.192-.893-4.467-.736-6.811.061-.9.149-1.8.221-2.7.04-.5.077-1.006.1-1.51a6.414,6.414,0,0,1,.075-1.653l-.919,1.2.2-.126-1.01.273.248-.024-1.009-.273a7.144,7.144,0,0,1,1.243.993q.873.7,1.776,1.372a35.721,35.721,0,0,0,3.673,2.4,23.092,23.092,0,0,0,8.992,3.081c2.4.243,6.606.412,8.1-1.91,1.253-1.945.686-4.9.147-6.993l-2.46,2.46c2.67.6,4.458,3.275,6.133,5.242q3.307,3.884,6.421,7.928a54.244,54.244,0,0,1,5.392,7.741c1.242,2.395,1.736,5.282.05,7.585a2.014,2.014,0,0,0,.718,2.736A2.045,2.045,0,0,0,141.147,435.729Z"/><path class="c" d="M77.694,92.121a150.765,150.765,0,0,0,5.926,18.37c4.482,11.81,9.727,23.177,13.725,31.427.223-.489.349-.76.349-.76,3.523-7.609,7.6-16.766,12.593-29.778a166.3,166.3,0,0,0,6.349-19.713l1.058.75c4.593,3.26,17.154,9.515,25.01,15.938a18.779,18.779,0,0,1,3.082,2.993,19.448,19.448,0,0,1,2.993,7.09c2.337,8.963,6.264,77.994,6.976,92.43-4.341.479-13.352,1.282-19.065,1.767-.192-1.24-.437-2.752-.718-4.444-5.779,1.133-21.412,1.693-26.631-.644-4.38-1.962-7.941-11.365-9.988-18.81,0,0-.2-.718-.522-1.908-3.055,9.658-9.038,19.411-13.449,21.023-5.42,1.981-21.341,1.517-27,.362l-.791-.161c1.787-10.719,4.992-28.476,5.133-30.23.149-1.865-4.725-39.077-4.944-40.935a85.979,85.979,0,0,0-2.345-10.176c-.5-.036-.848-.067-.911-.087-1.044-.337-26.9-4.6-35.462-5.3a42.333,42.333,0,0,1-12.109-3.3C.813,114.8,1.374,107.506,3.367,102.521c2.2-5.5,4.223-9.624,9.678-18.209,2.808-4.421,8.974-13.8,14.552-21.043,3.472,1.945,14.762,9.343,18.437,10.389C45.071,78.074,39.945,86.1,37.97,90.61c-.719,1.644-1.4,2.969-2.011,4.106a76.32,76.32,0,0,0,8.67.149c1.2-.026,4.158-.026,5.73,0,7.019-1.344,19.381-2.52,26.446-3.04"/><path class="b" d="M79.708,94.935a20.985,20.985,0,0,0,3.27-1.229A5.515,5.515,0,0,0,85.6,90.551a19.652,19.652,0,0,0,.6-3.264,42.106,42.106,0,0,0,.525-5.57,2.017,2.017,0,0,0-2-2,2.038,2.038,0,0,0-2,2c-.019.807-.061,1.614-.131,2.419q-.048.548-.113,1.093c-.006.051-.069.546-.047.389s-.05.337-.058.388a30.226,30.226,0,0,1-.535,3.14c-.025.1-.052.192-.083.286-.023.072-.148.409-.024.092.151-.386-.241.39-.243.385-.027-.084.329-.348.035-.068-.03.028-.192.236-.238.227.207-.152.249-.185.127-.1-.06.043-.122.084-.185.124-.112.07-.228.134-.345.2-.137.071-.338.15-.083.051-.092.036-.184.069-.276.1-.166.059-.333.114-.5.17-.461.155-.923.308-1.384.464a2,2,0,0,0,1.064,3.857Z"/><path class="b" d="M107.468,81.511a50.016,50.016,0,0,0,.724,6.926,7.61,7.61,0,0,0,1.53,4.092,8.384,8.384,0,0,0,3.552,2.032c.926.36,1.856.712,2.775,1.086a2.006,2.006,0,0,0,2.461-1.4,2.062,2.062,0,0,0-1.4-2.46c-.813-.331-1.635-.642-2.453-.961-.345-.134-.69-.27-1.036-.4-.079-.03-.159-.057-.237-.089.337.139-.2-.117-.267-.154-.113-.065-.536-.421-.175-.089-.1-.1-.2-.2-.306-.293-.3-.286.182.337-.009-.014-.06-.112-.124-.223-.187-.334-.184-.329.109.423-.007-.052-.035-.145-.084-.286-.118-.432-.133-.572-.2-1.158-.292-1.737a39.435,39.435,0,0,1-.558-5.723,2,2,0,0,0-4,0Z"/><path class="b" d="M65.55,40.92c2.574,0,2.578-4,0-4s-2.578,4,0,4Z"/><path class="b" d="M140.7,108.355c0,.043-.052.353-.132.8s-.169.895-.263,1.34c-.22,1.045-.47,2.084-.728,3.12-.588,2.351-1.23,4.689-1.875,7.025-1.235,4.475-2.582,8.947-3.5,13.5-1,4.958-1.386,10.1-2.026,15.109-.958,7.5-1.921,15.011-2.783,22.528a46.981,46.981,0,0,0-.579,5.865,44.18,44.18,0,0,0,1.006,6.576c1.643,9.647,3.438,19.272,4.935,28.943a2.016,2.016,0,0,0,2.461,1.4,2.05,2.05,0,0,0,1.4-2.46c-1.341-8.667-2.928-17.3-4.419-25.938q-.461-2.67-.909-5.343-.153-.919-.3-1.84c-.04-.254-.078-.507-.117-.761-.084-.548-.021-.2-.019-.112a34.165,34.165,0,0,1,.343-4.535q2.031-18.45,4.591-36.862c-.05.358.117-.67.148-.841.1-.538.211-1.075.329-1.61.257-1.169.544-2.332.84-3.493.694-2.709,1.447-5.4,2.192-8.1,1.3-4.7,2.807-9.459,3.407-14.316a2.012,2.012,0,0,0-2-2,2.049,2.049,0,0,0-2,2Z"/><path class="b" d="M116.684,94.144c4.486,3.154,9.455,5.644,14.136,8.492,2.86,1.74,5.688,3.545,8.389,5.527,2.782,2.042,5.414,4.162,6.643,7.5a28.153,28.153,0,0,1,1.311,4.807c.083.468.156.938.226,1.408.039.259.075.518.111.777.073.513-.036-.288.013.092.022.17.045.339.066.509.405,3.165.714,6.343,1.007,9.52.826,8.961,1.474,17.939,2.092,26.917q1,14.516,1.846,29.041.611,10.31,1.154,20.624.039.756.077,1.514l2-2c-6.651.729-13.323,1.283-19.989,1.846-2.546.214-2.569,4.216,0,4,6.666-.563,13.338-1.117,19.989-1.846a2.038,2.038,0,0,0,2-2c-.319-6.447-.689-12.891-1.066-19.334q-.844-14.47-1.813-28.933c-.631-9.348-1.3-18.695-2.127-28.027-.3-3.418-.626-6.836-1.036-10.243a53.468,53.468,0,0,0-.989-6.359c-.881-3.59-2.247-7.032-4.976-9.62a59.2,59.2,0,0,0-8.2-6.193c-5.274-3.484-10.836-6.482-16.227-9.773-.888-.542-1.769-1.1-2.621-1.7-2.11-1.483-4.111,1.983-2.019,3.454Z"/><path class="e" d="M85.63,156.523c0-1.9,1.071-3.878,4.068-3.878,2.8.085,3.932,2.026,3.932,4.195a3.809,3.809,0,0,1-4.141,3.805C86.478,160.645,85.63,158.177,85.63,156.523Z"/><path class="b" d="M87.63,156.523c0-.168.012-.335.025-.5.028-.355-.1.546-.025.2.018-.083.032-.165.052-.248.039-.164.092-.322.146-.482.111-.331-.233.478-.071.169.052-.1.1-.2.16-.3.043-.073.092-.142.138-.213.192-.29-.344.389-.1.137.121-.125.255-.239.376-.364-.379.392-.281.209-.114.1.078-.051.158-.1.24-.143s.177-.08.26-.128c-.531.306-.192.084,0,.027.212-.063.438-.079.648-.142-.522.155-.245.034-.052.022.128-.007.257-.013.386-.011s.243.016.366.022c.43.024-.483-.1-.075-.008.244.056.479.118.718.2.366.12-.443-.228-.114-.044.084.047.17.088.252.138s.153.111.234.154c-.455-.243-.275-.223-.121-.084.135.122.244.261.369.391-.4-.416-.2-.271-.105-.117a3.521,3.521,0,0,1,.179.308c.079.152.147.435-.051-.152.029.086.066.169.095.255a4.713,4.713,0,0,1,.144.533c.019.092.029.186.049.277-.138-.623-.042-.332-.028-.155a5.064,5.064,0,0,1,.017.616c-.009.229-.144.563.032-.111-.037.142-.053.291-.091.434s-.112.29-.144.437c.116-.528.177-.379.074-.19-.052.094-.1.19-.155.282-.042.07-.089.136-.133.205-.187.288.343-.4.11-.142a4.783,4.783,0,0,1-.359.367c-.152.134-.336.161.128-.092-.079.043-.151.1-.228.151s-.163.095-.247.137c-.456.232.358-.109.026-.007-.2.062-.4.127-.613.169l-.11.021q-.318.051.189-.023a1.949,1.949,0,0,0-.363.027c-.245.01-.486,0-.73-.017-.419-.023.488.107.094.009-.135-.034-.269-.06-.4-.1-.093-.029-.184-.072-.278-.1.586.169.232.1.057,0-.079-.045-.152-.1-.229-.144-.278-.175.42.366.064.041-.063-.058-.124-.118-.182-.18-.136-.145-.287-.46.045.082-.1-.165-.215-.319-.3-.492-.038-.072-.069-.148-.107-.22.314.6.115.28.054.1a5.2,5.2,0,0,1-.148-.533c-.016-.076-.027-.152-.044-.227-.072-.319.055.615.021.16-.012-.166-.023-.33-.024-.5a2,2,0,0,0-4,0,6.074,6.074,0,0,0,3,5.448,6.443,6.443,0,0,0,7.521-1.252,6.279,6.279,0,0,0,1.093-6.249,5.689,5.689,0,0,0-2.459-3.023,6.825,6.825,0,0,0-4.423-.678,5.556,5.556,0,0,0-3.682,2.258,6.037,6.037,0,0,0-1.047,3.5,2,2,0,0,0,4,0Z"/><path class="e" d="M85.63,173.531c0-1.9,1.071-3.878,4.068-3.878,2.8.085,3.932,2.026,3.932,4.2a3.809,3.809,0,0,1-4.141,3.8C86.478,177.653,85.63,175.185,85.63,173.531Z"/><path class="b" d="M87.63,173.531c0-.169.012-.335.025-.5.028-.354-.1.547-.025.2.018-.083.032-.166.052-.248.039-.164.092-.322.146-.482.111-.331-.233.478-.071.169.052-.1.1-.2.16-.3.043-.072.092-.141.138-.212.192-.291-.344.389-.1.137.121-.125.255-.239.376-.364-.379.392-.281.208-.114.1.078-.051.158-.1.24-.143s.177-.08.26-.128c-.531.306-.192.084,0,.027.212-.063.438-.08.648-.142-.522.155-.245.034-.052.022.128-.008.257-.013.386-.011s.243.016.366.022c.43.024-.483-.1-.075-.008.244.056.479.118.718.2.366.12-.443-.229-.114-.044.084.047.17.088.252.138s.153.111.234.154c-.455-.243-.275-.223-.121-.084.135.122.244.261.369.391-.4-.416-.2-.271-.105-.117a3.521,3.521,0,0,1,.179.308c.079.152.147.434-.051-.152.029.086.066.169.095.255a4.713,4.713,0,0,1,.144.533c.019.092.029.186.049.277-.138-.623-.042-.332-.028-.155a5.064,5.064,0,0,1,.017.616c-.009.229-.144.563.032-.111-.037.142-.053.291-.091.434s-.112.29-.144.437c.116-.528.177-.379.074-.19-.052.094-.1.189-.155.281-.042.07-.089.137-.133.206-.187.288.343-.4.11-.142a4.783,4.783,0,0,1-.359.367c-.152.134-.336.161.128-.092-.079.043-.151.1-.228.151s-.163.095-.247.137c-.456.232.358-.109.026-.007-.2.062-.4.127-.613.169l-.11.021q-.318.051.189-.023a1.949,1.949,0,0,0-.363.027c-.245.01-.486,0-.73-.017-.419-.023.488.107.094.009-.135-.034-.269-.06-.4-.1-.093-.029-.184-.072-.278-.1.586.169.232.1.057,0-.079-.045-.152-.1-.229-.144-.278-.176.42.366.064.041-.063-.058-.124-.118-.182-.18-.136-.145-.287-.46.045.082-.1-.166-.215-.319-.3-.492-.038-.072-.069-.148-.107-.22.314.6.115.28.054.1a5.2,5.2,0,0,1-.148-.533c-.016-.076-.027-.152-.044-.228-.072-.318.055.616.021.161-.012-.166-.023-.33-.024-.5a2,2,0,0,0-4,0,6.074,6.074,0,0,0,3,5.448,6.443,6.443,0,0,0,7.521-1.252,6.279,6.279,0,0,0,1.093-6.249,5.689,5.689,0,0,0-2.459-3.023,6.825,6.825,0,0,0-4.423-.678,5.552,5.552,0,0,0-3.682,2.258,6.037,6.037,0,0,0-1.047,3.5,2,2,0,0,0,4,0Z"/><path class="b" d="M120.769,113.506a25.933,25.933,0,0,1,2.037,2.294c.3.362.594.726.875,1.1.124.165.467.882.648.95-.468-.175.6-2.3-.114-1.583a4.22,4.22,0,0,0-.389.559c-.43.6-.873,1.2-1.315,1.793-3.566,4.789-7.2,9.526-10.8,14.293q-4,5.305-7.967,10.643a2.013,2.013,0,0,0,.717,2.736,2.048,2.048,0,0,0,2.737-.717c4.717-6.365,9.5-12.678,14.285-18.993,1.585-2.092,3.174-4.182,4.738-6.29.664-.895,1.89-2.109,1.888-3.315,0-1.242-1.223-2.439-1.931-3.332a29.394,29.394,0,0,0-2.582-2.967c-1.856-1.785-4.689,1.04-2.828,2.828Z"/><path class="b" d="M116.4,93.211c-.254-.015-.443.035-.59-.15.073.092.257.12.343.21.211.215-.324-.313.088.08.145.138.3.27.439.41a25.339,25.339,0,0,1,2.045,2.322,65.93,65.93,0,0,1,4.2,6.008c.594.949,1.169,1.911,1.7,2.9.219.409.423.825.625,1.243.042.09.083.182.122.273-.108-.262-.124-.3-.045-.1.479-2.4.378-1.466.063-1.06-.642.827-1.119,1.49-1.912,2.422a37.1,37.1,0,0,1-2.7,2.91c-1.874,1.773.958,4.6,2.828,2.828a43.667,43.667,0,0,0,4.672-5.363,3.3,3.3,0,0,0,.984-2.418,8.327,8.327,0,0,0-1.054-2.506,59.549,59.549,0,0,0-7.461-10.947c-1.116-1.3-2.5-2.956-4.343-3.061-2.572-.147-2.564,3.853,0,4Z"/><path class="b" d="M75.765,92.653a116.088,116.088,0,0,0,5,15.892c2.818,7.684,6.005,15.234,9.373,22.692,2.631,5.825,5.451,11.552,8.236,17.3,1.925,3.974,1.1,9.347.91,13.636q-.422,9.281-.941,18.555c-.143,2.572,3.858,2.564,4,0q.463-8.358.856-16.718c.218-4.651.69-9.394-.189-14-.546-2.865-2.168-5.461-3.434-8.058q-2.2-4.512-4.307-9.065c-3.385-7.317-6.585-14.721-9.465-22.251-2.363-6.177-4.821-12.551-6.184-19.046-.528-2.517-4.385-1.452-3.857,1.064Z"/><path class="b" d="M69.924,110.3c-.93.853-1.782,1.8-2.622,2.738a8.341,8.341,0,0,0-2.106,2.844c-.421,1.534,1.314,3.044,2.167,4.1,4.142,5.138,8.391,10.191,12.612,15.264q4.653,5.591,9.305,11.181c1.647,1.982,4.463-.862,2.828-2.828q-7.8-9.377-15.593-18.752-2.773-3.346-5.526-6.709c-.578-.71-1.149-1.426-1.721-2.141-.293-.366,0,0-.016-.017-.025-.035-.154-.252-.19-.254-.223-.006-.28-1.042-.009.155l-.2,1.542c.206-.458.073-.168.408-.56q.572-.669,1.162-1.321c.75-.827,1.507-1.66,2.33-2.415,1.9-1.743-.933-4.566-2.828-2.828Z"/><path class="b" d="M77.852,89.533c-1.6.086-2.873,1.342-3.946,2.415a50.775,50.775,0,0,0-4.15,4.832,63.53,63.53,0,0,0-3.932,5.561c-.911,1.478-2.213,3.292-1.067,4.961a34.463,34.463,0,0,0,5.167,5.822c1.9,1.73,4.737-1.091,2.828-2.828a40.54,40.54,0,0,1-4.173-4.535c-.056-.069-.367-.468-.251-.314.127.169-.11-.167-.153-.214s-.1-.22-.162-.251c-.034-.017.164,1.192.188,1.283s-.214.364-.049.129c.4-.566.663-1.275,1.025-1.87a55.264,55.264,0,0,1,6.756-8.912A22.041,22.041,0,0,1,77.7,93.869c.169-.145.5-.37.126-.113.11-.075.219-.151.331-.225.09-.059.212-.094.294-.161-.254.2-.248.145-.6.163,2.561-.136,2.577-4.136,0-4Z"/><path class="b" d="M114.74,91a133.522,133.522,0,0,1-5.946,18.7q-4.049,10.751-8.681,21.275-2.024,4.608-4.146,9.173a2.059,2.059,0,0,0,.717,2.736,2.018,2.018,0,0,0,2.737-.717c6.21-13.42,12.125-27.114,16.647-41.2.94-2.929,1.881-5.889,2.529-8.9.54-2.51-3.315-3.583-3.857-1.063Z"/><path class="b" d="M57.855,210.142a65.713,65.713,0,0,0,10.655,1.006,82.432,82.432,0,0,0,12.362-.367c3.3-.391,6.157-1.026,8.665-3.339a36.35,36.35,0,0,0,7.2-10.309,57.322,57.322,0,0,0,5.533-15.871,2.056,2.056,0,0,0-1.4-2.46,2.018,2.018,0,0,0-2.46,1.4A52.78,52.78,0,0,1,94.2,193.238a40.315,40.315,0,0,1-6.471,10.348,8.808,8.808,0,0,1-3.02,2.4c.352-.151-.395.114-.487.141-.3.09-.609.166-.916.236-.713.163-1.438.289-2.162.384a74.753,74.753,0,0,1-11.325.435,64.161,64.161,0,0,1-10.9-.9c-2.514-.5-3.59,3.353-1.064,3.857Z"/><path class="b" d="M97.424,189.268a72.351,72.351,0,0,0,4.243,11.773c1.406,2.957,3.284,6.371,6.252,8.024,2.437,1.357,5.514,1.618,8.234,1.854a83.321,83.321,0,0,0,10.434.175,65.944,65.944,0,0,0,9.917-.979c2.525-.486,1.456-4.342-1.063-3.857a73.661,73.661,0,0,1-17.1.81,29.93,29.93,0,0,1-7.75-1.17,1.3,1.3,0,0,1-.34-.128,5.393,5.393,0,0,1-.72-.411,7.5,7.5,0,0,1-1.276-1.2,19.166,19.166,0,0,1-2.559-3.981,62.143,62.143,0,0,1-4.412-11.973c-.686-2.477-4.547-1.425-3.857,1.063Z"/><path class="b" d="M115.98,142.357c2.62.043,5.24,0,7.86-.061a5.283,5.283,0,0,0,2.771-.641,4.325,4.325,0,0,0,1.814-2.325,8.763,8.763,0,0,0,.212-2.72c0-.935,0-1.87,0-2.806a2,2,0,0,0-4,0q.009,1.257.007,2.515c0,.38,0,.76-.008,1.14,0,.18,0,.36-.006.54,0,.079,0,.157-.009.236q.063-.4.012-.174a1.675,1.675,0,0,1-.061.206q.162-.356.058-.157a1.824,1.824,0,0,1-.108.18c.177-.216.193-.244.048-.082-.282.266.344-.161-.031.031-.349.178.385-.054-.038.025-.405.075.416.033-.043.018-.2-.007-.41.009-.613.014l-1.134.025c-2.242.046-4.484.072-6.726.036a2,2,0,1,0,0,4Z"/><path class="b" d="M79.639,138.579c-2.252.027-4.5.04-6.756.021q-.8-.007-1.6-.02c-.3-.005-.607-.008-.911-.017-.129,0-.259,0-.389-.014q.4.058.065-.016c-.433-.057.271.124-.087-.045q-.276-.184.037.043a2.553,2.553,0,0,1-.213-.216q.23.312.046.034-.153-.3.007.06a2.449,2.449,0,0,1-.085-.3q.039.4.017.054a2,2,0,0,0-4,0,4.6,4.6,0,0,0,1.921,3.607,6.271,6.271,0,0,0,3.82.814c2.709.041,5.419.028,8.128,0a2,2,0,1,0,0-4Z"/><path class="b" d="M123.063,124.463c1.707,0,3.407-.246,5.115-.25a2,2,0,0,0,0-4c-1.708,0-3.408.245-5.115.25a2,2,0,0,0,0,4Z"/><path class="b" d="M51.037,118.226c1.908,7.078,4.163,14.132,5.076,21.24q1.158,9.007,2.3,18.017c.745,5.936,1.522,11.874,2.126,17.827.07.685.156,1.376.182,2.064.005.15.009.3.009.449,0,.7.062-.337-.043.345-.415,2.716-.891,5.424-1.359,8.132-1.486,8.6-3.066,17.181-4.4,25.8a2.063,2.063,0,0,0,1.4,2.46,2.017,2.017,0,0,0,2.461-1.4c1.2-7.737,2.6-15.443,3.941-23.156.56-3.221,1.13-6.442,1.646-9.671a15.134,15.134,0,0,0,.286-3.792c-1.034-11.945-2.843-23.853-4.372-35.742-.243-1.893-.429-3.809-.757-5.689-1.062-6.073-3.032-12.009-4.634-17.953-.669-2.483-4.529-1.429-3.857,1.063Z"/><path class="b" d="M76.805,89.825c-6.823.506-13.643,1.166-20.424,2.081-1.594.215-3.186.444-4.772.711a24.841,24.841,0,0,1-4.256.229c-3.521,0-7.07.231-10.583-.044-2.567-.2-2.554,3.8,0,4,3.513.275,7.062.044,10.583.044a26.7,26.7,0,0,0,4.7-.266c1.549-.272,3.1-.5,4.663-.719,6.664-.914,13.377-1.539,20.084-2.036,2.552-.189,2.572-4.191,0-4Z"/><path class="a" d="M107,107.221c4.022-4,6.656-8.837,9.626-13.672a21.4,21.4,0,0,0-4.364-5.9A43.383,43.383,0,0,1,99.74,96.38c-.259.117-.548.261-.632.533a1,1,0,0,0,.145.707,40.4,40.4,0,0,0,2.59,3.345C103.605,103.121,105.818,105.764,107,107.221Z"/><path class="a" d="M87.942,107.221c-4.021-4-6.655-8.837-9.626-13.672a21.427,21.427,0,0,1,4.365-5.9A43.383,43.383,0,0,0,95.2,96.38c.259.117.548.261.632.533a1.007,1.007,0,0,1-.145.707,40.4,40.4,0,0,1-2.59,3.345C91.338,103.121,89.126,105.764,87.942,107.221Z"/><path class="b" d="M108.416,108.635a56.09,56.09,0,0,0,7.88-10.683c.566-.933,1.128-1.87,1.7-2.8a2.833,2.833,0,0,0,.6-1.867,5.006,5.006,0,0,0-.782-1.739,22.937,22.937,0,0,0-4.133-5.306,2.034,2.034,0,0,0-2.828,0,40.63,40.63,0,0,1-6.709,5.438c-1.183.767-2.4,1.479-3.653,2.125-1.226.632-2.894,1.078-3.308,2.58a3.516,3.516,0,0,0,.9,3.045c.819,1.087,1.683,2.142,2.545,3.195,1.647,2.01,3.321,4,4.961,6.014a2.014,2.014,0,0,0,2.829,0,2.048,2.048,0,0,0,0-2.828c-1.37-1.683-2.763-3.345-4.143-5.019-.777-.942-1.553-1.886-2.313-2.841-.212-.267-.416-.519-.615-.792a4.5,4.5,0,0,0-.271-.384c-.186-.2.066-.265.034.142l-.273,1.009q-.538.442-.086.185l.292-.134c.294-.139.587-.277.878-.421q.891-.443,1.761-.928,1.791-1,3.484-2.165a45.579,45.579,0,0,0,6.513-5.393h-2.828a20.4,20.4,0,0,1,4.051,5.492V92.539c-2.829,4.616-5.464,9.4-9.313,13.268C103.769,107.634,106.6,110.463,108.416,108.635Z"/><path class="b" d="M89.357,105.807c-3.85-3.869-6.484-8.652-9.314-13.268v2.019A20.42,20.42,0,0,1,84.1,89.066H81.266a45.71,45.71,0,0,0,6.514,5.393q1.69,1.162,3.484,2.165.8.446,1.614.854.436.219.879.426c.145.069.291.136.437.2q.453.257-.085-.185l-.273-1.009c-.029-.366.233-.363.034-.142a3.4,3.4,0,0,0-.218.311c-.217.3-.435.572-.668.865-.761.955-1.537,1.9-2.313,2.841-1.38,1.674-2.774,3.336-4.143,5.019a2.058,2.058,0,0,0,0,2.828,2.015,2.015,0,0,0,2.829,0c1.607-1.975,3.246-3.923,4.86-5.892.873-1.065,1.744-2.132,2.578-3.228a3.6,3.6,0,0,0,.969-3.134c-.4-1.459-1.967-1.895-3.16-2.5q-1.879-.96-3.656-2.106A40.746,40.746,0,0,1,84.1,86.238a2.037,2.037,0,0,0-2.829,0A22.9,22.9,0,0,0,77.215,91.4a7.342,7.342,0,0,0-.827,1.616,2.629,2.629,0,0,0,.564,2.133c.568.932,1.129,1.869,1.7,2.8a56,56,0,0,0,7.88,10.683C88.346,110.463,91.175,107.635,89.357,105.807Z"/><path class="d" d="M79.119,88.577c3.735-1.142,6.536-3.4,5.45-7.251a23.99,23.99,0,0,1-7.513-6.188A27.558,27.558,0,0,1,71.81,64.9l-1.033-.159a6.813,6.813,0,0,1-3.171-1.429,8.449,8.449,0,0,1-1.188-1.181c-1.065,2.655-1.41,5.737-.517,10.071.559,2.694,1.773,5.334,2.414,8.014s.1,5.981-2.292,7.338C65.289,89.427,73.327,90.349,79.119,88.577Z"/><path class="c" d="M60.819,34.676c-.989-4.692.268-9.383,5.241-8.8.348-6.87,10.087-23.833,31-23.833,31.145,0,33.2,24.639,31.461,23.991,2.737-1.693,4.552.068,5.465,1.379,1.445,2.074.408,8.7-3.555,14.074-3.833,5.194-8.1,3.675-14.556,3.556-6-.111-12.667-.556-18.444-.667-3.048-.058-10.222.253-18.778.667-6.889.333-9.865.56-14.667-3.778A14.64,14.64,0,0,1,60.819,34.676Z"/><path class="e" d="M91.124,26.776c-2.469-2.946-2.8-7.843.229-10.564,1.689-1.628,3.961-2.241,6.8-2.295a10.513,10.513,0,0,1,7.29,2.62l.433.5c2.07,2.387,2.619,7.095.551,9.353-2.719,2.971-6.99,4-11.984,2.584A6.718,6.718,0,0,1,91.124,26.776Z"/><path class="b" d="M104.033,17.951c.184.213.379.422.553.644-.2-.253,0,.007.026.055.083.139.175.273.256.414.065.112.374.738.278.514a7.7,7.7,0,0,1,.354,1.076,8.683,8.683,0,0,1,.193.917c-.049-.324.008.113.014.192.013.171.022.343.026.516a8.479,8.479,0,0,1-.033.915c-.033.365.112-.44-.024.158-.043.19-.08.381-.134.568-.035.123-.077.243-.117.364-.179.553.1-.173-.056.124-.072.135-.154.265-.226.4-.032.061-.224.3-.007.034a6.856,6.856,0,0,1-.714.732c-.1.095-.208.187-.314.277-.487.412.267-.168-.256.2a7.787,7.787,0,0,1-3.415,1.419,12.3,12.3,0,0,1-4.034-.077,5.891,5.891,0,0,1-3.71-1.846,5.753,5.753,0,0,1-.847-1.3,2.471,2.471,0,0,1-.276-.653A9.15,9.15,0,0,1,91.3,22.6c.011.048-.108-.61-.069-.339s-.034-.39-.03-.343c-.019-.271-.024-.543-.016-.814.007-.2.019-.406.043-.607-.012.1-.072.32.018-.067.076-.329.164-.649.257-.973.161-.56-.16.253.1-.267.092-.181.184-.361.289-.534a2.645,2.645,0,0,1,.425-.584,6.143,6.143,0,0,1,1.557-1.249,3.272,3.272,0,0,1,.674-.317,12.4,12.4,0,0,1,1.266-.359,12.143,12.143,0,0,1,2.343-.231,2,2,0,0,0,0-4c-3.842.1-7.822,1.34-9.821,4.9a10.108,10.108,0,0,0,.573,10.325,9.249,9.249,0,0,0,4.773,3.695,15.8,15.8,0,0,0,6.063.725,12.843,12.843,0,0,0,5.424-1.611,9.215,9.215,0,0,0,3.7-3.6,9.661,9.661,0,0,0,.651-6.042,10.787,10.787,0,0,0-2.654-5.18,2.019,2.019,0,0,0-2.829,0,2.041,2.041,0,0,0,0,2.829Z"/><path class="b" d="M95.548,23.158a3.212,3.212,0,0,1,.094-4.351,3.936,3.936,0,0,1,2.8-.944,4.331,4.331,0,0,1,3,1.078l.178.207A3.239,3.239,0,0,1,101.851,23a4.677,4.677,0,0,1-4.935,1.064A2.768,2.768,0,0,1,95.548,23.158Z"/><path class="b" d="M64.4,61.828c-1.875,5.075-.783,10.4.9,15.361.713,2.1,1.686,4.408,1.079,6.656a3.374,3.374,0,0,1-1.226,1.895,2.454,2.454,0,0,0-1.1,2.628c.555,2.4,3.731,2.814,5.74,3.03a25.832,25.832,0,0,0,8.991-.652c3.252-.822,6.5-2.5,7.715-5.812.888-2.42-2.976-3.464-3.857-1.063.014-.04-.273.52-.348.619a8.937,8.937,0,0,1-.777.763c.127-.1-.6.4-.78.5-.244.14-.882.451-.906.462a17.982,17.982,0,0,1-5.538,1.236,25.971,25.971,0,0,1-2.8.067q-.7-.021-1.393-.085c-.073-.007-.62-.069-.427-.043s-.4-.066-.473-.079c-.326-.06-.652-.13-.971-.222-.14-.041-.277-.091-.416-.132-.456-.135.407.16,0,0-.105-.039-.191-.117-.292-.161-.321-.14.294.316.109.079a1.643,1.643,0,0,1,.327,1.209l-.919,1.2c4.378-2.7,3.823-8.044,2.424-12.267-1.541-4.65-2.972-9.321-1.2-14.121.893-2.419-2.971-3.462-3.857-1.064Z"/><path class="b" d="M125.55,49.6a1.975,1.975,0,0,1,2.776.366,4.357,4.357,0,0,1,.412,2.213,13.405,13.405,0,0,1-.186,2.758c-.6,3.274-2.237,7.218-5.881,7.871a2.017,2.017,0,0,0-1.4,2.46,2.044,2.044,0,0,0,2.46,1.4c5.765-1.034,8.519-7.531,8.953-12.757.226-2.725-.029-5.785-2.381-7.542a6.077,6.077,0,0,0-7.585.405,2.016,2.016,0,0,0,0,2.829,2.044,2.044,0,0,0,2.828,0Z"/><path class="b" d="M121.162,61.729a15.08,15.08,0,0,1-.882,4.064c-.08.243-.174.484-.244.73-.039.134-.2.46.044-.088-.128.288-.26.573-.4.855a34.667,34.667,0,0,1-2.99,4.806c-2.58,3.538-6.113,7.286-10.48,8.31-2.5.588-1.445,4.446,1.063,3.857C112.656,83,116.828,78.6,120,74.315c2.731-3.7,4.976-7.889,5.167-12.586.1-2.574-3.9-2.57-4,0Z"/><path class="b" d="M71.259,46.775a6.081,6.081,0,0,0-7.586-.405c-2.354,1.75-2.606,4.822-2.38,7.542.434,5.226,3.188,11.723,8.953,12.757a2.057,2.057,0,0,0,2.46-1.4,2.017,2.017,0,0,0-1.4-2.46c-3.644-.654-5.283-4.6-5.881-7.871a13.317,13.317,0,0,1-.188-2.6,5.091,5.091,0,0,1,.348-2.263A1.959,1.959,0,0,1,68.43,49.6a2.057,2.057,0,0,0,2.829,0,2.017,2.017,0,0,0,0-2.829Z"/><path class="b" d="M69.012,61.548A31.636,31.636,0,0,0,75.765,76.7c3.809,4.51,8.854,7.746,14.789,8.386a2.012,2.012,0,0,0,2-2,2.047,2.047,0,0,0-2-2c-4.976-.537-9.123-3.755-12.208-7.511a27.965,27.965,0,0,1-5.477-13.087,2.017,2.017,0,0,0-2.461-1.4,2.045,2.045,0,0,0-1.4,2.46Z"/><path class="b" d="M68.178,24.949a24.2,24.2,0,0,1,6.367-11.4A29.963,29.963,0,0,1,90.721,4.627,39.428,39.428,0,0,1,112.383,6.71a25.036,25.036,0,0,1,11.005,8.569,24.2,24.2,0,0,1,1.717,2.9c.1.208.2.416.3.627.055.118.306.687.24.529s.153.386.2.512c.083.218.162.436.238.656a19.516,19.516,0,0,1,.654,2.337c.073.343.13.688.185,1.035-.11-.688.014.218.028.454.151,2.559,4.152,2.576,4,0-.516-8.764-7.25-16.547-14.837-20.294A42.668,42.668,0,0,0,93.051.263,34.313,34.313,0,0,0,73.366,9.079c-4.175,3.857-7.9,9.145-9.045,14.807-.508,2.513,3.346,3.588,3.857,1.063Z"/><path class="b" d="M135.717,26.408c-2.084-2.895-5.2-3.922-8.388-1.993-2.969,1.8-5.374,4.374-8.321,6.2-.337.209-.68.409-1.03.6-.144.077-1.031.5-.757.388a14.6,14.6,0,0,1-1.524.515c-1.274.371-2.576.65-3.88.9a84.551,84.551,0,0,1-10.489,1.249c-7.223.439-15.038.33-21.994-1.883-5.059-1.61-8.088-6.78-13.187-8.232a5.713,5.713,0,0,0-6.32,2.531c-1.452,2.2-1.487,5.069-1.1,7.58A14.9,14.9,0,0,0,69.078,46.611c2.761.8,5.721.62,8.555.485,3.97-.188,7.939-.384,11.91-.538,6.542-.254,13.019-.011,19.559.266,3.636.153,7.272.213,10.9.429,2.759.164,5.541.174,8.078-1.073,2.993-1.471,5.026-4.654,6.385-7.582a19.407,19.407,0,0,0,2.128-8.924,6.645,6.645,0,0,0-.88-3.266c-1.385-2.16-4.849-.157-3.454,2.019.04.061.244.522.113.147a4.544,4.544,0,0,1,.164.586,6.162,6.162,0,0,1,.069,1.17,14.045,14.045,0,0,1-.7,3.883c-.833,2.716-2.3,5.816-4.527,7.673-1.773,1.482-4.035,1.52-6.235,1.427-3.1-.13-6.2-.268-9.3-.38-6.208-.225-12.415-.677-18.629-.5-6.434.182-12.892.826-19.326.775-4.73-.038-8.919-2.372-10.557-6.978a10.916,10.916,0,0,1-.606-6.3,2.893,2.893,0,0,1,1.046-1.738,2.485,2.485,0,0,1,.746-.293c-.413.07.175,0,.244.013-.305-.055.461.131.54.159,2,.7,3.878,2.455,5.55,3.8a22.826,22.826,0,0,0,6.3,3.974c6.111,2.306,13.179,2.605,19.643,2.567a91.549,91.549,0,0,0,11.5-.832,52.185,52.185,0,0,0,8.947-1.757c3.126-.992,5.684-3,8.2-5.038a26.349,26.349,0,0,1,4.225-3.108,1.818,1.818,0,0,1,2.6.746,2.058,2.058,0,0,0,2.737.717A2.015,2.015,0,0,0,135.717,26.408Z"/><path class="b" d="M78.309,26.664a15.578,15.578,0,0,1,1.736-.875l-.478.2A19.524,19.524,0,0,1,83.6,24.885a2.014,2.014,0,0,0,1.2-.919,2.044,2.044,0,0,0,.2-1.541,2.022,2.022,0,0,0-.92-1.2,2.244,2.244,0,0,0-1.541-.2,19.124,19.124,0,0,0-6.246,2.183,2,2,0,1,0,2.019,3.453Z"/><path class="b" d="M120.3,23.211a19.129,19.129,0,0,0-6.247-2.183,2.145,2.145,0,0,0-1.541.2,2,2,0,0,0-.718,2.736,1.962,1.962,0,0,0,1.2.919,19.533,19.533,0,0,1,4.032,1.106l-.478-.2a15.679,15.679,0,0,1,1.737.875,2,2,0,1,0,2.019-3.453Z"/><path class="a" d="M41.056,71.3c2.238-.392,5.735-1.366,8.373-2.1,3.146-.878,5.466-2.837,8.16-4.416,2.5-1.3,4.961-2.712,5.853-5.234,1.6-4.517-3.364-1.848-5.157-1.3l-1.136.347c3.474-4.9,14.465-21.063,10.511-22.085l-.961-.248c.6-.653.664-2.9-.057-3.554-1.516-1.381-3.387-1.009-4.14.6a2.974,2.974,0,0,0-4.3-1.133,6.827,6.827,0,0,0-2.433,3.383l-.158.472-.128-.081c-.925-.59-1.8-.506-2.9.58A115.828,115.828,0,0,0,43.2,48.214s-4.333,3.576-6.386,5.543c-3.2,3.063-3.6,4.777-5.463,7.194l-2.57,3.011C31.69,65.695,36.9,69,41.056,71.3Z"/><path class="b" d="M57.97,60.864c2.233-3.016,4.314-6.163,6.308-9.341,1.362-2.171,2.681-4.376,3.846-6.66a21.089,21.089,0,0,0,2.25-5.758,4.607,4.607,0,0,0-.3-3.057,3.932,3.932,0,0,0-2.842-1.715l1.2,2.938a5,5,0,0,0-.677-6.23A4.5,4.5,0,0,0,60.775,32.3h3.454a5.055,5.055,0,0,0-6.638-2.054c-2.069,1.021-3.2,3.157-3.907,5.255l2.938-1.2C53.141,32.08,50.41,35.8,48.4,38.2s-3.962,4.908-5.826,7.447c-.269.366-.542.73-.8,1.107-.085.126-.168.257-.257.381.47-.65.27-.285.095-.2a17.237,17.237,0,0,0-3.027,2.474,50.153,50.153,0,0,0-7.647,8.4,2.013,2.013,0,0,0,.718,2.736,2.047,2.047,0,0,0,2.736-.717,45.048,45.048,0,0,1,6.772-7.376,22.64,22.64,0,0,0,4.193-3.862c1.412-2.012,2.938-3.952,4.48-5.866.88-1.093,1.773-2.176,2.7-3.227.378-.428.761-.853,1.161-1.26.22-.224.509-.629.827-.7-.267.057-.071.126.072.217a2.023,2.023,0,0,0,2.938-1.2c.31-.921,1.943-4.293,3.234-2.245a2.02,2.02,0,0,0,3.454,0c.257-.474.759-.577.933-.258a1.776,1.776,0,0,1-.19,1.2,2.013,2.013,0,0,0,1.2,2.938,7.952,7.952,0,0,0,.925.239c.362.047-.35-.226-.125-.06a1.215,1.215,0,0,1-.409-.41c.223.312-.2-.465-.038-.08.135.324.026-.344-.015-.086-.017.107,0,.231-.008.341-.017.32.095-.425,0,.041-.04.189-.079.378-.127.566a20.744,20.744,0,0,1-2.128,4.931,122.956,122.956,0,0,1-7.3,11.735c-.793,1.156-1.591,2.311-2.425,3.438a2.013,2.013,0,0,0,.717,2.736,2.047,2.047,0,0,0,2.737-.717Z"/><path class="b" d="M55.208,38.732a69.512,69.512,0,0,1-5.178,8.052,2.013,2.013,0,0,0,.717,2.737,2.05,2.05,0,0,0,2.737-.718,69.645,69.645,0,0,0,5.178-8.052,2,2,0,0,0-3.454-2.019Z"/><path class="b" d="M60.791,38.746c-.728,1.668-1.676,3.261-2.556,4.851-.969,1.751-1.921,3.535-3.027,5.2a2.014,2.014,0,0,0,.717,2.736,2.046,2.046,0,0,0,2.737-.717c1.106-1.67,2.058-3.454,3.027-5.2.88-1.59,1.828-3.183,2.556-4.852a2.054,2.054,0,0,0-.717-2.736,2.023,2.023,0,0,0-2.737.718Z"/><path class="b" d="M35.237,100.476a53.474,53.474,0,0,1,2.96-5.714c1.207-2.333,2.225-4.753,3.458-7.076,2.277-4.288,5.2-8.714,6.307-13.5a2.043,2.043,0,0,0-1.4-2.461,7.206,7.206,0,0,1-1.4-.546c-.76-.355-1.506-.743-2.245-1.141-1.8-.967-3.557-2-5.307-3.05-3.008-1.8-5.95-3.727-9-5.45a2.064,2.064,0,0,0-2.736.718A279.6,279.6,0,0,0,8.931,87.132a95.381,95.381,0,0,0-5.9,11.045c-1.587,3.6-3.1,7.256-3.033,11.267a11.517,11.517,0,0,0,6.17,10.424,37.429,37.429,0,0,0,12.655,3.439c6.371.64,12.589,1.57,18.95,2.555q5.572.863,11.138,1.786,1.809.3,3.616.616c.338.06.675.135,1.014.183.3.043.866.284,0-.1l-.717-.717v0l1.2-2.938c.524-.04.691-.064.5-.07-2.574-.1-2.57,3.9,0,4a1.846,1.846,0,0,0,.563-.073,2.021,2.021,0,0,0,1.2-2.938c-.761-1.271-2.991-1.261-4.273-1.48q-4.3-.732-8.605-1.412c-6.929-1.1-13.868-2.192-20.835-3.026a64.575,64.575,0,0,1-9.288-1.532c-3.547-.954-7.679-2.1-8.875-6.028-1.07-3.516.07-7.131,1.416-10.391A82.864,82.864,0,0,1,10.8,91.813,259.121,259.121,0,0,1,29.324,64.279L26.587,65c3.148,1.775,6.179,3.761,9.28,5.614,3.029,1.809,6.223,3.959,9.635,4.977l-1.4-2.461a27.14,27.14,0,0,1-2.451,6.033c-1.21,2.392-2.521,4.731-3.768,7.1-1.2,2.3-2.192,4.691-3.405,6.98a52.4,52.4,0,0,0-3.1,6.17c-.9,2.416,2.966,3.459,3.857,1.063Z"/><path class="b" d="M58.817,60.176c.741-.235,1.453-.553,2.188-.807a11.088,11.088,0,0,1,1.158-.347c.159-.036.634-.25.208-.048.363-.172.252.255.034-.047.212.057.168.03-.132-.083a.9.9,0,0,1-.3-.286.828.828,0,0,1-.191-.347c-.025-.291-.033-.31-.024-.06-.07.062-.181.755-.353,1.112a6.837,6.837,0,0,1-2.762,2.655c-1.281.784-2.614,1.456-3.878,2.274a31.743,31.743,0,0,1-4.28,2.518c-1.434.635-3.015.98-4.5,1.472A29.53,29.53,0,0,1,41.5,69.415a2.014,2.014,0,0,0-1.4,2.46,2.048,2.048,0,0,0,2.46,1.4,27.089,27.089,0,0,0,4.136-1.12c1.488-.49,3.033-.87,4.493-1.435,2.95-1.142,5.394-3.116,8.158-4.6,2.584-1.388,5.007-3.172,6.024-6.035.752-2.115.3-4.742-2.3-5.066-1.876-.235-3.589.754-5.318,1.3-2.444.777-1.4,4.64,1.064,3.857Z"/><path class="b" d="M92.272,70.586a11.521,11.521,0,0,0,5.549,1.3,9.178,9.178,0,0,0,5.727-1.743,2,2,0,0,0,.586-1.415,2.036,2.036,0,0,0-.586-1.414,2.01,2.01,0,0,0-1.414-.586,2.346,2.346,0,0,0-1.414.586c.7-.541.011-.035-.207.079-.169.089-.608.227.035,0-.15.052-.3.113-.446.162-.409.131-.838.167-1.247.284.2-.059.36-.043.052-.012-.122.012-.245.022-.367.03q-.443.028-.887.025c-.265,0-.529-.011-.793-.029-.122-.008-.243-.018-.364-.03-.069-.007-.138-.014-.207-.023q-.237-.029.2.027c-.094-.081-.466-.082-.6-.111q-.287-.064-.568-.148c-.163-.048-.322-.107-.483-.162-.437-.15.436.207.04.02q-.3-.141-.592-.3a2,2,0,1,0-2.019,3.454Z"/><path class="b" d="M96.512,57.893a24.789,24.789,0,0,1,.577,2.64L97.017,60a1.591,1.591,0,0,1,.01.365l.071-.532a.836.836,0,0,1-.04.164l.2-.478a.669.669,0,0,1-.058.1l.313-.4a.576.576,0,0,1-.086.085l.4-.313a1.736,1.736,0,0,1-.209.111l.478-.2a1.545,1.545,0,0,1-.352.1l.531-.072a1.358,1.358,0,0,1-.331,0l.532.071c-.125-.017-.247-.048-.372-.064a2.244,2.244,0,0,0-1.541.2,2,2,0,0,0-.717,2.737l.312.4a2,2,0,0,0,.883.515c.341.046.672.131,1.02.146a3.354,3.354,0,0,0,1.576-.386,2.415,2.415,0,0,0,1.3-1.575,3.683,3.683,0,0,0-.012-1.625c-.144-.85-.341-1.693-.559-2.528a2.065,2.065,0,0,0-.92-1.2,2,2,0,0,0-2.736.718,2.1,2.1,0,0,0-.2,1.541Z"/><path class="b" d="M83.176,50.245c-.441,1.432-.154,4.728,2.56,5.008,3.588-.021,3.779-4.006,2.571-5.879C87.318,47.84,84.411,47.2,83.176,50.245Z"/><path class="b" d="M111.9,50.245c.441,1.432.154,4.728-2.56,5.008-3.588-.021-3.779-4.006-2.571-5.879C107.761,47.84,110.668,47.2,111.9,50.245Z"/></svg>