<?xml version="1.0" encoding="iso-8859-1"?>
<!-- Uploaded to: SVG Repo, www.svgrepo.com, Generator: SVG Repo Mixer Tools -->
<svg height="800px" width="800px" version="1.1" id="Layer_1" xmlns="http://www.w3.org/2000/svg" xmlns:xlink="http://www.w3.org/1999/xlink" 
	 viewBox="0 0 339.471 339.471" xml:space="preserve">
<g id="XMLID_1019_">
	<g id="XMLID_1020_">
		<path id="XMLID_1022_" style="fill:#FF5959;" d="M225.938,19.186c-17.376,7.61-25.45,18.428-25.45,18.428
			c0-4.217-5.76-15.372-12.35-26.754c-8.442-14.581-29.524-14.456-37.776,0.233c-6.348,11.3-11.869,22.332-11.869,26.521
			c0,0-7.852-10.897-25.221-18.511c-6.071-2.662-11.888,4.196-8.327,9.788c8.2,12.879,17.501,31.649,15.452,48.186
			c-0.583,4.706,3.872,8.436,8.403,7.038c10.82-3.34,27.106-7.566,40.246-7.568c13.242-0.002,29.971,4.308,40.989,7.664
			c4.507,1.373,8.941-2.337,8.368-7.013c-2.023-16.505,7.444-35.256,15.811-48.162C237.831,23.453,232.031,16.517,225.938,19.186z"
			/>
		<path id="XMLID_1021_" style="fill:#5FD2DB;" d="M295.137,214.069c0,69.258-56.144,125.402-125.402,125.402
			S44.334,283.327,44.334,214.069s56.144-148.89,125.402-148.89S295.137,144.811,295.137,214.069z"/>
	</g>
	<circle id="XMLID_581_" style="fill:#FFFEB9;" cx="171.917" cy="296.705" r="13.921"/>
	<circle id="XMLID_580_" style="fill:#FFFEB9;" cx="218.509" cy="271.138" r="13.921"/>
	<circle id="XMLID_579_" style="fill:#FFFEB9;" cx="249.729" cy="233.567" r="13.921"/>
</g>
</svg>