<?xml version="1.0" ?><!-- Uploaded to: SVG Repo, www.svgrepo.com, Generator: SVG Repo Mixer Tools -->
<svg width="800px" height="800px" viewBox="0 0 32 32" id="OBJECT" xmlns="http://www.w3.org/2000/svg"><defs><style>.cls-1{fill:#b2b2b2;}</style></defs><title/><path d="M16.82,2.28a6.75,6.75,0,0,0-5.86-1,1,1,0,0,0-.7.69,6.71,6.71,0,0,0,1.57,6.51,1,1,0,0,0,.72.31h.07a1,1,0,0,0,.75-.42A3.24,3.24,0,0,1,16,7a1,1,0,0,0,1-1V4a1,1,0,0,1,.12-.45A1,1,0,0,0,16.82,2.28Z"/><path class="cls-1" d="M25.67,18.53h0c-1.94-2.79-3.89-7.73-4.87-10.44A4.23,4.23,0,0,0,19.24,6a5.54,5.54,0,0,0-4.83-.79,5.16,5.16,0,0,0-3.32,3.17c-1,2.62-2.87,7.42-4.77,10.13A7.11,7.11,0,0,0,5,22.6v3.67c0,2.42,1.29,4.24,3.28,4.65a4.15,4.15,0,0,0,4.09-1.54A5.11,5.11,0,0,0,16,31a5.1,5.1,0,0,0,3.64-1.63A4.1,4.1,0,0,0,27,26.89V22.62A7.17,7.17,0,0,0,25.67,18.53Z"/><path class="cls-1" d="M16,7a1,1,0,0,1-1-1V4a3,3,0,0,1,3-3h1a1,1,0,0,1,0,2H18a1,1,0,0,0-1,1V6A1,1,0,0,1,16,7Z"/><path d="M16,31c-3.31,0-6-3.59-6-8a1,1,0,0,1,2,0c0,3.25,1.83,6,4,6s4-2.75,4-6a1,1,0,0,1,2,0C22,27.41,19.31,31,16,31Z"/></svg>