<?xml version="1.0" encoding="iso-8859-1"?>
<!-- Uploaded to: SVG Repo, www.svgrepo.com, Generator: SVG Repo Mixer Tools -->
<svg height="800px" width="800px" version="1.1" id="Layer_1" xmlns="http://www.w3.org/2000/svg" xmlns:xlink="http://www.w3.org/1999/xlink" 
	 viewBox="0 0 511.988 511.988" xml:space="preserve">
<path style="fill:#4A89DC;" d="M511.988,485.332c0,11.718-9.593,21.312-21.327,21.312H21.328C9.594,506.645,0,497.051,0,485.332
	V79.998C0,68.264,9.594,58.67,21.328,58.67h469.333c11.734,0,21.327,9.593,21.327,21.328V485.332z"/>
<path style="fill:#5D9CEC;" d="M511.988,463.988c0,11.719-9.593,21.344-21.327,21.344H21.328C9.594,485.332,0,475.707,0,463.988
	V58.67c0-11.734,9.594-21.328,21.328-21.328h469.333c11.734,0,21.327,9.594,21.327,21.328V463.988z"/>
<path style="fill:#ED5564;" d="M490.661,37.343H21.328C9.594,37.343,0,46.937,0,58.671v63.999h511.988v-64
	C511.988,46.936,502.395,37.343,490.661,37.343z"/>
<g>
	<path style="fill:#E6E9ED;" d="M95.998,5.344c-5.891,0-10.672,4.766-10.672,10.656v63.999c0,5.891,4.781,10.672,10.672,10.672
		c5.891,0,10.672-4.781,10.672-10.672v-64C106.67,10.109,101.889,5.344,95.998,5.344z"/>
	<path style="fill:#E6E9ED;" d="M202.668,5.344c-5.891,0-10.672,4.766-10.672,10.656v63.999c0,5.891,4.781,10.672,10.672,10.672
		c5.89,0,10.655-4.781,10.655-10.672v-64C213.323,10.109,208.557,5.344,202.668,5.344z"/>
	<path style="fill:#E6E9ED;" d="M309.322,5.344c-5.891,0-10.656,4.766-10.656,10.656v63.999c0,5.891,4.766,10.672,10.656,10.672
		s10.671-4.781,10.671-10.672v-64C319.993,10.109,315.212,5.344,309.322,5.344z"/>
	<path style="fill:#E6E9ED;" d="M415.991,5.344c-5.891,0-10.672,4.766-10.672,10.656v63.999c0,5.891,4.781,10.672,10.672,10.672
		c5.89,0,10.671-4.781,10.671-10.672v-64C426.662,10.109,421.881,5.344,415.991,5.344z"/>
</g>
<polygon style="fill:#7F4545;" points="288.01,378.772 224.026,378.772 224.011,442.771 288.025,442.771 "/>
<polygon style="fill:#8CC153;" points="159.997,400.116 255.994,229.448 351.992,400.116 "/>
<polygon style="fill:#A0D468;" points="181.355,314.772 256.01,165.449 330.681,314.772 "/>
<g>
	<path style="fill:#F5F7FA;" d="M127.997,165.449c-5.891,0-10.671,4.781-10.671,10.672s4.78,10.656,10.671,10.656
		s10.672-4.765,10.672-10.656S133.888,165.449,127.997,165.449z"/>
	<path style="fill:#F5F7FA;" d="M383.992,165.449c-5.891,0-10.672,4.781-10.672,10.672s4.781,10.656,10.672,10.656
		s10.672-4.765,10.672-10.656S389.883,165.449,383.992,165.449z"/>
	<path style="fill:#F5F7FA;" d="M63.999,229.448c-5.891,0-10.672,4.781-10.672,10.671c0,5.891,4.781,10.672,10.672,10.672
		s10.672-4.781,10.672-10.672C74.671,234.229,69.89,229.448,63.999,229.448z"/>
	<path style="fill:#F5F7FA;" d="M127.997,293.431c-5.891,0-10.671,4.781-10.671,10.688c0,5.875,4.78,10.655,10.671,10.655
		s10.672-4.78,10.672-10.655C138.669,298.211,133.888,293.431,127.997,293.431z"/>
	<path style="fill:#F5F7FA;" d="M191.996,229.448c-5.891,0-10.672,4.781-10.672,10.671c0,5.891,4.781,10.672,10.672,10.672
		s10.672-4.781,10.672-10.672C202.668,234.229,197.887,229.448,191.996,229.448z"/>
	<path style="fill:#F5F7FA;" d="M319.993,229.448c-5.891,0-10.671,4.781-10.671,10.671c0,5.891,4.78,10.672,10.671,10.672
		s10.672-4.781,10.672-10.672C330.665,234.229,325.884,229.448,319.993,229.448z"/>
	<path style="fill:#F5F7FA;" d="M383.992,293.431c-5.891,0-10.672,4.781-10.672,10.688c0,5.875,4.781,10.655,10.672,10.655
		s10.672-4.78,10.672-10.655C394.664,298.211,389.883,293.431,383.992,293.431z"/>
	<path style="fill:#F5F7FA;" d="M447.99,229.448c-5.891,0-10.672,4.781-10.672,10.671c0,5.891,4.781,10.672,10.672,10.672
		s10.672-4.781,10.672-10.672C458.662,234.229,453.881,229.448,447.99,229.448z"/>
	<path style="fill:#F5F7FA;" d="M63.999,357.43c-5.891,0-10.672,4.781-10.672,10.687c0,5.875,4.781,10.656,10.672,10.656
		s10.672-4.781,10.672-10.656C74.671,362.211,69.89,357.43,63.999,357.43z"/>
	<path style="fill:#F5F7FA;" d="M127.997,421.427c-5.891,0-10.671,4.781-10.671,10.688c0,5.875,4.78,10.656,10.671,10.656
		s10.672-4.781,10.672-10.656C138.669,426.208,133.888,421.427,127.997,421.427z"/>
	<path style="fill:#F5F7FA;" d="M383.992,421.427c-5.891,0-10.672,4.781-10.672,10.688c0,5.875,4.781,10.656,10.672,10.656
		s10.672-4.781,10.672-10.656C394.664,426.208,389.883,421.427,383.992,421.427z"/>
	<path style="fill:#F5F7FA;" d="M447.99,357.43c-5.891,0-10.672,4.781-10.672,10.687c0,5.875,4.781,10.656,10.672,10.656
		s10.672-4.781,10.672-10.656C458.662,362.211,453.881,357.43,447.99,357.43z"/>
</g>
</svg>