<?xml version="1.0" encoding="iso-8859-1"?>
<!-- Uploaded to: SVG Repo, www.svgrepo.com, Generator: SVG Repo Mixer Tools -->
<svg height="800px" width="800px" version="1.1" id="Layer_1" xmlns="http://www.w3.org/2000/svg" xmlns:xlink="http://www.w3.org/1999/xlink" 
	 viewBox="0 0 512.001 512.001" xml:space="preserve">
<path style="fill:#FFC0CF;" d="M488.009,137.026c-6.182,12.364-9.401,25.997-9.401,39.821v158.307
	c0,13.824,3.219,27.458,9.401,39.821l20.959,41.916c1.464,2.928,2.494,6.073,2.858,9.326c1.942,17.365-12.591,31.898-29.955,29.955
	c-3.253-0.364-6.399-1.394-9.326-2.858l-41.916-20.959c-12.364-6.182-25.998-9.401-39.821-9.401H121.194
	c-13.824,0-27.458,3.219-39.821,9.401l-41.916,20.959c-2.928,1.464-6.073,2.494-9.326,2.858
	c-17.365,1.942-31.898-12.591-29.955-29.955c0.364-3.253,1.394-6.399,2.858-9.326l20.959-41.916c6.181-12.364,9.4-25.997,9.4-39.82
	V176.847c0-13.824-3.219-27.458-9.401-39.821L2.852,94.748C0.976,90.997,0,86.861,0,82.667l0,0
	c0-15.901,13.737-28.593,29.991-26.854c3.311,0.354,6.512,1.397,9.491,2.886l41.891,20.945c12.365,6.182,25.998,9.401,39.821,9.401
	h269.611c13.824,0,27.454-3.217,39.819-9.4c15.11-7.554,34.923-17.461,41.898-20.95c2.979-1.489,6.174-2.529,9.485-2.883
	C498.263,54.075,512,66.767,512,82.667l0,0c0,4.194-0.976,8.33-2.852,12.081L488.009,137.026z"/>
<path style="fill:#FFD7DF;" d="M445.217,256.001c0,73.766-84.716,133.565-189.217,133.565S66.783,329.767,66.783,256.001
	S151.499,122.436,256,122.436S445.217,182.235,445.217,256.001z"/>
<path style="fill:#FF9CAB;" d="M200.685,250.773l-5.228,5.228l5.228,5.228c3.26,3.26,3.26,8.546,0,11.805
	c-1.63,1.63-3.767,2.445-5.902,2.445c-2.136,0-4.273-0.815-5.902-2.445l-5.228-5.228l-5.228,5.228
	c-1.63,1.63-3.767,2.445-5.902,2.445s-4.273-0.815-5.902-2.445c-3.26-3.26-3.26-8.546,0-11.805l5.228-5.228l-5.228-5.228
	c-3.26-3.26-3.26-8.546,0-11.805c3.26-3.26,8.546-3.26,11.805,0l5.228,5.228l5.228-5.228c3.26-3.26,8.546-3.26,11.805,0
	C203.945,242.227,203.945,247.514,200.685,250.773z M345.381,238.968c-3.26-3.26-8.546-3.26-11.805,0l-5.228,5.228l-5.228-5.228
	c-3.26-3.26-8.546-3.26-11.805,0c-3.26,3.26-3.26,8.546,0,11.805l5.228,5.228l-5.228,5.228c-3.26,3.26-3.26,8.546,0,11.805
	c1.629,1.63,3.767,2.445,5.902,2.445c2.136,0,4.273-0.815,5.902-2.445l5.228-5.228l5.228,5.228c1.629,1.63,3.767,2.445,5.902,2.445
	c2.136,0,4.273-0.815,5.902-2.445c3.26-3.26,3.26-8.546,0-11.805l-5.228-5.228l5.228-5.228
	C348.641,247.514,348.641,242.227,345.381,238.968z M128.337,149.925c-3.26-3.26-8.546-3.26-11.805,0l-5.228,5.228l-5.228-5.228
	c-3.26-3.26-8.546-3.26-11.805,0c-3.26,3.26-3.26,8.546,0,11.805l5.228,5.228l-5.228,5.228c-3.26,3.26-3.26,8.546,0,11.805
	c1.629,1.63,3.767,2.445,5.902,2.445c2.136,0,4.273-0.815,5.902-2.445l5.228-5.228l5.228,5.228c1.629,1.63,3.767,2.445,5.902,2.445
	c2.136,0,4.273-0.815,5.902-2.445c3.26-3.26,3.26-8.546,0-11.805l-5.228-5.228l5.228-5.228
	C131.597,158.471,131.597,153.184,128.337,149.925z M273.033,149.925c-3.26-3.26-8.546-3.26-11.805,0L256,155.153l-5.228-5.228
	c-3.26-3.26-8.546-3.26-11.805,0c-3.26,3.26-3.26,8.546,0,11.805l5.228,5.228l-5.228,5.228c-3.26,3.26-3.26,8.546,0,11.805
	c1.63,1.63,3.767,2.445,5.902,2.445s4.273-0.815,5.902-2.445l5.228-5.228l5.228,5.228c1.63,1.63,3.767,2.445,5.902,2.445
	s4.273-0.815,5.902-2.445c3.26-3.26,3.26-8.546,0-11.805l-5.228-5.228l5.228-5.228C276.293,158.471,276.293,153.184,273.033,149.925
	z M412.501,166.958l5.228-5.228c3.26-3.26,3.26-8.546,0-11.805c-3.26-3.26-8.546-3.26-11.805,0l-5.228,5.228l-5.228-5.228
	c-3.26-3.26-8.546-3.26-11.805,0c-3.26,3.26-3.26,8.546,0,11.805l5.228,5.228l-5.228,5.228c-3.26,3.26-3.26,8.546,0,11.805
	c1.629,1.63,3.767,2.445,5.902,2.445c2.136,0,4.273-0.815,5.902-2.445l5.228-5.228l5.228,5.228c1.629,1.63,3.767,2.445,5.902,2.445
	c2.136,0,4.273-0.815,5.902-2.445c3.26-3.26,3.26-8.546,0-11.805L412.501,166.958z M128.337,328.012c-3.26-3.26-8.546-3.26-11.805,0
	l-5.228,5.228l-5.228-5.228c-3.26-3.26-8.546-3.26-11.805,0c-3.26,3.26-3.26,8.546,0,11.805l5.228,5.228l-5.228,5.228
	c-3.26,3.26-3.26,8.546,0,11.805c1.629,1.629,3.767,2.445,5.902,2.445c2.136,0,4.273-0.815,5.902-2.445l5.228-5.228l5.228,5.228
	c1.629,1.629,3.767,2.445,5.902,2.445c2.136,0,4.273-0.815,5.902-2.445c3.26-3.26,3.26-8.546,0-11.805l-5.228-5.228l5.228-5.228
	C131.597,336.558,131.597,331.271,128.337,328.012z M273.033,328.012c-3.26-3.26-8.546-3.26-11.805,0L256,333.24l-5.228-5.228
	c-3.26-3.26-8.546-3.26-11.805,0c-3.26,3.26-3.26,8.546,0,11.805l5.228,5.228l-5.228,5.228c-3.26,3.26-3.26,8.546,0,11.805
	c1.63,1.629,3.767,2.445,5.902,2.445s4.273-0.815,5.902-2.445L256,356.85l5.228,5.228c1.63,1.629,3.767,2.445,5.902,2.445
	s4.273-0.815,5.902-2.445c3.26-3.26,3.26-8.546,0-11.805l-5.228-5.228l5.228-5.228C276.293,336.558,276.293,331.271,273.033,328.012
	z M417.729,328.012c-3.26-3.26-8.546-3.26-11.805,0l-5.228,5.228l-5.228-5.228c-3.26-3.26-8.546-3.26-11.805,0
	c-3.26,3.26-3.26,8.546,0,11.805l5.228,5.228l-5.228,5.228c-3.26,3.26-3.26,8.546,0,11.805c1.629,1.629,3.767,2.445,5.902,2.445
	c2.136,0,4.273-0.815,5.902-2.445l5.228-5.228l5.228,5.228c1.629,1.629,3.767,2.445,5.902,2.445c2.136,0,4.273-0.815,5.902-2.445
	c3.26-3.26,3.26-8.546,0-11.805l-5.228-5.228l5.228-5.228C420.989,336.558,420.989,331.271,417.729,328.012z"/>
</svg>