<?xml version="1.0" encoding="iso-8859-1"?>

<!DOCTYPE svg PUBLIC "-//W3C//DTD SVG 1.1//EN" "http://www.w3.org/Graphics/SVG/1.1/DTD/svg11.dtd">
<!-- Uploaded to: SVG Repo, www.svgrepo.com, Generator: SVG Repo Mixer Tools -->
<svg height="800px" width="800px" version="1.1" id="_x35_" xmlns="http://www.w3.org/2000/svg" xmlns:xlink="http://www.w3.org/1999/xlink" 
	 viewBox="0 0 512 512"  xml:space="preserve">
<g>
	<g>
		<path style="fill:#A2CB2F;" d="M469.242,36.951c-19.065,0.23-299.895,14.903-310.301,15.022
			c-20.816,0.257-37.174,7.431-44.074,13.552C95.99,82.229,91.68,89.167,84.031,97.978c-13.684,15.787-3.095,31.271,1.267,32.946
			c4.358,1.681,10.488,6.806,19.005-6.304c8.517-13.11,24.638-42.786,44.54-46.499c2.708-0.508,324.239-10.861,324.239-10.861
			L469.242,36.951z"/>
		<path style="fill:#87B525;" d="M354.549,68.46c-6.924-0.112-133.395-7.109-222.968-11.864c-7.502,2.585-13.279,5.889-16.715,8.929
			c-9.334,8.263-15.102,14.126-19.477,19.012c11.623,0.422,24.571,0.904,38.324,1.392c4.725-3.911,9.786-6.819,15.128-7.808
			c1.698-0.316,128.815-4.51,223.362-7.584C366.815,69.364,360.92,68.566,354.549,68.46z"/>
		<path style="fill:#87B525;" d="M303.666,72.779c34.984-1.161,70.404-2.308,99.769-3.264c-2.229-2.104-4.669-4.359-7.472-6.858
			c-6.878-6.133-23.213-13.374-44.025-13.71c-3-0.046-28.6-1.398-63.92-3.291c-65.399,3.291-124.414,6.265-129.076,6.318
			c-20.816,0.257-37.174,7.431-44.074,13.552c-0.119,0.099-0.218,0.191-0.33,0.296C172.5,67.919,250.791,70.781,303.666,72.779z"/>
		<path style="fill:#A2CB2F;" d="M40.388,40.552C59.463,40.849,340.24,56.59,350.639,56.748
			c20.819,0.336,37.141,7.577,44.026,13.716c18.807,16.777,23.087,23.734,30.71,32.578c13.611,15.833,2.974,31.278-1.391,32.94
			c-4.372,1.662-10.525,6.766-18.986-6.377c-8.467-13.15-24.479-42.885-44.368-46.677c-2.69-0.507-324.196-12.081-324.196-12.081
			L40.388,40.552z"/>
		<g>
			<path style="fill:#87B525;" d="M316.222,64.016c0-3.073,0.29-6.08,1.326-8.916c-26.346-1.385-65.273-3.502-105.758-5.691
				c3.911,4.385,4.762,9.378,4.762,14.607c0,3.799-0.02,8.355-0.463,13.36c11.369,0.415,22.619,0.831,33.527,1.233
				c4.286-13.506,8.329-22.929,16.77-22.929c8.692,0,12.734,10.024,17.159,24.202c12.24,0.455,23.549,0.877,33.547,1.266
				C316.255,74.626,316.222,68.744,316.222,64.016z"/>
			<path style="fill:#87B525;" d="M54.23,57.104c0.541-7.063,4.788-11.982,11.118-15.451C52.243,41,43.283,40.598,40.388,40.552
				l-3.954,30.295c0,0,6.575,0.237,17.815,0.64C53.88,66.488,53.88,61.641,54.23,57.104z"/>
		</g>
	</g>
	<g>
		<path style="fill:none;" d="M399.063,29.579c-84.964,0-93.247,14.126-93.247,30.532c0,16.414,0,46.604,35.4,69.916
			c30.862,20.331,78.244,16.038,100.132-3.449c21.67-19.296,28.554-50.303,26.793-73.378
			C466.36,30.027,424.973,29.579,399.063,29.579z"/>
		<path style="fill:none;" d="M112.902,29.579c-25.907,0-67.304,0.448-69.078,23.621c-1.768,23.074,5.121,54.082,26.79,73.378
			c21.884,19.487,69.269,23.78,100.132,3.449c35.4-23.312,35.4-53.502,35.4-69.916C206.146,43.704,197.863,29.579,112.902,29.579z"
			/>
		<path style="fill:#72645D;" d="M191.105,2.026C175.169,0.81,152.344,0,119.12,0C98.186,0,63.949,0.135,43.151,2.565
			C28.429,4.321,27.619,26.809,15.531,26.809C3.444,26.809,0,28.497,0,36.33c0,7.767,0,23.298,0,23.298v0.203
			c0.068,4.254,1.756,9.251,5.132,9.251c3.444,0,8.644,2.633,8.644,12.088c0,7.023,7.901,51.997,51.187,75.091
			c11.952,6.416,26.606,11.144,44.501,12.966c5.2,0.539,10.737,0.81,16.544,0.81c86.909,0,101.428-56.926,112.165-91.771
			c0-0.068,0-0.135,0-0.135c0.338-1.081,0.675-2.161,1.013-3.174c0-0.068,0-0.068,0-0.068c0.473-1.553,1.013-3.039,1.486-4.457
			c0.945-2.904,1.958-5.537,3.039-7.833c2.634-5.74,5.74-9.589,10.062-10.534v-36.6C220.277,15.126,244.925,6.077,191.105,2.026z
			 M204.881,80.021c-0.405,2.499-0.945,5.132-1.688,7.766c-0.608,2.296-1.35,4.659-2.363,7.024c-0.54,1.485-1.215,3.038-1.958,4.524
			c-1.553,3.309-3.512,6.55-5.875,9.859c-0.54,0.811-1.08,1.552-1.756,2.363c-0.608,0.81-1.215,1.621-1.958,2.43
			c-1.351,1.554-2.836,3.174-4.389,4.728c-0.743,0.81-1.553,1.553-2.431,2.296c-0.81,0.811-1.688,1.552-2.634,2.296
			c-0.675,0.675-1.418,1.215-2.161,1.756c-2.161,1.756-4.457,3.376-6.888,4.997c-30.928,20.326-78.265,16.004-100.144-3.511
			c-0.743-0.676-1.418-1.283-2.093-1.958c-0.675-0.608-1.351-1.283-1.891-1.959c-1.013-0.945-1.891-2.025-2.769-3.038
			c-1.013-1.147-1.891-2.297-2.701-3.444c-0.608-0.675-1.08-1.351-1.486-2.027c-0.743-0.945-1.418-1.958-2.026-2.971
			c-4.93-7.766-8.441-16.274-10.67-24.85c-0.405-1.351-0.743-2.702-1.013-4.12c-0.54-2.431-1.013-4.93-1.351-7.428
			c-0.202-1.216-0.338-2.431-0.473-3.646c-0.203-1.756-0.338-3.512-0.473-5.268c0.068-0.135,0-0.27,0-0.405
			c-0.068-1.756-0.135-3.511-0.135-5.2c0-2.431,0.135-4.727,0.27-7.024c0.067-0.606,0.135-1.282,0.27-1.89
			c0.068-0.405,0.135-0.81,0.27-1.216c0.068-0.338,0.135-0.608,0.27-0.945c0.135-0.541,0.338-1.149,0.608-1.688
			c0.068-0.136,0.135-0.271,0.203-0.473c0.27-0.473,0.473-0.945,0.81-1.418c0.27-0.473,0.608-0.945,0.945-1.417
			c0.878-1.149,1.891-2.229,3.039-3.174c0,0,0-0.068,0.068-0.068c0.81-0.675,1.688-1.351,2.634-1.958
			c3.714-2.432,8.374-4.255,13.573-5.605c0.068,0,0.135,0,0.203-0.068c1.215-0.271,2.499-0.54,3.782-0.81
			c2.701-0.608,5.537-1.014,8.373-1.35c1.418-0.203,2.904-0.338,4.389-0.472c1.215-0.136,2.431-0.271,3.714-0.338
			c1.486-0.135,2.971-0.203,4.457-0.27c1.688-0.135,3.376-0.203,4.997-0.271c1.418-0.068,2.904-0.068,4.322-0.068
			c1.418-0.067,2.836-0.067,4.187-0.067c2.769-0.068,5.47-0.068,7.968-0.068c2.634,0,5.267,0,7.766,0.068
			c2.093,0,4.187,0,6.145,0.067c1.08,0,2.093,0.068,3.174,0.068c4.727,0.136,9.184,0.338,13.371,0.541
			c1.351,0.068,2.701,0.203,3.984,0.271c3.984,0.27,7.631,0.54,11.007,0.877c1.013,0.136,1.958,0.271,2.904,0.406
			c1.351,0.135,2.634,0.27,3.849,0.406c3.579,0.472,6.82,1.012,9.792,1.62c1.958,0.405,3.782,0.81,5.537,1.215
			c1.756,0.405,3.376,0.878,4.862,1.35c0.743,0.271,1.486,0.473,2.228,0.743c4.187,1.418,7.496,3.106,10.062,4.93
			c0.743,0.473,1.418,1.012,2.026,1.553c1.891,1.688,3.241,3.444,4.254,5.267c0.135,0.338,0.27,0.608,0.473,0.945
			c0.743,1.621,1.148,3.309,1.418,4.997c0.135,0.608,0.203,1.216,0.27,1.823v0.338c0.067,0.473,0.067,1.013,0.067,1.486
			c0.068,0.54,0.068,1.013,0.068,1.553v0.473c0,2.566,0,5.471-0.135,8.576c-0.068,1.283-0.135,2.633-0.27,3.984
			c-0.068,0.945-0.203,1.891-0.338,2.904v0.068c0,0.27-0.068,0.608-0.068,0.877C205.219,77.995,205.084,79.008,204.881,80.021z"/>
		<path style="fill:#60544C;" d="M496.739,26.809h-0.27c-7.631,0-10.805-9.049-15.802-16.072c-1.688-2.363-3.646-4.524-6.01-6.01
			c-1.688-1.147-3.579-1.891-5.807-2.162C447.983,0.135,413.814,0,392.812,0C244.858,0,303.54,15.531,256,15.531
			c-0.81,0-1.486,0-2.228-0.067v36.6c0.675-0.135,1.418-0.27,2.228-0.27h0.068c0.473,0,0.945,0.068,1.351,0.068h0.068
			c2.769,0.405,4.93,1.823,6.82,4.12c1.756,2.025,3.241,4.794,4.659,8.035c0.945,2.296,1.891,4.795,2.836,7.563
			c0.203,0.743,0.473,1.486,0.675,2.228c0.608,1.823,1.215,3.782,1.823,5.741c10.669,34.979,25.796,90.487,111.624,90.487
			c97.646,0,112.232-79.346,112.232-88.867c0-9.455,5.2-12.088,8.644-12.088c3.444,0,5.2-5.132,5.2-9.454c0,0,0-9.657,0-17.557
			V36.33C512,28.565,508.624,26.809,496.739,26.809z M467.904,70.635c-0.068,0.405-0.068,0.81-0.135,1.147
			c-0.135,1.149-0.27,2.297-0.473,3.444c-0.135,1.216-0.338,2.364-0.608,3.511c-0.675,3.985-1.688,8.037-2.971,12.021
			c-0.405,1.417-0.945,2.836-1.418,4.254c-0.608,1.486-1.148,2.971-1.823,4.457c-0.608,1.418-1.283,2.836-1.958,4.254
			c-2.093,4.254-4.592,8.306-7.428,12.154c-0.945,1.284-1.891,2.5-2.971,3.715c-1.013,1.215-2.093,2.431-3.241,3.579
			c-1.08,1.147-2.296,2.296-3.512,3.376c-21.879,19.515-69.284,23.838-100.145,3.511c-1.486-0.946-2.836-1.958-4.187-2.971
			c-1.35-0.945-2.634-1.958-3.849-2.972c-1.283-1.012-2.499-2.093-3.714-3.174c-1.08-0.945-2.093-1.958-3.039-2.971
			c-1.013-1.013-2.026-2.026-2.904-3.106c-0.743-0.811-1.418-1.621-2.093-2.432c-3.579-4.456-6.348-8.913-8.441-13.37
			c-0.675-1.418-1.283-2.836-1.823-4.254c-1.013-2.364-1.756-4.728-2.363-7.024c-0.473-1.553-0.81-3.039-1.081-4.524
			c-0.203-0.878-0.338-1.688-0.473-2.499c0-0.135-0.068-0.203-0.068-0.338c-0.203-1.282-0.405-2.497-0.54-3.781
			c-0.203-1.351-0.27-2.634-0.405-3.917V72.66c-0.135-1.08-0.203-2.093-0.27-3.039c0-1.284-0.068-2.498-0.068-3.646
			c-0.067-2.093-0.067-4.052-0.067-5.876c0-1.012,0.067-2.025,0.135-3.038c0.067-0.878,0.135-1.756,0.338-2.566
			c0.135-0.675,0.27-1.351,0.473-2.026c0.135-0.608,0.405-1.283,0.608-1.891c0.27-0.676,0.608-1.283,0.945-1.958
			c0.27-0.541,0.608-1.013,0.945-1.553c0.067-0.068,0.135-0.203,0.203-0.27c0.54-0.743,1.216-1.553,1.958-2.296
			c0,0,0.068,0,0.068-0.068c0.945-0.878,2.026-1.756,3.241-2.566c0.473-0.406,1.013-0.675,1.553-1.013
			c0.135-0.134,0.338-0.203,0.54-0.338c1.148-0.608,2.363-1.215,3.714-1.823c3.174-1.418,7.023-2.701,11.682-3.781
			c1.148-0.271,2.296-0.54,3.579-0.81c1.283-0.27,2.566-0.54,3.984-0.743c0.203-0.068,0.405-0.068,0.608-0.135
			c1.823-0.271,3.714-0.608,5.74-0.877c13.1-1.756,30.253-2.77,52.942-2.77c4.862,0,10.197,0,15.802,0.203
			c1.891,0.068,3.782,0.136,5.672,0.271c1.486,0.067,2.971,0.135,4.457,0.27c1.283,0.068,2.566,0.203,3.849,0.338
			c1.283,0.134,2.566,0.269,3.849,0.404c2.566,0.27,5.065,0.675,7.428,1.148c1.216,0.27,2.431,0.473,3.579,0.742
			c2.431,0.608,4.727,1.216,6.888,1.959c1.013,0.405,1.958,0.743,2.904,1.148c0.338,0.135,0.608,0.27,0.945,0.404
			c0.608,0.338,1.215,0.609,1.823,0.947h0.068c2.093,1.08,3.984,2.295,5.605,3.781c0.473,0.405,0.945,0.81,1.351,1.284
			c1.418,1.485,2.566,3.106,3.376,4.997c0.203,0.405,0.405,0.877,0.54,1.35c0.27,0.608,0.405,1.215,0.54,1.891
			c0.203,0.81,0.338,1.621,0.405,2.498c0.338,4.525,0.338,9.32,0,14.249C468.107,68.541,467.971,69.554,467.904,70.635z"/>
	</g>
</g>
</svg>