<?xml version="1.0" encoding="iso-8859-1"?>
<!-- Uploaded to: SVG Repo, www.svgrepo.com, Generator: SVG Repo Mixer Tools -->
<svg height="800px" width="800px" version="1.1" id="Layer_1" xmlns="http://www.w3.org/2000/svg" xmlns:xlink="http://www.w3.org/1999/xlink" 
	 viewBox="0 0 512 512" xml:space="preserve">
<g>
	<path style="fill:#805333;" d="M108.772,26.483L203.192,0c0,0,29.793,204.138,52.966,220.69v247.172l17.655,17.655L232.359,512
		L79.606,467.862c0,0,2.578-204.323-8.166-251.313c-1.836-8.042,0.565-16.366,6.824-21.734
		C96.087,179.518,123.409,137.428,108.772,26.483"/>
	<path style="fill:#633E25;" d="M403.357,26.483L309.122,0c0,0-29.793,204.138-52.966,220.69v247.172L300.295,512l132.228-44.138
		c0,0-0.556-204.509,8.166-251.313c1.51-8.113-0.565-16.366-6.824-21.734C416.042,179.518,388.721,137.428,403.357,26.483"/>
	<g>
		<path style="fill:#805333;" d="M299.916,282.483c0,4.873-3.955,8.828-8.828,8.828s-8.828-3.955-8.828-8.828
			s3.955-8.828,8.828-8.828S299.916,277.61,299.916,282.483"/>
		<path style="fill:#805333;" d="M299.916,344.276c0,4.873-3.955,8.828-8.828,8.828s-8.828-3.955-8.828-8.828
			c0-4.873,3.955-8.828,8.828-8.828S299.916,339.403,299.916,344.276"/>
		<path style="fill:#805333;" d="M299.916,406.069c0,4.873-3.955,8.828-8.828,8.828s-8.828-3.955-8.828-8.828
			c0-4.873,3.955-8.828,8.828-8.828S299.916,401.196,299.916,406.069"/>
		<polygon style="fill:#805333;" points="326.399,406.072 397.02,406.072 397.02,370.761 326.399,370.761 		"/>
	</g>
	<polygon style="fill:#633E25;" points="114.537,406.072 185.157,406.072 185.157,370.761 114.537,370.761 	"/>
	<path style="fill:#472C19;" d="M256.16,220.69c20.824-14.874,46.972-181.098,52.065-214.705
		c-10.964,12.297-30.137,20.498-52.065,20.498c-21.892,0-41.075-8.148-52.056-20.409C209.233,39.857,235.354,205.833,256.16,220.69"
		/>
</g>
</svg>