<?xml version="1.0" encoding="iso-8859-1"?>
<!-- Uploaded to: SVG Repo, www.svgrepo.com, Generator: SVG Repo Mixer Tools -->
<svg height="800px" width="800px" version="1.1" id="Layer_1" xmlns="http://www.w3.org/2000/svg" xmlns:xlink="http://www.w3.org/1999/xlink" 
	 viewBox="0 0 512 512" xml:space="preserve">
<g>
	<g>
		<path style="fill:#0068FF;" d="M139.074,110.164L70.45,178.786c-13.727,13.725-35.979,13.725-49.705,0
			c-13.727-13.727-13.727-35.982-0.001-49.706L139.375,10.449L139.074,110.164z"/>
		<path style="fill:#0068FF;" d="M372.927,110.164l68.625,68.623c13.727,13.725,35.979,13.725,49.705,0
			c13.727-13.727,13.727-35.982,0.001-49.706L372.626,10.449L372.927,110.164z"/>
	</g>
	<path style="fill:#0068FF;" d="M301.18,10.449c0,24.953-20.229,45.179-45.179,45.179s-45.179-20.226-45.179-45.179H301.18z"/>
</g>
<path style="fill:#10BAFC;" d="M139.375,10.449h71.446c0,24.953,20.229,45.179,45.179,45.179s45.179-20.226,45.179-45.179h71.446
	v445.218c0,25.341-20.544,45.884-45.886,45.884c-25.341,0-45.885-20.543-45.885-45.884V317.782
	c0-13.729-11.128-24.857-24.855-24.857l0,0l0,0c-13.727,0-24.855,11.128-24.855,24.857v137.886
	c0,25.341-20.544,45.884-45.885,45.884c-25.342,0-45.886-20.543-45.886-45.884L139.375,10.449L139.375,10.449z"/>
<path d="M334.837,109.69c-5.77,0-10.449-4.678-10.449-10.449v-0.245c0-5.771,4.679-10.449,10.449-10.449
	c5.771,0,10.449,4.678,10.449,10.449v0.245C345.286,105.012,340.608,109.69,334.837,109.69z"/>
<path style="fill:#FFD41D;" d="M326.645,176.002c0-11.347-9.051-20.528-20.321-20.843c7.749-8.2,7.652-21.088-0.37-29.112
	c-8.023-8.021-20.912-8.115-29.109-0.37c-0.315-11.271-9.499-20.322-20.844-20.322c-11.347,0-20.531,9.051-20.844,20.322
	c-8.198-7.745-21.087-7.651-29.109,0.37c-8.023,8.025-8.116,20.913-0.371,29.112c-11.272,0.315-20.321,9.496-20.321,20.843
	c0,11.344,9.049,20.53,20.321,20.843c-7.745,8.2-7.652,21.088,0.371,29.11c8.023,8.021,20.912,8.117,29.109,0.371
	c0.312,11.271,9.497,20.32,20.844,20.32c11.344,0,20.529-9.049,20.844-20.32c8.198,7.745,21.087,7.649,29.109-0.371
	c8.023-8.023,8.119-20.91,0.37-29.11C317.594,196.533,326.645,187.347,326.645,176.002z"/>
<circle style="fill:#FF1A1A;" cx="256" cy="176.107" r="25.97"/>
<path d="M256,257.096c-11.657,0-21.762-6.242-27.151-15.644c-2.609,0.693-5.322,1.051-8.079,1.051
	c-8.351,0-16.203-3.253-22.11-9.159c-8.226-8.226-10.96-19.765-8.145-30.213c-9.382-5.394-15.609-15.487-15.609-27.129
	c0-11.64,6.227-21.734,15.609-27.128c-2.816-10.449-0.083-21.988,8.143-30.215c5.909-5.907,13.76-9.16,22.11-9.16
	c2.759,0,5.471,0.358,8.081,1.051c5.387-9.403,15.494-15.645,27.151-15.645c11.655,0,21.761,6.244,27.15,15.646
	c2.61-0.694,5.324-1.052,8.082-1.052c8.35,0,16.201,3.252,22.108,9.157c8.228,8.23,10.962,19.769,8.146,30.217
	c9.38,5.395,15.607,15.487,15.607,27.128c0,11.64-6.227,21.734-15.607,27.128c2.816,10.448,0.082,21.986-8.146,30.213
	c-5.908,5.907-13.761,9.16-22.11,9.16c-0.001,0,0,0-0.001,0c-2.76,0-5.47-0.358-8.08-1.051
	C277.762,250.853,267.655,257.096,256,257.096z M235.159,215.878c1.348,0,2.707,0.261,4,0.797c3.807,1.578,6.329,5.244,6.443,9.362
	c0.158,5.698,4.725,10.161,10.399,10.161c5.673,0,10.24-4.464,10.399-10.163c0.115-4.118,2.637-7.783,6.444-9.361
	c3.807-1.577,8.182-0.772,11.176,2.057c1.962,1.853,4.523,2.873,7.212,2.873c2.768,0,5.374-1.079,7.333-3.04
	c4.009-4.009,4.081-10.399,0.163-14.544c-2.83-2.995-3.636-7.372-2.057-11.178c1.578-3.806,5.244-6.329,9.362-6.444
	c5.699-0.158,10.163-4.725,10.163-10.398c0-5.672-4.464-10.239-10.164-10.398c-4.118-0.115-7.785-2.638-9.362-6.444
	c-1.577-3.806-0.771-8.183,2.058-11.177c3.918-4.146,3.846-10.536-0.165-14.548c-1.958-1.958-4.562-3.036-7.331-3.036
	c-2.689,0-5.251,1.021-7.213,2.876c-2.994,2.83-7.371,3.634-11.176,2.057c-3.807-1.578-6.329-5.243-6.444-9.361
	c-0.159-5.7-4.726-10.165-10.399-10.165c-5.674,0-10.241,4.464-10.399,10.163c-0.114,4.118-2.636,7.786-6.443,9.362
	c-3.807,1.579-8.183,0.772-11.177-2.056c-1.962-1.854-4.524-2.876-7.213-2.876c-2.768,0-5.373,1.079-7.333,3.039
	c-4.008,4.009-4.079,10.4-0.162,14.548c2.829,2.995,3.634,7.372,2.056,11.177c-1.578,3.806-5.243,6.328-9.361,6.443
	c-5.699,0.159-10.164,4.726-10.164,10.398c0,5.673,4.463,10.24,10.163,10.398c4.117,0.114,7.783,2.636,9.362,6.443
	c1.578,3.806,0.772,8.183-2.056,11.177c-3.917,4.148-3.846,10.538,0.163,14.546c1.959,1.959,4.564,3.039,7.334,3.039
	c2.689,0,5.249-1.021,7.211-2.873C229.957,216.863,232.538,215.878,235.159,215.878z"/>
<path d="M256,212.523c-20.082,0-36.419-16.335-36.419-36.415s16.337-36.417,36.419-36.417s36.418,16.336,36.418,36.417
	C292.418,196.187,276.082,212.523,256,212.523z M256,160.589c-8.558,0-15.521,6.962-15.521,15.519
	c0,8.556,6.962,15.517,15.521,15.517c8.559,0,15.52-6.961,15.52-15.517C271.52,167.551,264.558,160.589,256,160.589z"/>
<path d="M177.162,111.259c-5.77,0-10.449-4.678-10.449-10.449v-0.245c0-5.771,4.679-10.449,10.449-10.449
	c5.771,0,10.449,4.678,10.449,10.449v0.245C187.611,106.581,182.932,111.259,177.162,111.259z"/>
<path d="M498.647,121.691L380.014,3.061l0,0C378.123,1.169,375.511,0,372.626,0h-233.25c-2.885,0-5.497,1.169-7.388,3.061l0,0
	L13.354,121.691c-8.611,8.611-13.354,20.062-13.354,32.241c0,12.179,4.743,23.63,13.356,32.242
	c8.889,8.887,20.565,13.331,32.239,13.331c11.677,0,23.352-4.444,32.242-13.332l51.087-51.086v320.579
	c0,31.062,25.272,56.333,56.335,56.333c31.062,0,56.334-25.271,56.334-56.333V317.782c0-7.945,6.463-14.408,14.406-14.408
	c7.943,0,14.406,6.464,14.406,14.408v137.886c0,31.062,25.272,56.333,56.334,56.333c31.064,0,56.335-25.271,56.335-56.333V135.089
	l51.089,51.087c8.889,8.887,20.565,13.331,32.239,13.331c11.677,0,23.353-4.444,32.242-13.332
	c8.612-8.612,13.355-20.063,13.355-32.242C512,141.753,507.258,130.302,498.647,121.691z M128.926,105.534l-65.864,65.863
	c-9.632,9.628-25.299,9.629-34.929,0.001c-4.665-4.665-7.235-10.869-7.235-17.467c0-6.596,2.568-12.799,7.234-17.463L128.926,35.675
	V105.534z M289.122,20.898c-4.445,14.06-17.61,24.281-33.121,24.281c-15.51,0-28.676-10.222-33.122-24.281
	C222.878,20.898,289.122,20.898,289.122,20.898z M362.177,455.667c0,19.539-15.897,35.435-35.437,35.435
	c-19.54,0-35.436-15.896-35.436-35.435V317.782c0-19.467-15.838-35.306-35.304-35.306s-35.304,15.839-35.304,35.306v137.886
	c0,19.539-15.896,35.435-35.436,35.435s-35.437-15.896-35.437-35.435V20.898h16.889v45.863c0,5.771,4.679,10.449,10.449,10.449
	c5.771,0,10.449-4.678,10.449-10.449V20.898h13.745c4.903,25.697,27.541,45.179,54.645,45.179s49.741-19.482,54.645-45.179h13.743
	v44.295c0,5.771,4.679,10.449,10.449,10.449c5.771,0,10.449-4.678,10.449-10.449V20.898h16.891V455.667z M483.869,171.397
	c-9.632,9.628-25.299,9.629-34.929,0.001l-65.865-65.863V35.676l100.794,100.793c4.665,4.664,7.234,10.866,7.234,17.463
	C491.103,160.529,488.533,166.732,483.869,171.397z"/>
</svg>