<?xml version="1.0" encoding="iso-8859-1"?>
<!-- Uploaded to: SVG Repo, www.svgrepo.com, Generator: SVG Repo Mixer Tools -->
<svg height="800px" width="800px" version="1.1" id="Layer_1" xmlns="http://www.w3.org/2000/svg" xmlns:xlink="http://www.w3.org/1999/xlink" 
	 viewBox="0 0 512 512" xml:space="preserve">
<g>
	<path style="fill:#D0E8FF;" d="M164.881,89.856L17.356,66.564v355.581l147.525,23.292V89.856z M90.712,149.013
		c3.39,3.39,3.39,8.881,0,12.271c-1.695,1.695-3.915,2.542-6.136,2.542c-2.22,0-4.441-0.847-6.136-2.542l-12.174-12.172
		l-12.174,12.172c-1.695,1.695-3.915,2.542-6.136,2.542s-4.441-0.847-6.136-2.542c-3.39-3.39-3.39-8.881,0-12.271l12.173-12.172
		L41.822,124.67c-3.39-3.39-3.39-8.881,0-12.271c3.39-3.39,8.881-3.39,12.271,0l12.174,12.172l12.174-12.172
		c3.39-3.39,8.881-3.39,12.271,0c3.39,3.39,3.39,8.881,0,12.271l-12.173,12.172L90.712,149.013z"/>
	<path style="fill:#D0E8FF;" d="M329.763,66.564L182.237,89.856v355.581l147.525-23.292V66.564z M254.407,401.632
		c3.39,3.39,3.39,8.886,0,12.271c-1.695,1.695-3.915,2.542-6.136,2.542c-2.22,0-4.441-0.847-6.136-2.542l-12.17-12.172
		l-12.17,12.172c-1.695,1.695-3.915,2.542-6.136,2.542c-2.22,0-4.441-0.847-6.136-2.542c-3.39-3.385-3.39-8.881,0-12.271
		l12.171-12.174l-12.171-12.174c-3.39-3.39-3.39-8.886,0-12.271c3.39-3.39,8.881-3.39,12.271,0l12.17,12.171l12.17-12.172
		c3.39-3.39,8.881-3.39,12.271,0c3.39,3.385,3.39,8.881,0,12.271l-12.171,12.174L254.407,401.632z"/>
	<path style="fill:#D0E8FF;" d="M347.119,422.144l147.525,23.292V89.856L347.119,66.564V422.144z M396.441,270.814
		c-3.39-3.39-3.39-8.886,0-12.271c3.39-3.39,8.881-3.39,12.271,0l12.17,12.172l12.17-12.172c3.39-3.39,8.881-3.39,12.271,0
		c3.39,3.385,3.39,8.881,0,12.271l-12.171,12.174l12.171,12.174c3.39,3.39,3.39,8.886,0,12.271
		c-1.695,1.695-3.915,2.542-6.136,2.542c-2.22,0-4.441-0.847-6.135-2.542l-12.17-12.171l-12.17,12.172
		c-1.695,1.695-3.915,2.542-6.136,2.542s-4.441-0.847-6.136-2.542c-3.39-3.385-3.39-8.881,0-12.271l12.171-12.174L396.441,270.814z"
		/>
</g>
<g>
	<path style="fill:#1C71DA;" d="M504.678,73.869L339.797,47.835c-0.464-0.073-0.904,0.079-1.364,0.08
		c-0.456,0-0.885-0.15-1.348-0.08l-163.525,25.82L10.034,47.835C7.5,47.437,4.966,48.166,3.042,49.81C1.11,51.458,0,53.869,0,56.407
		V429.56c0,4.271,3.11,7.907,7.322,8.572l164.881,26.034c0.458,0.072,0.907,0.106,1.356,0.106c0.449,0,0.898-0.034,1.356-0.106
		l163.525-25.82l163.525,25.82c0.458,0.072,0.907,0.106,1.356,0.106c2.051,0,4.059-0.729,5.636-2.081
		c1.932-1.648,3.042-4.059,3.042-6.597V82.441C512,78.17,508.89,74.534,504.678,73.869z M17.356,66.564l147.525,23.292v355.581
		L17.356,422.144V66.564z M182.237,89.856l147.525-23.293v355.581l-147.525,23.292V89.856z M494.644,445.437l-147.525-23.292V66.564
		l147.525,23.292V445.437z"/>
	<path style="fill:#1C71DA;" d="M90.712,112.399c-3.39-3.39-8.881-3.39-12.271,0L66.267,124.57l-12.174-12.172
		c-3.39-3.39-8.881-3.39-12.271,0c-3.39,3.39-3.39,8.881,0,12.271l12.173,12.172l-12.173,12.172c-3.39,3.39-3.39,8.881,0,12.271
		c1.695,1.695,3.915,2.542,6.136,2.542s4.441-0.847,6.136-2.542l12.174-12.172l12.174,12.172c1.695,1.695,3.915,2.542,6.136,2.542
		c2.22,0,4.441-0.847,6.136-2.542c3.39-3.39,3.39-8.881,0-12.271l-12.173-12.172l12.173-12.172
		C94.102,121.28,94.102,115.789,90.712,112.399z"/>
	<path style="fill:#1C71DA;" d="M396.441,307.433c1.695,1.695,3.915,2.542,6.136,2.542s4.441-0.847,6.136-2.542l12.17-12.172
		l12.17,12.172c1.695,1.695,3.915,2.542,6.136,2.542c2.22,0,4.441-0.847,6.136-2.542c3.39-3.385,3.39-8.881,0-12.271l-12.171-12.174
		l12.171-12.174c3.39-3.39,3.39-8.886,0-12.271c-3.39-3.39-8.881-3.39-12.271,0l-12.17,12.171l-12.17-12.172
		c-3.39-3.39-8.881-3.39-12.271,0c-3.39,3.385-3.39,8.881,0,12.271l12.171,12.174l-12.171,12.174
		C393.051,298.551,393.051,304.047,396.441,307.433z"/>
	<path style="fill:#1C71DA;" d="M254.407,365.013c-3.39-3.39-8.881-3.39-12.271,0l-12.17,12.172l-12.17-12.172
		c-3.39-3.39-8.881-3.39-12.271,0c-3.39,3.385-3.39,8.881,0,12.271l12.171,12.174l-12.171,12.174c-3.39,3.39-3.39,8.886,0,12.271
		c1.695,1.695,3.915,2.542,6.136,2.542c2.22,0,4.441-0.847,6.136-2.542l12.17-12.171l12.17,12.172
		c1.695,1.695,3.915,2.542,6.136,2.542c2.22,0,4.441-0.847,6.136-2.542c3.39-3.385,3.39-8.881,0-12.271l-12.171-12.174
		l12.171-12.174C257.797,373.895,257.797,368.399,254.407,365.013z"/>
</g>
<g>
	<path style="fill:#FF5D5D;" d="M235.422,323.255c-2.22,0-4.441-0.847-6.136-2.541c-3.39-3.39-3.39-8.884,0-12.273l30.682-30.681
		c3.385-3.388,8.881-3.388,12.271,0c3.39,3.39,3.39,8.884,0,12.273l-30.682,30.681C239.864,322.407,237.642,323.255,235.422,323.255
		z"/>
	<path style="fill:#FF5D5D;" d="M266.104,323.251c-2.22,0-4.443-0.847-6.136-2.541l-30.682-30.682c-3.39-3.39-3.39-8.883,0-12.273
		c3.385-3.388,8.886-3.388,12.271,0l30.682,30.682c3.39,3.39,3.39,8.883,0,12.273C270.547,322.404,268.324,323.251,266.104,323.251z
		"/>
</g>
<path style="fill:#00D40B;" d="M74.879,288.543c-16.748,0-30.373-13.625-30.373-30.373c0-16.748,13.625-30.373,30.373-30.373
	s30.373,13.625,30.373,30.373C105.252,274.918,91.627,288.543,74.879,288.543z M74.879,245.153c-7.178,0-13.017,5.839-13.017,13.017
	s5.839,13.017,13.017,13.017s13.017-5.839,13.017-13.017S82.057,245.153,74.879,245.153z"/>
<path style="fill:#FFC504;" d="M416.169,172.747c-2.22,0-4.441-0.847-6.136-2.541l-24.545-24.545c-3.39-3.39-3.39-8.883,0-12.273
	l24.545-24.545c3.385-3.388,8.881-3.388,12.271,0l24.547,24.545c1.627,1.627,2.542,3.835,2.542,6.137
	c0,2.302-0.915,4.509-2.542,6.137l-24.547,24.545C420.61,171.9,418.39,172.747,416.169,172.747z M403.898,139.525l12.271,12.272
	l12.273-12.272l-12.273-12.272L403.898,139.525z"/>
</svg>