<?xml version="1.0" encoding="iso-8859-1"?>
<!-- Uploaded to: SVG Repo, www.svgrepo.com, Generator: SVG Repo Mixer Tools -->
<svg height="800px" width="800px" version="1.1" id="Layer_1" xmlns="http://www.w3.org/2000/svg" xmlns:xlink="http://www.w3.org/1999/xlink" 
	 viewBox="0 0 512 512" xml:space="preserve">
<polygon style="fill:#FFDB2D;" points="153.6,275.2 96,91.018 77.663,96.709 59.325,91.018 0.863,275.909 38.4,288 77.663,161.487 
	116.925,288 "/>
<polygon style="fill:#FFAF33;" points="96,91.018 77.663,96.709 76.8,96.442 76.8,164.266 77.663,161.487 116.925,288 153.6,275.2 
	"/>
<path style="fill:#FFEA8A;" d="M153.6,275.2H0C0,317.615,34.385,352,76.8,352S153.6,317.615,153.6,275.2z"/>
<g>
	<polygon style="fill:#FFDB2D;" points="486.4,76.8 275.2,76.8 275.2,19.2 236.8,19.2 236.8,76.8 25.6,76.8 25.6,115.2 236.8,115.2 
		236.8,416 275.2,416 275.2,115.2 486.4,115.2 	"/>
	<path style="fill:#FFDB2D;" d="M76.8,275.2V352c42.415,0,76.8-34.385,76.8-76.8H76.8z"/>
</g>
<polygon style="fill:#FFAF33;" points="512,275.2 454.4,91.018 436.063,96.709 417.725,91.018 359.263,275.909 396.8,288 
	436.063,161.487 475.325,288 "/>
<polygon style="fill:#FF9800;" points="454.4,91.018 436.063,96.709 435.2,96.442 435.2,164.266 436.063,161.487 475.325,288 
	512,275.2 "/>
<path style="fill:#FFDB2D;" d="M512,275.2H358.4c0,42.415,34.385,76.8,76.8,76.8S512,317.615,512,275.2z"/>
<g>
	<path style="fill:#FFAF33;" d="M435.2,275.2V352c42.415,0,76.8-34.385,76.8-76.8H435.2z"/>
	<polygon style="fill:#FFAF33;" points="275.2,76.8 275.2,19.2 256,19.2 256,416 275.2,416 275.2,115.2 486.4,115.2 486.4,76.8 	"/>
</g>
<polygon style="fill:#FFEA8A;" points="320,403.2 192,403.2 166.4,492.8 345.6,492.8 "/>
<polygon style="fill:#FFDB2D;" points="256,492.8 345.6,492.8 320,403.2 256,403.2 "/>
</svg>