<svg xmlns="http://www.w3.org/2000/svg" width="1024" height="1024" viewBox="0 0 1024 1024"><path fill="#25230a" fill-rule="evenodd" d="M348 195.5c-4.097 4.125-7.225 7.5-6.95 7.5s3.853-3.375 7.95-7.5 7.225-7.5 6.95-7.5-3.853 3.375-7.95 7.5m66.104 63.046c-17.759 3.853-41.998 22.057-37.149 27.9 1.735 2.09 3.543 1.45 12.897-4.559 4.207-2.702 11.248-6.319 15.648-8.038 6.995-2.732 9.671-3.205 21.306-3.768 10.085-.488 13.531-1 14.235-2.113 1.462-2.312 1.148-3.506-1.664-6.319-4.708-4.707-13.117-5.74-25.273-3.103m179.396-.617c-4.843 1.169-7.434 2.96-8.096 5.598-.965 3.844.163 5.47 3.815 5.499 22.402.174 35.213 3.737 50.751 14.113 6.27 4.187 9.258 4.631 9.867 1.468.585-3.035-1.879-6.468-8.301-11.571-9.549-7.585-26.377-15.218-32.968-14.953-1.137.046.493.705 3.624 1.464 15.587 3.78 36.808 17.922 36.808 24.53 0 2.776-1.126 2.448-8.935-2.604-14.733-9.53-27.476-13.473-43.544-13.473-10.315 0-11.787-.767-9.537-4.97 1.447-2.705 4.854-4.01 13.016-4.988 6.217-.745 6.283-.78 1.5-.808-2.75-.016-6.35.297-8 .695m-175 1.141c-12.192 1.765-29.965 10.968-37.25 19.288-3.166 3.616-4.321 7.642-2.191 7.642.582 0 .787-.441.454-.979-.858-1.388 1.378-5.206 2.604-4.448.56.345 1.235-.205 1.502-1.223.548-2.097 5.138-4.618 6.676-3.668.562.348.709.134.331-.479-.427-.69.925-1.564 3.595-2.324 2.354-.67 5.179-1.975 6.279-2.9 2.299-1.932 10.91-4.464 14.243-4.188 1.241.103 2.257-.181 2.257-.63 0-.45 1.8-.782 4-.739s4-.288 4-.735.788-.683 1.75-.525 2.363-.096 3.112-.565c.86-.539 1.683-.345 2.234.525.671 1.059.895.915.968-.622.051-1.1.322-1.435.6-.744.279.691.938.99 1.465.664s1.614-.048 2.415.616c.847.703 1.456.787 1.456.2 0-1.438-5.799-3.941-10.5-4.532-2.2-.276-6.7-.111-10 .366m180.857 46.96c-10.627 1.499-23.94 10.392-28.651 19.14-1.724 3.202-1.724 3.235 0 .854 9.21-12.716 20.873-19.024 35.173-19.024 12.949 0 23.818 4.805 33.255 14.7 12.823 13.447 16.852 31.401 10.917 48.652-2.222 6.457-4.534 10.139-10.456 16.648l-4.094 4.5 5.156-4.87c18.486-17.462 17.648-47.448-1.881-67.329-10.196-10.379-24.875-15.321-39.419-13.271m-190.87 1.715C387.455 315.243 374 333.521 374 354.592c0 12.47 4.808 24.155 13.129 31.908l4.293 4-4.149-4.66c-16.742-18.806-16.164-45.522 1.383-63.918 17.716-18.573 46.459-19.807 63.54-2.726 5.715 5.715 10.532 16.496 12.218 27.342.766 4.929 1.428 7.387 1.472 5.462.12-5.285-2.51-16.499-5.297-22.587-3.503-7.65-11.534-15.768-19.461-19.671-5.937-2.923-7.538-3.251-17.089-3.504-8.129-.216-11.685.128-15.552 1.507m10.537 10.799c-7.332 2.049-12.765 5.367-17.88 10.916-6.871 7.453-8.552 12.252-8.601 24.556-.041 9.911.146 10.899 3.249 17.208 7.735 15.725 25 23.071 42.051 17.892 5.727-1.739 8.226-3.211 13.08-7.705 3.689-3.416 7.074-7.742 8.788-11.233 2.526-5.143 2.785-6.668 2.749-16.178-.048-12.517-1.883-17.395-9.625-25.581-8.754-9.256-22.092-13.151-33.811-9.875m173 0c-7.447 2.082-13.045 5.537-17.892 11.043-6.063 6.888-8.5 14.003-8.534 24.913-.025 8.096.298 9.697 3.223 15.939 5.552 11.85 15.59 19.021 28.286 20.207 15.027 1.403 28.913-6.847 35.591-21.146 2.486-5.323 2.801-7.128 2.792-16-.009-8.893-.318-10.628-2.789-15.678-3.56-7.276-12.821-15.99-19.381-18.237-7.088-2.429-14.956-2.813-21.296-1.041m-151.835 10.495c-6.197 5.773 1.352 15.953 8.854 11.938 4.471-2.393 4.469-7.465-.003-11.937-2.601-2.601-6.06-2.602-8.851-.001m171.618-.289c-2.476 2.883-2.872 5.223-1.375 8.119 1.726 3.337 5.817 5.358 9.152 4.521 7.393-1.856 4.778-14.39-3.002-14.39-1.877 0-3.913.746-4.775 1.75M295.31 351.5c.005 3.3.192 4.529.415 2.732s.218-4.497-.01-6c-.229-1.503-.411-.032-.405 3.268m14.31 67.5c.723 3.202 10.642 23.865 12.72 26.5.868 1.1-1.02-3.175-4.195-9.5s-6.519-13.3-7.431-15.5c-.913-2.2-1.405-2.875-1.094-1.5m135.63.989c-4.878 2.974-3.877 5.802 1.834 5.185.322-.035 2.059 3.119 3.861 7.008 3.963 8.553 15.265 20.884 24.424 26.647 7.146 4.496 17.169 8.664 24.741 10.288 7.598 1.63 24.945.563 32.132-1.976 19.507-6.89 35.74-20.717 42.429-36.141 4.131-9.523 4.336-9.874 3.796-6.5-.263 1.65-.214 2.438.11 1.75.324-.687 1.651-1.25 2.947-1.25 3.354 0 3.876-1.549 1.323-3.928-2.507-2.336-7.699-3.577-11.243-2.687-1.326.332-5.568 2.425-9.429 4.651-19.544 11.268-45.046 15.562-68.294 11.499-11.069-1.934-18.16-4.456-31.099-11.063-5.895-3.009-11.52-5.47-12.5-5.468s-3.244.895-5.032 1.985m-119.642 30.888c2.297 4.1 14.115 18.005 20.353 23.946 10.515 10.016 22.43 17.852 35.922 23.627 8.151 3.489 24.345 8.756 31.059 10.103l3.442.69-2.942 1.524c-7.49 3.881-17.76 14.089-25.335 25.181C381.969 544.937 375.46 556 376.309 556c.275 0 1.957-2.587 3.738-5.75 6.515-11.569 20.787-30.25 23.111-30.25.528 0 .639.52.247 1.155-.45.727-.274.882.475.419.829-.512 1.055-.002.749 1.69-.242 1.333-.145 2.853.216 3.378 1.006 1.465 7.617 5.915 6.784 4.566-.487-.787-.211-.985.819-.59.854.328 1.552 1.073 1.552 1.656 0 .582.262.797.583.476s1.481.314 2.578 1.411 2.634 1.748 3.416 1.448c.783-.301 1.423-.084 1.423.481 0 .566.515.71 1.144.321 1.145-.708 7.441-.921 56.856-1.926 14.575-.296 28.975-.73 32-.964s9.1-.663 13.5-.952 10.7-.771 14-1.07c12.943-1.173 18.061-1.608 19.5-1.656 2.136-.072 13.031-1.636 16-2.298 3.357-.748 14.772-2.649 18.5-3.082 1.65-.191 5.438-.606 8.417-.922s6.018-1.072 6.75-1.68 1.333-.814 1.333-.458c0 .357 1.35-.05 3-.903 3.422-1.77 3.759-2.959 1.25-4.42-.962-.561-1.287-1.033-.72-1.05 1.825-.053 13.168 11.261 18.517 18.47 5.464 7.364 6.815 8.979 5.443 6.5-4.787-8.645-18.009-23.199-25.365-27.919l-4.73-3.036-11.169 1.916c-9.635 1.653-16.967 2.604-42.226 5.474-12.032 1.367-58.608 1.777-74.5.657-55.092-3.886-91.46-13.419-118-30.929-8.973-5.92-22.933-19.349-30.219-29.068-7.018-9.362-8.097-10.545-5.673-6.218m194.333 10.516c-.254.253-2.346.678-4.648.942-4.74.545-6.293 1.27-6.293 2.938 0 .692.638.518 1.589-.433 1.141-1.142 2.479-1.394 4.75-.898 3.633.795 7.782.025 7.773-1.442-.007-1.058-2.389-1.89-3.171-1.107m167.086 5.576c-6.052 6.985-20.079 18.392-28.277 22.994-3.163 1.775-5.75 3.44-5.75 3.7 0 1.326 12.99-6.949 20.595-13.121 7.506-6.091 20.676-19.542 19.133-19.542-.291 0-2.857 2.686-5.701 5.969M641.5 498.595c-2.75 1.336-3.875 2.141-2.5 1.79 2.854-.73 10.017-4.317 8.5-4.258-.55.022-3.25 1.132-6 2.468m-25 7.969c-4.4 1.327-6.294 2.169-4.209 1.871 4.37-.624 15.956-4.223 13.709-4.259-.825-.013-5.1 1.062-9.5 2.388M418 546.518c0 1.192-4.163 15.935-4.776 16.915-.367.587-.778 1.517-.913 2.067-.59 2.408-6.448 23.461-7.791 28-3.08 10.413-9.696 36.137-10.121 39.354-.244 1.845-1.277 5.22-2.295 7.5s-2.135 5.721-2.481 7.646-2.005 7.1-3.688 11.5-3.171 8.567-3.307 9.26-.784 1.796-1.438 2.45c-.655.655-1.19 1.51-1.19 1.9 0 1.28-7.938 14.753-10.074 17.099-8.66 9.51-18.449 18.791-19.821 18.791-.454 0-2.495 1.575-4.536 3.5s-4.017 3.51-4.39 3.522c-.374.012-1.804.902-3.179 1.978s-3.222 1.966-4.104 1.978-2.907 1.259-4.5 2.772c-1.813 1.722-4.952 3.2-8.396 3.953l-5.5 1.203 6.356-.368c4.701-.272 8.085-1.236 13-3.703 3.654-1.834 7.544-3.336 8.644-3.337 3.095-.003 15.116-7.372 21.619-13.253 2.205-1.994 2.714-2.123 3.214-.819.353.92.101 1.453-.619 1.312-.668-.131-1.218.568-1.223 1.554-.011 2.243-2.434 3.836-4.741 3.118-.962-.3-1.75-.038-1.75.582 0 .619.451.847 1.003.506.591-.365.862.33.659 1.691-.502 3.37-7.016 6.774-13.003 6.795-4.076.013-5.488.57-8.935 3.52-4.942 4.231-9.05 5.483-18.007 5.49-5.246.005-7.902.573-11.717 2.506-9.662 4.896-20.434 2.696-29.954-6.118-3.197-2.96-6.601-5.382-7.564-5.382-7.293 0-15.334-5.945-19.896-14.711-1.371-2.634-2.514-4.09-2.539-3.235-.062 2.066 4.96 9.769 8.569 13.143 3.296 3.082 9.227 5.803 12.649 5.803 1.413 0 3.884 1.606 6.282 4.082 6.451 6.662 11.595 9.163 19.947 9.699 6.33.407 8.033.124 13.015-2.157 4.619-2.114 7.24-2.624 13.49-2.624 8.611 0 13.241-1.48 16.925-5.413 1.915-2.043 3.387-2.592 7-2.609 8.851-.042 17.277-6.101 22.882-16.452 2.296-4.238 3.433-5.238 7.694-6.767 6.211-2.229 11.795-8.12 14.006-14.778.895-2.694 2.779-6.595 4.187-8.67 2.345-3.455 2.631-5.055 3.415-19.07 1.31-23.433 6.672-55.808 15.36-92.741 2.753-11.7 4.011-19.5 3.146-19.5-.338 0-.614.233-.614.518m-45.801 17.033c-1.76 3.568-3.177 6.816-3.15 7.218s1.631-2.352 3.565-6.121c1.934-3.768 3.351-7.016 3.15-7.218s-1.806 2.553-3.565 6.121M609 565.789c0 .617 2.005 10.479 4.455 21.916 6.856 31.996 9.542 49.208 10.658 68.295 1.004 17.171 2.3 24.059 6.745 35.858 1.795 4.765 5.459 8.022 11.642 10.347 3.227 1.214 4.59 2.595 7.054 7.15 5.813 10.746 14.238 16.657 21.735 15.251 2.678-.503 3.772-.196 5.293 1.487C680.388 730.301 685.399 732 694 732c6.323 0 8.995.471 12.29 2.166 2.827 1.454 6.702 2.314 11.795 2.619 10.679.638 17.673-1.543 24.036-7.495 2.7-2.526 4.688-4.814 4.417-5.085s-2.253 1.321-4.404 3.538c-7.962 8.203-23.503 10.692-34.072 5.456-3.433-1.701-6.213-2.199-12.282-2.199-8.706 0-13.696-1.589-18.03-5.74-2.242-2.148-3.572-2.591-7.204-2.403-6.798.352-16.98-5.727-14.989-8.948.469-.761.334-.96-.36-.531-.654.405-1.766-.663-2.703-2.595-.957-1.975-1.072-2.686-.289-1.783.716.825 1.956 1.644 2.756 1.819s3.273 1.541 5.496 3.035 5.618 3.341 7.543 4.106 4.711 2.223 6.192 3.241c4.409 3.034 10.032 5.032 14.602 5.189 3.697.127 4.053-.029 2.559-1.121-.954-.698-2.449-1.269-3.322-1.269s-2.357-.9-3.299-2-2.422-2-3.289-2c-1.55 0-6.766-3.57-10.958-7.5-12.353-11.581-16.017-15.335-21.159-21.678-5.876-7.247-11.959-16.982-16.136-25.822-1.169-2.475-3.394-10.933-4.945-18.796-1.55-7.863-3.062-14.054-3.358-13.758s-.388-.92-.205-2.704c.271-2.641.159-2.871-.604-1.242-.899 1.919-.94 1.908-1.008-.26-.094-3.04-6.526-34.73-10.187-50.189-2.709-11.441-3.883-15.149-3.883-12.262M397.232 685.281c-1.575 12.471-6.904 28.475-14.725 44.219-9.449 19.022-20.155 31.621-32.788 38.586-2.87 1.583-4.769 2.882-4.219 2.887 2.605.022 12.12-6.662 18.346-12.888 12.636-12.636 23.699-32.329 30.945-55.085 2.769-8.696 5.623-27 4.209-27-.327 0-1.123 4.176-1.768 9.281m227.918-2.654c-.16 3.346 2.806 17.751 3.51 17.046.232-.231-.256-3.515-1.085-7.297-.828-3.782-1.679-8.226-1.89-9.876l-.385-3zm-382.128 6.163c-.032 1.857 3.722 8.938 5.214 9.834 1.001.602 1.012.448.051-.74-.667-.824-2.119-3.498-3.228-5.942s-2.025-3.862-2.037-3.152m155.174 22.75c-.233 9.553-4.818 36.323-6.587 38.46-.683.825-2.732 4.65-4.553 8.5-8.081 17.086-10.569 22.039-11.352 22.6-.46.33-.951 1.379-1.091 2.33-.139.951-.717 2.031-1.284 2.4-.566.368-2.286 2.674-3.821 5.124-4.974 7.938-10.856 11.494-17.307 10.462-2.593-.415-5.062-.047-7.753 1.155-2.171.97-5.298 1.862-6.948 1.982-13.342.975-19.047 1.71-19.326 2.491-.469 1.312-8.914-3.19-14.987-7.991-5.675-4.485-9.838-10.328-11.796-16.553-.691-2.2-1.283-3.1-1.314-2-.172 6.018 8.588 17.377 18.405 23.867l3.982 2.633-5.482.015c-7.96.023-11.194 2.716-4.28 3.565 1.539.19 5.498.95 8.798 1.69 3.546.795 7.427 1.046 9.489.615 1.919-.402 3.719-.402 4 0 .281.401 3.027.679 6.103.617 5.102-.103 5.686.112 6.658 2.443 3.779 9.06 5.41 12.022 8.705 15.805 2.035 2.337 4.173 4.25 4.75 4.25s-.854-2.065-3.181-4.59-5.514-7.419-7.081-10.876c-2.443-5.387-2.709-6.798-1.862-9.864 2.001-7.247 8.716-9.378 19.368-6.147 3.785 1.148 5.706 1.251 8.169.438 7.072-2.334 16.532-17.041 21.847-33.961 5.801-18.471 10.923-48.572 10.295-60.5l-.368-7zm369.345-3.631c-2.558 5.673-9.031 11.752-14.928 14.02-2.812 1.082-4.438 1.986-3.613 2.009 2.957.084 11.634-4.714 14.339-7.929 2.989-3.552 7.055-10.948 6.387-11.616-.227-.227-1.21 1.355-2.185 3.516m-304.223 17.953c-.639 1.024-1.433 6.986-1.763 13.25-.587 11.113-1.128 16.805-2.118 22.262-1.209 6.666-6.699 27.217-8.475 31.721-2.243 5.693-2.344 6.259-.962 5.405 1.295-.801 1.348-1.043-1.393 6.465-2.068 5.667-3.057 6.963-8.011 10.5-3.109 2.219-7.908 7.064-10.667 10.767-5.541 7.438-9.187 10.543-15.929 13.566-5.452 2.444-13.105 3.253-13.732 1.452-.239-.687.228-1.25 1.038-1.25s2.535-.878 3.833-1.951c1.938-1.6 1.464-1.516-2.639.469-2.75 1.331-5.912 2.434-7.027 2.451s-3.121.797-4.458 1.733c-1.681 1.177-5.093 1.829-11.071 2.115-10.257.49-17.826-1.353-23.248-5.661-3.736-2.969-3.76-2.972-14.593-1.756-4.426.497-8.263 2.6-4.744 2.6.967 0 1.512.4 1.21.888-.625 1.012 8.413 4.894 12.931 5.554 1.65.241 5.925.906 9.5 1.478s9.908 1.049 14.074 1.06c7.701.02 25.973-2.289 31.426-3.972 1.65-.509 4.8-1.128 7-1.376 2.2-.247 4.711-.735 5.58-1.082s3.387-.77 5.596-.938 4.464-.58 5.01-.918c1.382-.854 21.37-1.232 23.814-.451 1.1.352 3.662.885 5.694 1.184 2.032.3 5.251 1.419 7.154 2.488s3.664 1.739 3.914 1.49c.249-.249 1.022.233 1.718 1.071 1.029 1.239 1.008 1.53-.108 1.557-.754.018 2.453 1.93 7.128 4.25 4.675 2.319 8.642 3.902 8.817 3.517.174-.385 1.299-.33 2.5.121 4.168 1.568 23.108 2.311 27.661 1.085 4.878-1.314 15.386-8.608 14.49-10.058-.322-.521.13-.948 1.004-.948.875 0 1.834-.634 2.132-1.41.297-.775 1.633-1.684 2.968-2.019 1.557-.39 2.428-1.326 2.428-2.606 0-1.603.592-1.952 3-1.768 1.65.126 3 .485 3 .799s4.336.4 9.635.191c5.748-.227 10.488.057 11.75.706 1.163.597 5.265 1.495 9.115 1.995 3.85.499 8.125 1.186 9.5 1.526s4.199.842 6.275 1.117c2.077.274 7.702 1.437 12.5 2.583 10.845 2.591 36.901 3.718 45.356 1.963 5.86-1.217 10.34-3.795 8.175-4.704-.656-.276-.954-1.127-.661-1.89.395-1.03-.492-.892-3.45.537-6.037 2.916-12.965 4.15-19.139 3.407-6.149-.74-17.156-4.889-14.954-5.637.841-.285-.396-1.392-3.102-2.776-2.475-1.267-5.85-3.309-7.5-4.539s-5.126-3.351-7.725-4.714c-2.599-1.362-4.412-2.79-4.029-3.173 1.109-1.11-2.048-2.596-4.246-2-1.544.419-1.672.317-.563-.447 1.187-.818.926-1.51-1.5-3.982-5.11-5.205-7.533-8.158-6.722-8.191.432-.017.065-.58-.814-1.25-.88-.67-1.721-1.668-1.87-2.218-.781-2.886-2.036-5.247-3.953-7.434-1.173-1.339-2.404-3.589-2.736-5s-1.418-3.466-2.413-4.566-1.795-2.353-1.779-2.785-1.515-4.931-3.404-10c-5.619-15.081-6.628-19.59-8.441-37.715-.557-5.568-1.752-9-3.132-9-1.415 0-6.101 10.883-8.162 18.956-2.632 10.311-6.021 32.218-5.884 38.044.058 2.475.319 3.668.581 2.652.349-1.352 1.13-.438 2.911 3.407 1.339 2.891 4.098 6.824 6.131 8.741l3.696 3.486-4.908-2.612c-5.44-2.897-7.128-2.433-7.829 2.149-.225 1.472-.54-.248-.7-3.823-.251-5.605-.403-4.916-1.106 5-1.673 23.617-4.092 31.872-11.211 38.263-7.94 7.128-17.489 10.343-27.072 9.116-5.426-.695-14.778-4.798-14.365-6.302.135-.491-1.306-1.949-3.201-3.239-8.391-5.711-10.013-13.684-10.037-49.338-.017-24.472-1.137-45.963-2.653-50.875-.396-1.284-.205-1.645.606-1.143.886.547 1.004-.495.471-4.125-1.003-6.827-1.904-8.826-5.545-12.306-3.743-3.577-4.046-3.642-5.578-1.189m-172.818.697c3.3.744 7.125 1.329 8.5 1.299 1.375-.029-.425-.657-4-1.394-8.471-1.747-12.304-1.666-4.5.095M628.646 760c1.095 6.684 6.582 22.539 10.208 29.497 4.23 8.118 9.665 13.987 13.658 14.75 1.541.295 4.643-.057 6.894-.782l4.094-1.318-4.203.547c-5.86.762-8.872-.22-12.673-4.134-5.648-5.816-10.575-16.704-17.45-38.56l-1.101-3.5zM474 786.849c0 1.017-1.62 4.955-3.6 8.75-3.41 6.538-3.457 6.752-.883 4.068 2.994-3.121 4.112-2.689 4.756 1.833.235 1.65.495-1.388.577-6.75.083-5.362-.075-9.75-.35-9.75s-.5.832-.5 1.849m247.807 6.93c-2.414 3.285-11.266 10.084-15.807 12.14-2.475 1.12-3.915 2.047-3.2 2.059 3.316.056 17.383-9.769 19.958-13.94 1.549-2.507.842-2.7-.951-.259m-48.723 10.498c2.079 1.402 3.969 3.873 4.911 6.423 1.285 3.479 1.81 3.989 3.269 3.172 3.005-1.682 13.646-3.186 15.002-2.12.815.641 2.253.523 4.234-.346 1.65-.724 2.55-1.372 2-1.441-5.673-.712-12.91-.463-16.984.583-5.216 1.34-6.516 1.158-6.516-.911 0-1.651-6.227-7.637-7.945-7.637-.743 0 .17 1.025 2.029 2.277m-342.32 2.292c-.312.313-2.75.935-5.416 1.382l-4.848.814 5.5.131c3.025.072 6.512.403 7.75.734 1.815.487 2.25.194 2.25-1.513 0-1.551-.624-2.117-2.333-2.117-1.284 0-2.59.256-2.903.569M585 818.487c0 1.289 13.387 16.039 17.427 19.202 5.383 4.214 15.573 6.462 15.573 3.436 0-1.564-20.443-14.125-22.988-14.125-.597 0-3.095-2.066-5.549-4.592s-4.463-4.29-4.463-3.921m88.03 9.965c-1.174 1.898-4.862 5.273-8.196 7.5-3.334 2.226-5.526 4.048-4.872 4.048 2.045 0 12.449-8.623 14.345-11.888 2.465-4.247 1.379-3.957-1.277.34M496 850.25c0 .968 15.133.954 16.65-.015.633-.404-2.855-.735-7.75-.735-4.896 0-8.901.337-8.9.75"/><path fill="#6bab5d" fill-rule="evenodd" d="M481 133.511c-37.047 4.578-74.56 18.068-102.864 36.989-5.7 3.811-10.585 7.507-10.857 8.214S366.196 180 365.474 180c-1.449 0-25.927 24.065-25.658 25.226.092.399-1.178 1.721-2.824 2.938s-3 2.69-3.009 3.274c-.01.584-1.195 2.179-2.634 3.545s-3.05 3.728-3.58 5.249c-.538 1.543-1.431 2.477-2.021 2.112-.581-.359-.778-.202-.437.35s-.152 1.876-1.096 2.944c-.943 1.067-1.852 2.598-2.02 3.401-.168.804-.948 1.955-1.734 2.56-.787.604-1.137 1.392-.779 1.75s.208.651-.335.651c-.542 0-2.507 3.488-4.367 7.75s-3.745 7.901-4.187 8.085-.551.747-.24 1.25.103.915-.463.915c-.565 0-.768.675-.452 1.5.317.825.051 1.5-.59 1.5s-.907.419-.591.931.111 1.218-.457 1.569-.774 1.057-.457 1.569c.316.512.072.931-.543.931s-.859.419-.543.931c.317.512.138 1.201-.397 1.532s-.719 1.262-.409 2.069c.309.807.079 1.468-.513 1.468-.591 0-.816.675-.5 1.5.317.825.092 1.5-.5 1.5-.591 0-.816.675-.5 1.5.317.825.092 1.5-.5 1.5-.591 0-.834.629-.538 1.399.295.769.098 1.67-.438 2.001s-.739 1.502-.451 2.601c.305 1.167.03 1.999-.662 1.999-.711 0-.941.764-.576 1.916.335 1.054.182 2.179-.338 2.501-.521.322-.712 1.485-.424 2.584.296 1.132.03 1.999-.613 1.999-.699 0-.905.921-.536 2.391.33 1.315.112 2.692-.485 3.061-.6.372-.81 1.764-.469 3.122.338 1.349.115 3.055-.497 3.793-.612.737-1.071 2.419-1.019 3.737s-.25 6.446-.671 11.396c-.868 10.219-.797 24.249.182 36 .367 4.4.697 9.688.733 11.75.037 2.063.485 3.75.996 3.75s.672 1.585.358 3.522c-.386 2.38-.223 3.307.504 2.858.712-.44.919.397.614 2.478-.254 1.728-.038 3.142.479 3.142s.742 1.35.5 3-.016 3 .503 3 .708.9.42 2c-.287 1.1-.062 2 .5 2s.788.9.5 2c-.287 1.1-.062 2 .5 2s.794.878.513 1.952-.095 2.091.412 2.26 1.022 1.653 1.144 3.298c.121 1.644.547 3.235.946 3.534s.849 1.649 1 3 .656 2.735 1.123 3.075.916 1.803 1 3.25c.083 1.446.445 2.63.804 2.63 1.067.001 2.879 6.135 2.176 7.366-.357.624-.285.806.158.405 1.054-.953 5.713 9.099 4.858 10.482-.359.581-.196.775.362.43 1.018-.629 5.035 7.036 4.519 8.622-.151.465.187.56.75.211.908-.561 1.208.116.94 2.123-.047.351.357.914.899 1.25 2.066 1.284 10.01 12.963 9.364 13.767-.373.465-.298.54.166.167.93-.746 7.307 6.05 6.906 7.36-.137.45.313.705 1 .568.688-.138 1.126.346.975 1.074s.126 1.077.617.774c1.051-.65 4.393 2.758 3.66 3.733-.276.368-.233.475.096.237.329-.237 3.142 1.641 6.25 4.173 26.485 21.573 65.315 33.024 126.652 37.351 15.506 1.093 63.295.728 73.5-.562 1.925-.244 8.225-.934 14-1.535 16.564-1.722 35.675-4.896 45.865-7.619 5.151-1.376 10.012-2.253 10.802-1.95.907.348 1.176.128.729-.595-.482-.779-.019-.966 1.448-.582 1.186.31 2.156.246 2.156-.142 0-1.079 6.852-3.317 7.994-2.611.553.342 1.006.097 1.006-.544 0-.643.696-.899 1.552-.57.89.341 1.291.173.941-.393-.557-.902 1.037-1.375 4.246-1.259.682.024 1.022-.308.756-.738-.613-.992 2.38-2.187 3.595-1.436.501.309.91.059.91-.556s.45-.84 1-.5 1 .115 1-.5.45-.84 1-.5 1 .151 1-.421c0-1.394 7.543-5.182 8.537-4.286.431.389.501.21.155-.397-.609-1.069 3.965-3.949 5.632-3.546.454.11.569-.214.256-.72-.572-.926 2.208-2.606 3.744-2.264.454.101.554-.255.222-.791-.531-.859 2.845-3.445 4.621-3.54.366-.019 1.041-.445 1.5-.945.491-.537.272-.586-.534-.119-.751.435 1.274-1.855 4.5-5.09s6.274-5.699 6.772-5.476c.497.222.608-.074.247-.659-.362-.585.728-2.23 2.422-3.655s2.707-2.606 2.253-2.624c-.455-.019.166-.863 1.38-1.876 1.215-1.014 1.938-2.113 1.607-2.443s.137-.884 1.037-1.229c.901-.346 1.387-1.035 1.08-1.531s.143-1.171 1-1.5 1.307-1.004 1-1.5.143-1.171 1-1.5 1.319-.984 1.027-1.456c-.292-.473.385-1.775 1.506-2.896s1.779-2.036 1.465-2.036c-.315 0 .139-.711 1.009-1.581.869-.869 1.325-1.994 1.012-2.5-.312-.505-.065-.919.55-.919s.84-.45.5-1-.115-1 .5-1 .84-.45.5-1-.115-1 .5-1 .84-.45.5-1-.115-1 .5-1 .84-.45.5-1-.141-1 .441-1 .963-.338.847-.75c-.117-.413.349-1.762 1.035-3s.951-2.25.59-2.25c-.362 0-.157-.604.456-1.342.612-.738.818-1.638.456-2s-.107-.658.567-.658.917-.5.539-1.112c-.378-.611-.246-1.399.292-1.75 1.19-.774 5.342-13.069 5.51-16.313.067-1.279.47-2.796.897-3.371s1.902-6.65 3.278-13.5c7.728-38.452 5.873-82.465-4.889-116.014-19.709-61.438-71.099-107.912-139.894-126.513-20.34-5.499-37.221-7.601-64.125-7.983-17.527-.248-28.438.07-36.5 1.067m-66.896 125.035c-17.759 3.853-41.998 22.057-37.149 27.9 1.735 2.09 3.543 1.45 12.897-4.559 4.207-2.702 11.248-6.319 15.648-8.038 6.995-2.732 9.671-3.205 21.306-3.768 10.085-.488 13.531-1 14.235-2.113 1.462-2.312 1.148-3.506-1.664-6.319-4.708-4.707-13.117-5.74-25.273-3.103m179.396-.617c-4.843 1.169-7.434 2.96-8.096 5.598-.965 3.844.163 5.47 3.815 5.499 22.402.174 35.213 3.737 50.751 14.113 6.27 4.187 9.258 4.631 9.867 1.468.585-3.035-1.879-6.468-8.301-11.571-9.549-7.585-26.377-15.218-32.968-14.953-1.137.046.493.705 3.624 1.464 15.587 3.78 36.808 17.922 36.808 24.53 0 2.776-1.126 2.448-8.935-2.604-14.733-9.53-27.476-13.473-43.544-13.473-10.315 0-11.787-.767-9.537-4.97 1.447-2.705 4.854-4.01 13.016-4.988 6.217-.745 6.283-.78 1.5-.808-2.75-.016-6.35.297-8 .695m-175 1.141c-12.192 1.765-29.965 10.968-37.25 19.288-3.166 3.616-4.321 7.642-2.191 7.642.582 0 .787-.441.454-.979-.858-1.388 1.378-5.206 2.604-4.448.56.345 1.235-.205 1.502-1.223.548-2.097 5.138-4.618 6.676-3.668.562.348.709.134.331-.479-.427-.69.925-1.564 3.595-2.324 2.354-.67 5.179-1.975 6.279-2.9 2.299-1.932 10.91-4.464 14.243-4.188 1.241.103 2.257-.181 2.257-.63 0-.45 1.8-.782 4-.739s4-.288 4-.735.788-.683 1.75-.525 2.363-.096 3.112-.565c.86-.539 1.683-.345 2.234.525.671 1.059.895.915.968-.622.051-1.1.322-1.435.6-.744.279.691.938.99 1.465.664s1.614-.048 2.415.616c.847.703 1.456.787 1.456.2 0-1.438-5.799-3.941-10.5-4.532-2.2-.276-6.7-.111-10 .366m180.857 46.96c-10.627 1.499-23.94 10.392-28.651 19.14-1.724 3.202-1.724 3.235 0 .854 9.21-12.716 20.873-19.024 35.173-19.024 12.949 0 23.818 4.805 33.255 14.7 12.823 13.447 16.852 31.401 10.917 48.652-2.222 6.457-4.534 10.139-10.456 16.648l-4.094 4.5 5.156-4.87c18.486-17.462 17.648-47.448-1.881-67.329-10.196-10.379-24.875-15.321-39.419-13.271m-190.87 1.715C387.455 315.243 374 333.521 374 354.592c0 12.47 4.808 24.155 13.129 31.908l4.293 4-4.149-4.66c-16.742-18.806-16.164-45.522 1.383-63.918 17.716-18.573 46.459-19.807 63.54-2.726 5.715 5.715 10.532 16.496 12.218 27.342.766 4.929 1.428 7.387 1.472 5.462.12-5.285-2.51-16.499-5.297-22.587-3.503-7.65-11.534-15.768-19.461-19.671-5.937-2.923-7.538-3.251-17.089-3.504-8.129-.216-11.685.128-15.552 1.507m10.537 10.799c-7.332 2.049-12.765 5.367-17.88 10.916-6.871 7.453-8.552 12.252-8.601 24.556-.041 9.911.146 10.899 3.249 17.208 7.735 15.725 25 23.071 42.051 17.892 5.727-1.739 8.226-3.211 13.08-7.705 3.689-3.416 7.074-7.742 8.788-11.233 2.526-5.143 2.785-6.668 2.749-16.178-.048-12.517-1.883-17.395-9.625-25.581-8.754-9.256-22.092-13.151-33.811-9.875m173 0c-7.447 2.082-13.045 5.537-17.892 11.043-6.063 6.888-8.5 14.003-8.534 24.913-.025 8.096.298 9.697 3.223 15.939 5.552 11.85 15.59 19.021 28.286 20.207 15.027 1.403 28.913-6.847 35.591-21.146 2.486-5.323 2.801-7.128 2.792-16-.009-8.893-.318-10.628-2.789-15.678-3.56-7.276-12.821-15.99-19.381-18.237-7.088-2.429-14.956-2.813-21.296-1.041m-151.835 10.495c-6.197 5.773 1.352 15.953 8.854 11.938 4.471-2.393 4.469-7.465-.003-11.937-2.601-2.601-6.06-2.602-8.851-.001m171.618-.289c-2.476 2.883-2.872 5.223-1.375 8.119 1.726 3.337 5.817 5.358 9.152 4.521 7.393-1.856 4.778-14.39-3.002-14.39-1.877 0-3.913.746-4.775 1.75M445.25 419.989c-4.878 2.974-3.877 5.802 1.834 5.185.322-.035 2.059 3.119 3.861 7.008 3.963 8.553 15.265 20.884 24.424 26.647 7.146 4.496 17.169 8.664 24.741 10.288 7.598 1.63 24.945.563 32.132-1.976 19.507-6.89 35.74-20.717 42.429-36.141 4.131-9.523 4.336-9.874 3.796-6.5-.263 1.65-.214 2.438.11 1.75.324-.687 1.651-1.25 2.947-1.25 3.354 0 3.876-1.549 1.323-3.928-2.507-2.336-7.699-3.577-11.243-2.687-1.326.332-5.568 2.425-9.429 4.651-19.544 11.268-45.046 15.562-68.294 11.499-11.069-1.934-18.16-4.456-31.099-11.063-5.895-3.009-11.52-5.47-12.5-5.468s-3.244.895-5.032 1.985m74.691 41.404c-.254.253-2.346.678-4.648.942-4.74.545-6.293 1.27-6.293 2.938 0 .692.638.518 1.589-.433 1.141-1.142 2.479-1.394 4.75-.898 3.633.795 7.782.025 7.773-1.442-.007-1.058-2.389-1.89-3.171-1.107m-115.49 57.516c-2.777 2.132-6.294 5.508-7.815 7.502-1.628 2.135-3.254 3.347-3.951 2.947-.652-.373-.863-.322-.47.113.992 1.1-1.091 4.724-2.29 3.983-.536-.332-.91-.232-.831.222.336 1.938-.16 3.402-.981 2.894-.488-.302-.825.234-.75 1.191.075.956-.425 1.627-1.113 1.489s-1.197.088-1.132.5c.318 2.011-.223 3.303-1.143 2.735-.563-.349-.924-.263-.802.191.438 1.62-1.335 5.342-2.27 4.764-.524-.324-.834-.218-.69.236.474 1.489-2.424 7.312-3.354 6.737-.5-.309-.844-.191-.765.263.428 2.466-.21 4.371-1.249 3.729-.686-.425-.884-.277-.487.366.914 1.479-1.406 6.317-2.659 5.543-.554-.343-.708-.137-.341.457.784 1.268-1.269 6.229-2.578 6.229-.494 0-.62.45-.28 1s.066 1-.608 1-.962.263-.64.585c.836.836-1.258 6.415-2.409 6.415-.528 0-.683.45-.343 1s.156 1-.41 1c-.565 0-.74.749-.389 1.664q.64 1.666-.52.948c-.756-.468-.952-.178-.563.836.329.856.073 1.552-.57 1.552-.641 0-.888.45-.548 1s.141 1-.441 1-.985.337-.895.75c.338 1.545-1.417 6.25-2.331 6.25-.523 0-.673.45-.333 1s.156 1-.41 1c-.565 0-.79.617-.501 1.371s-.153 2.051-.984 2.881c-.83.83-1.231 1.788-.891 2.129s.108.619-.516.619-.876.675-.56 1.5c.317.825.078 1.5-.531 1.5s-1.107.9-1.107 2-.477 2-1.059 2-.781.45-.441 1 .156 1-.41 1c-.565 0-.74.749-.389 1.664.467 1.216.278 1.441-.701.836s-1.168-.38-.701.836c.351.915.176 1.664-.389 1.664-.566 0-.75.45-.41 1s.115 1-.5 1-.84.45-.5 1 .115 1-.5 1-.84.45-.5 1 .115 1-.5 1-.84.45-.5 1 .115 1-.5 1-.84.45-.5 1 .115 1-.5 1-.84.45-.5 1 .115 1-.5 1-.84.45-.5 1 .115 1-.5 1-.84.45-.5 1 .115 1-.5 1-.84.45-.5 1 .115 1-.5 1-.882.382-.594.849-.247 1.721-1.191 2.789c-.943 1.067-1.852 2.598-2.02 3.401-.168.804-.843 1.913-1.5 2.465s-1.332 1.677-1.5 2.5-1.041 2.059-1.941 2.746-1.213 1.26-.695 1.272c.517.012-.184.952-1.559 2.087s-1.825 1.768-1 1.405c.825-.362.15.548-1.5 2.023s-2.356 2.331-1.57 1.902c.787-.429-1.677 2.447-5.476 6.39-6.618 6.871-8.705 8.666-6.826 5.874.479-.714.025-.376-1.01.75s-2.273 1.934-2.75 1.797c-.478-.138-.868.227-.868.809s-.45.781-1 .441-1-.115-1 .5-.45.84-1 .5-1-.115-1 .5-.45.84-1 .5-1-.093-1 .548-.661.912-1.468.603-1.745-.115-2.084.433c-.339.549-1.441.736-2.448.416s-2.121-.113-2.475.459c-.845 1.367-7.219 1.346-8.067-.027-.363-.588-1.275-.832-2.027-.544-.752.289-1.597.152-1.878-.303s-1.769-1.078-3.306-1.386-5.934-2.852-9.771-5.656c-8.99-6.568-12.795-7.772-17.864-5.654-2.113.883-4.025 2.476-4.319 3.598-.289 1.107-.91 2.013-1.378 2.013-.469 0-.593.675-.277 1.5.317.825.19 1.5-.281 1.5s-.857 2.883-.857 6.405c0 3.58.4 6.157.908 5.843.499-.308.653.41.343 1.597-.365 1.396-.185 1.923.512 1.492.688-.425.839-.045.418 1.051-.443 1.156-.28 1.482.5 1 .781-.483.944-.157.5 1-.362.944-.303 1.497.13 1.229.434-.268 1.362.43 2.063 1.552 1.046 1.675 1.037 1.919-.05 1.361-.778-.399-.706-.133.176.646 2.252 1.988 6.135 10.784 5.358 12.139-.373.652-.31.851.14.444.913-.827 3.502.964 3.502 2.422 0 .516-.562.613-1.25.217s-.21.423 1.06 1.82 3.071 2.482 4 2.411c.93-.071 1.615.321 1.523.871-.091.55.809 1.06 2 1.134 7.053.438 10.383 1.855 15.406 6.556 2.882 2.697 6.932 5.626 9 6.51 3.655 1.561 18.464 3.437 17.727 2.245-.202-.327 1.647-1.573 4.11-2.77 3.234-1.571 6.344-2.177 11.201-2.181 8.897-.007 13.013-1.266 17.947-5.49 3.402-2.912 4.877-3.504 8.725-3.504 2.585 0 6.27-.84 8.341-1.903 3.787-1.942 9.307-7.085 7.634-7.112-.508-.009-.253-.44.567-.958.82-.519 1.495-1.75 1.5-2.735.005-.986.555-1.685 1.223-1.554.72.141.972-.392.619-1.312-.5-1.304-1.009-1.175-3.214.819-6.503 5.881-18.524 13.25-21.619 13.253-1.1.001-4.99 1.503-8.644 3.337-4.915 2.467-8.299 3.431-13 3.703l-6.356.368 5.5-1.203c3.444-.753 6.583-2.231 8.396-3.953 1.593-1.513 3.618-2.76 4.5-2.772s2.729-.902 4.104-1.978 2.805-1.966 3.179-1.978 2.349-1.597 4.39-3.522 4.082-3.5 4.536-3.5c1.372 0 11.161-9.281 19.821-18.791C372.062 687.863 380 674.39 380 673.11c0-.39.535-1.245 1.19-1.9s1.301-1.757 1.438-2.45c.136-.693 1.624-4.86 3.307-9.26s3.342-9.575 3.688-11.5 1.463-5.366 2.481-7.646 2.051-5.655 2.295-7.5c.425-3.217 7.041-28.941 10.121-39.354 1.343-4.539 7.201-25.592 7.791-28 .135-.55.546-1.48.913-2.067.368-.587 1.623-4.63 2.79-8.985 3.207-11.969 4.253-10.909 1.531 1.552-14.394 65.902-16.786 80.944-18.044 113.5-.733 18.982-1.692 24.982-5.937 37.173-6.716 19.285-13.735 32.531-23.918 45.141-5.921 7.332-15.387 15.464-16.907 14.525-.576-.357-.76-.181-.407.389.592.958-6.595 4.641-11.707 6-3.769 1.002-22.585 1.146-23.184.177a1.1 1.1 0 0 0-1.51-.362c-.512.316-.931.072-.931-.543s-.412-.864-.915-.553-1.065.146-1.25-.366c-.184-.512-1.008-1.077-1.831-1.256s-1.993-.957-2.601-1.73c-.607-.774-3.558-1.609-6.568-1.859-5.072-.42-5.689-.228-8.606 2.688-1.727 1.728-2.905 3.756-2.617 4.508.288.751.044 1.663-.544 2.026-.587.363-1.068 1.608-1.068 2.768s.316 1.791.703 1.405c.908-.908 3.385 7.417 2.59 8.704-.331.536-.105.667.502.292.613-.379 1.628.331 2.28 1.595.646 1.253 2.097 3.291 3.224 4.528s1.691 2.25 1.253 2.25-.241.67.439 1.489 1.632 1.244 2.116.945 2.346.554 4.137 1.896c4.657 3.492 11.545 6.792 11.929 5.716.28-.783 5.978-1.518 19.327-2.493 1.65-.12 4.777-1.012 6.948-1.982 2.691-1.202 5.16-1.57 7.753-1.155 6.451 1.032 12.333-2.524 17.307-10.462 1.535-2.45 3.255-4.756 3.821-5.124.567-.369 1.145-1.449 1.284-2.4.14-.951.631-2 1.091-2.33.783-.561 3.271-5.514 11.352-22.6 1.821-3.85 3.87-7.675 4.553-8.5 1.769-2.137 6.354-28.907 6.587-38.46l.196-8.04.368 7c.628 11.928-4.494 42.029-10.295 60.5-5.315 16.92-14.775 31.627-21.847 33.961-2.463.813-4.384.71-8.169-.438-10.652-3.231-17.367-1.1-19.368 6.147-.861 3.115-.581 4.435 2.161 10.204 1.732 3.644 3.106 7.219 3.054 7.943s.143 1.077.436.785c.292-.293 3.284 1.986 6.65 5.062 9.253 8.461 12.905 9.836 26.118 9.836 8.868 0 11.479-.339 13.473-1.75 1.359-.962 3.384-1.764 4.5-1.781 1.115-.017 4.277-1.12 7.027-2.451 4.103-1.985 4.577-2.069 2.639-.469-1.298 1.073-3.023 1.951-3.833 1.951s-1.277.563-1.038 1.25c.627 1.801 8.28.992 13.732-1.452 6.742-3.023 10.388-6.128 15.929-13.566 2.759-3.703 7.558-8.548 10.667-10.767 4.954-3.537 5.943-4.833 8.011-10.5 2.741-7.508 2.688-7.266 1.393-6.465-1.382.854-1.281.288.962-5.405 1.776-4.504 7.266-25.055 8.475-31.721.99-5.457 1.531-11.149 2.118-22.262.535-10.149 1.697-15.112 3.537-15.112 1.22 0 7.017 6.157 7.816 8.301.451 1.209 1.141 4.385 1.533 7.056.533 3.63.415 4.672-.471 4.125-.811-.502-1.002-.141-.606 1.143 1.516 4.912 2.636 26.403 2.653 50.875.024 35.654 1.646 43.627 10.037 49.338 1.895 1.29 3.336 2.748 3.201 3.239-.413 1.504 8.939 5.607 14.365 6.302 13.294 1.702 28.472-6.324 33.272-17.595 2.807-6.593 3.849-13.562 5.124-34.284 1.906-30.968 5.613-52.35 11.225-64.75 1.68-3.712 3.423-6.75 3.872-6.75 1.439 0 2.626 3.349 3.192 9 1.822 18.214 2.812 22.614 8.552 38 1.949 5.225 3.481 9.725 3.404 10s.674 1.4 1.668 2.5c.995 1.1 2.08 3.155 2.413 4.566s1.563 3.661 2.736 5c1.917 2.187 3.172 4.548 3.953 7.434.149.55.99 1.548 1.87 2.218.879.67 1.246 1.233.814 1.25-.811.033 1.612 2.986 6.722 8.191 2.426 2.472 2.687 3.164 1.5 3.982-1.109.764-.981.866.563.447 2.198-.596 5.355.89 4.246 2-.383.383 1.43 1.811 4.029 3.173s6.075 3.484 7.725 4.714 5.025 3.272 7.5 4.539c2.706 1.384 3.943 2.491 3.102 2.776-2.202.748 8.805 4.897 14.954 5.637 6.174.743 13.102-.491 19.139-3.407 3.113-1.504 3.861-1.607 3.425-.472-.306.799-.121 1.452.411 1.452.533 0 .969.473.969 1.051 0 2.286-7.78 4.283-19.5 5.006l-12 .74 13.5-.352c7.425-.194 15.144-.885 17.152-1.537 4.317-1.399 6.743-5.294 4.038-6.483-.929-.408-2.061-.66-2.514-.559-.454.101-.54-.278-.191-.841.348-.564.044-1.041-.676-1.06s-.19-.655 1.178-1.413c1.369-.757 2.901-1.121 3.405-.81.504.312.625.095.268-.483-.672-1.087 2.081-2.76 3.84-2.334.55.133.71-.048.356-.402s.321-1.684 1.5-2.955c3.929-4.234 6.142-7.262 6.337-8.672.107-.768.706-3.236 1.331-5.485 1.479-5.318-.557-10.546-5.214-13.385-1.82-1.11-2.611-2.02-1.756-2.022 1.772-.005 7.946 6.005 7.946 7.735 0 1.962 1.367 2.132 6.516.809 4.074-1.046 11.311-1.295 16.984-.583.55.069-.35.717-2 1.441-1.95.856-3.426.982-4.215.361-2.018-1.585-16.285 1.315-16.285 3.311 0 1.168 1.251 1.156 14.576-.143 13.097-1.277 17.466-2.321 20.579-4.915l2.345-1.953-4-.15c-2.2-.082-5.795-.109-7.989-.06l-3.989.09 5.489-2.638c3.019-1.45 5.86-2.552 6.313-2.448.454.104.54-.273.191-.836-.555-.899.655-1.438 2.639-1.175.36.047 1.26-.687 2-1.632 1.235-1.576 1.181-1.6-.654-.295-1.1.782-.65.051 1-1.625 1.65-1.677 3.407-2.81 3.905-2.519.497.292.581.007.186-.632-.401-.649-.031-1.425.84-1.759.857-.329 1.319-.984 1.027-1.456-.292-.473.301-1.691 1.318-2.708s1.671-2.383 1.453-3.036c-.218-.654.118-1.188.747-1.188.628 0 .885-.416.57-.925-.314-.509-.078-2.008.525-3.332 1.593-3.495-.445-10.286-3.732-12.44-1.42-.931-4.129-1.649-6.019-1.595-3.63.103-9.32 2.066-9.32 3.216 0 .374-2.288 1.504-5.084 2.509-9.963 3.583-22.239 1.552-33.459-5.534-6.295-3.976-23.824-21.497-22.939-22.929.259-.418-.23-1.029-1.087-1.358s-1.278-1.051-.935-1.605S646.615 739 646 739s-.869-.403-.565-.895c.305-.493-.147-1.164-1.004-1.493s-1.278-1.051-.935-1.605S643.615 734 643 734s-.869-.403-.565-.895c.305-.493-.156-1.168-1.024-1.501-.867-.333-1.399-1.139-1.182-1.792s-.454-2.037-1.494-3.077c-1.039-1.039-1.644-2.53-1.344-3.312.301-.783.035-1.423-.589-1.423s-.857-.279-.516-.619c.34-.341-.061-1.299-.891-2.129s-1.264-2.15-.964-2.933c.303-.788.105-1.15-.442-.812-.904.558-1.377-1.045-1.258-4.257.026-.687-.401-1.25-.949-1.25s-.737-.675-.42-1.5c.316-.825.091-1.5-.5-1.5-.592 0-.817-.675-.5-1.5s.087-1.5-.51-1.5-.85-.9-.562-2 .147-2-.313-2c-1.193 0-3.169-10.28-2.418-12.577.467-1.427.378-1.57-.347-.555-.661.927-.991-1.976-1.024-9-.123-26.865-3.15-50.106-11.759-90.288-4.809-22.442-5.517-30.579-1.008-11.58 3.574 15.059 10.56 49.317 10.649 52.223.068 2.179.111 2.191 1.008.277.763-1.629.875-1.399.604 1.242-.183 1.784-.091 3 .205 2.704s1.808 5.895 3.358 13.758 3.776 16.321 4.945 18.796c4.177 8.84 10.26 18.575 16.136 25.822 5.142 6.343 8.806 10.097 21.159 21.678 4.192 3.93 9.408 7.5 10.958 7.5.867 0 2.347.9 3.289 2s2.426 2 3.299 2 2.368.571 3.322 1.269c1.494 1.092 1.138 1.248-2.559 1.121-4.57-.157-10.193-2.155-14.602-5.189-1.481-1.018-4.267-2.477-6.192-3.241s-5.319-2.612-7.543-4.106c-2.223-1.494-4.696-2.859-5.496-3.035-.8-.175-2.04-.994-2.756-1.819-.783-.903-.668-.192.289 1.783.937 1.932 2.049 3 2.703 2.595.694-.429.829-.23.36.531-1.991 3.221 8.191 9.3 14.989 8.948 3.632-.188 4.962.255 7.204 2.403 4.334 4.151 9.324 5.74 18.03 5.74 5.98 0 8.899.51 12.282 2.148 2.441 1.181 6.463 2.319 8.938 2.528s6.473.544 8.885.745 3.894.061 3.295-.31c-.6-.37 1.168-1.475 3.928-2.456 2.964-1.052 6.613-3.426 8.917-5.8 2.145-2.211 4.367-3.731 4.938-3.378s1.037.116 1.037-.526c0-.762.956-.946 2.75-.529 2.168.504 2.432.402 1.25-.478-1.225-.913-1.088-1.027.751-.624 1.239.271 2.02.118 1.736-.341s.325-1.102 1.353-1.428c2.816-.894 9.092-7.533 11.392-12.051 1.12-2.2 2.484-4.287 3.03-4.638.547-.351.685-1.139.307-1.75-.378-.612-.184-1.112.431-1.112s.906-.342.648-.761c-.529-.855 2.049-4.739 3.145-4.739.389 0 .595-.337.457-.75-.137-.412.248-.75.857-.75s.848-.675.531-1.5-.214-1.5.227-1.5c.895 0 .901-.037 1.338-8.75.172-3.437-.028-6.25-.445-6.25s-.669-.337-.56-.75c.479-1.812-1.492-5.212-3.956-6.827-5.28-3.46-13.288-1.831-19.544 3.976-1.54 1.431-3.19 2.601-3.666 2.601s-1.015.357-1.199.794c-.432 1.028-9.415 4.794-13.495 5.657-4.603.974-15.153-1.199-20.275-4.176-8.776-5.1-17.537-14.788-25.569-28.275-2.13-3.575-4.275-6.775-4.768-7.112s-.826-1.011-.739-1.5c.2-1.126-6.203-14.68-7.322-15.5-.46-.336-.799-1.011-.755-1.5.142-1.554-3.377-9.38-4.219-9.384-.445-.002-.598-.346-.339-.764s-.236-2.33-1.098-4.25c-.861-1.919-1.496-3.827-1.41-4.24s-.321-.75-.903-.75-.8-.419-.484-.931.118-1.213-.441-1.559-1.016-1.469-1.016-2.498c0-1.028-.599-2.468-1.33-3.199-.732-.732-1.145-1.889-.917-2.572s-.1-1.241-.729-1.241c-.628 0-.864-.45-.524-1s.093-1-.548-1-.907-.675-.59-1.5c.316-.825.139-1.5-.393-1.5-.533 0-.895-.337-.805-.75.284-1.297-1.349-6.25-2.06-6.25-.373 0-.754-1.006-.847-2.235-.092-1.23-.641-2.393-1.219-2.586-.578-.192-.796-.761-.485-1.264s.062-.915-.553-.915-.84-.45-.5-1 .115-1-.5-1-.84-.45-.5-1 .115-1-.5-1-.84-.45-.5-1 .115-1-.5-1-.862-.414-.55-.919c.313-.506-.143-1.631-1.012-2.5-.87-.87-1.318-1.581-.997-1.581s-.521-1.751-1.872-3.89-2.181-4.165-1.846-4.5c.336-.336.059-.61-.615-.61s-.948-.45-.608-1 .066-1-.608-1-.963-.263-.642-.583c.321-.321-.296-1.463-1.37-2.537s-1.714-2.339-1.422-2.812-.206-1.141-1.107-1.487c-.9-.345-1.385-.88-1.077-1.188.307-.308-.32-1.439-1.394-2.513s-1.639-2.499-1.256-3.166c.383-.668.333-.885-.111-.483-.952.861-6.572-6.327-5.854-7.488.269-.436.119-.7-.335-.586-.453.113-3.927-2.801-7.719-6.476s-7.392-6.667-8-6.651-.317.489.645 1.05c2.509 1.461 2.172 2.65-1.25 4.42-1.65.853-3 1.26-3 .903 0-.356-.6-.15-1.333.458-.732.608-3.77 1.364-6.75 1.68s-6.767.731-8.417.922c-3.728.433-15.143 2.334-18.5 3.082-2.969.662-13.864 2.226-16 2.298-1.439.048-6.557.483-19.5 1.656-3.3.299-9.6.781-14 1.07s-10.475.718-13.5.952-17.425.668-32 .964c-49.415 1.005-55.711 1.218-56.856 1.926-.629.389-1.144.245-1.144-.321 0-.565-.64-.782-1.423-.481-.782.3-2.32-.352-3.416-1.448s-2.257-1.732-2.578-1.411-.583.106-.583-.476c0-.583-.698-1.328-1.552-1.656-1.03-.395-1.306-.197-.819.59.833 1.349-5.778-3.101-6.784-4.566-.361-.525-.458-2.045-.216-3.378.319-1.763.089-2.225-.845-1.693-.706.402.516-.893 2.716-2.878 5.253-4.741 4.273-4.637-2.049.216M290.5 726.559c3.3.744 7.125 1.329 8.5 1.299 1.375-.029-.425-.657-4-1.394-8.471-1.747-12.304-1.666-4.5.095M628.646 760c1.095 6.684 6.582 22.539 10.208 29.497 4.23 8.118 9.665 13.987 13.658 14.75 1.541.295 4.643-.057 6.894-.782l4.094-1.318-4.203.547c-5.86.762-8.872-.22-12.673-4.134-5.648-5.816-10.575-16.704-17.45-38.56l-1.101-3.5zM298 805.313c-5.539.917-7.966 2.567-5.666 3.854 1.594.892 21.355 4.866 23.524 4.731 1.798-.113-8.659-2.742-13.156-3.309-6.612-.833-3.787-3.55 3.715-3.574 2.704-.008 4.652-.279 4.329-.602-1.399-1.4-7.667-1.94-12.746-1.1m32.764 1.256c-.312.313-2.75.935-5.416 1.382l-4.848.814 5.5.131c3.025.072 6.512.403 7.75.734 1.815.487 2.25.194 2.25-1.513 0-1.551-.624-2.117-2.333-2.117-1.284 0-2.59.256-2.903.569m-10.264 6.348c-2.68.609-2.413.758 2.5 1.404 3.025.398 7.413.989 9.75 1.315 3.311.46 4.25.272 4.25-.853 0-1.116-1.36-1.405-6-1.276-3.3.092-6-.209-6-.67 0-.915-.122-.913-4.5.08m264.5 5.57c0 1.289 13.387 16.039 17.427 19.202 5.383 4.214 15.573 6.462 15.573 3.436 0-1.564-20.443-14.125-22.988-14.125-.597 0-3.095-2.066-5.549-4.592s-4.463-4.29-4.463-3.921m-44 21.478c0 1.28-.871 2.216-2.428 2.606-1.335.335-2.671 1.244-2.968 2.019s-1.257 1.41-2.132 1.41c-.874 0-1.32.437-.989.972.33.534-1.735 2.649-4.59 4.7s-4.651 3.909-3.992 4.128 3.039-.883 5.289-2.45 4.955-3.356 6.013-3.974 1.827-1.518 1.709-2 2.104-2.205 4.937-3.83c5.845-3.352 6.514-5.017 2.151-5.349-2.408-.184-3 .165-3 1.768m-130 4.042c-5.087 1.129-13.688 2.82-20 3.932l-5.5.969 6-.511c9.26-.789 24.5-3.625 24.5-4.559 0-.93-.057-.928-5 .169m85 6.243c0 .968 15.133.954 16.65-.015.633-.404-2.855-.735-7.75-.735-4.896 0-8.901.337-8.9.75m4.5 7.762c3.956.863 14.222 1.335 13.417.616-.229-.204-4.242-.623-8.917-.93-6.07-.399-7.357-.309-4.5.314"/></svg>