<?xml version="1.0" encoding="iso-8859-1"?>
<!-- Uploaded to: SVG Repo, www.svgrepo.com, Generator: SVG Repo Mixer Tools -->
<svg version="1.1" id="Layer_1" xmlns="http://www.w3.org/2000/svg" xmlns:xlink="http://www.w3.org/1999/xlink" 
	 viewBox="0 0 485.6 485.6" xml:space="preserve">
<path style="fill:#6B7C7B;" d="M139.6,82.4c0.8,0,1.6,0,2.4,0l274.4,8c9.6,0,16.8-7.2,16.8-16.8s-7.2-16.8-16.8-16.8l-274.4,8
	c-0.8,0-1.6,0-2.4,0c-3.2-5.6-10.4-9.6-18.4-9.6c-11.2,0-27.2,8-27.2,18.4S109.2,92,121.2,92C129.2,92,136.4,88.8,139.6,82.4z"/>
<path style="fill:#738482;" d="M433.2,73.6c0-9.6-7.2-16.8-16.8-16.8l-274.4,8c-0.8,0-1.6,0-2.4,0c-3.2-5.6-10.4-9.6-18.4-9.6
	c-11.2,0-27.2,8-27.2,18.4l0,0L433.2,73.6C433.2,74.4,433.2,73.6,433.2,73.6z"/>
<path style="fill:#2298D3;" d="M436.4,452c0,17.6-14.4,32-32,32H81.2c-17.6,0-32-14.4-32-32V146.4c0-17.6,14.4-32,32-32h324
	c17.6,0,32,14.4,32,32V452H436.4z"/>
<path style="fill:#248BD1;" d="M49.2,146.4c0-17.6,14.4-32,32-32h324c17.6,0,32,14.4,32,32V452c0,17.6-14.4,32-32,32"/>
<path style="fill:#2576CE;" d="M436.4,452V146.4c0-17.6-14.4-32-32-32h-88L194.8,237.6L429.2,472C434,466.4,436.4,459.2,436.4,452z"
	/>
<path style="fill:#FFAC1A;" d="M454.8,125.6c0,8-6.4,13.6-13.6,13.6H44.4c-8,0-13.6-6.4-13.6-13.6l0,0c0-8,6.4-13.6,13.6-13.6h396
	C448.4,112,454.8,118.4,454.8,125.6L454.8,125.6z"/>
<g>
	<path style="fill:#FF7A17;" d="M291.6,140h148.8c8,0,13.6-6.4,13.6-13.6c0-8-6.4-13.6-13.6-13.6H319.6L291.6,140z"/>
	<path style="fill:#FF7A17;" d="M454.8,125.6L454.8,125.6c0,8-6.4,13.6-13.6,13.6H44.4c-8,0-13.6-6.4-13.6-13.6l0,0"/>
</g>
<path style="fill:#E0620B;" d="M306,125.6l-13.6,13.6h148.8c8,0,13.6-6.4,13.6-13.6H306z"/>
<path style="fill:#FFAC1A;" d="M454.8,472c0,8-6.4,13.6-13.6,13.6H44.4c-8,0-13.6-6.4-13.6-13.6l0,0c0-8,6.4-13.6,13.6-13.6h396
	C448.4,458.4,454.8,464.8,454.8,472L454.8,472z"/>
<path style="fill:#FF7A17;" d="M30.8,472L30.8,472c0-8,6.4-13.6,13.6-13.6h396c8,0,13.6,6.4,13.6,13.6l0,0"/>
<rect x="49.2" y="223.2" style="fill:#1AA9E2;" width="387.2" height="151.2"/>
<polygon style="fill:#2298D3;" points="290,374.4 436.4,374.4 436.4,223.2 130,223.2 "/>
<polygon style="fill:#1586CC;" points="194.8,237.6 331.6,374.4 436.4,374.4 436.4,223.2 208.4,223.2 "/>
<g>
	<path style="fill:#C1BA9A;" d="M102,463.2c0,1.6-1.6,3.2-3.2,3.2l0,0c-1.6,0-3.2-1.6-3.2-3.2V138.4c0-1.6,1.6-3.2,3.2-3.2l0,0
		c1.6,0,3.2,1.6,3.2,3.2V463.2z"/>
	<path style="fill:#C1BA9A;" d="M184.4,463.2c0,1.6-1.6,3.2-3.2,3.2l0,0c-1.6,0-3.2-1.6-3.2-3.2V138.4c0-1.6,1.6-3.2,3.2-3.2l0,0
		c1.6,0,3.2,1.6,3.2,3.2V463.2z"/>
	<path style="fill:#C1BA9A;" d="M267.6,463.2c0,1.6-1.6,3.2-3.2,3.2l0,0c-1.6,0-3.2-1.6-3.2-3.2V138.4c0-1.6,1.6-3.2,3.2-3.2l0,0
		c1.6,0,3.2,1.6,3.2,3.2V463.2z"/>
	<path style="fill:#C1BA9A;" d="M350.8,463.2c0,1.6-1.6,3.2-3.2,3.2l0,0c-1.6,0-3.2-1.6-3.2-3.2V138.4c0-1.6,1.6-3.2,3.2-3.2l0,0
		c1.6,0,3.2,1.6,3.2,3.2V463.2z"/>
	<path style="fill:#C1BA9A;" d="M433.2,463.2c0,1.6-1.6,3.2-3.2,3.2l0,0c-1.6,0-3.2-1.6-3.2-3.2V138.4c0-1.6,1.6-3.2,3.2-3.2l0,0
		c1.6,0,3.2,1.6,3.2,3.2V463.2z"/>
</g>
<g>
	<circle style="fill:#FFAC1A;" cx="77.2" cy="203.2" r="5.6"/>
	<circle style="fill:#FFAC1A;" cx="118.8" cy="203.2" r="5.6"/>
	<circle style="fill:#FFAC1A;" cx="160.4" cy="203.2" r="5.6"/>
	<circle style="fill:#FFAC1A;" cx="201.2" cy="203.2" r="5.6"/>
	<circle style="fill:#FFAC1A;" cx="242.8" cy="203.2" r="5.6"/>
	<circle style="fill:#FFAC1A;" cx="284.4" cy="203.2" r="5.6"/>
	<circle style="fill:#FFAC1A;" cx="325.2" cy="203.2" r="5.6"/>
	<circle style="fill:#FFAC1A;" cx="366.8" cy="203.2" r="5.6"/>
	<circle style="fill:#FFAC1A;" cx="408.4" cy="203.2" r="5.6"/>
	<circle style="fill:#FFAC1A;" cx="77.2" cy="395.2" r="5.6"/>
	<circle style="fill:#FFAC1A;" cx="118.8" cy="395.2" r="5.6"/>
	<circle style="fill:#FFAC1A;" cx="160.4" cy="395.2" r="5.6"/>
	<circle style="fill:#FFAC1A;" cx="201.2" cy="395.2" r="5.6"/>
	<circle style="fill:#FFAC1A;" cx="242.8" cy="395.2" r="5.6"/>
	<circle style="fill:#FFAC1A;" cx="284.4" cy="395.2" r="5.6"/>
	<circle style="fill:#FFAC1A;" cx="325.2" cy="395.2" r="5.6"/>
	<circle style="fill:#FFAC1A;" cx="366.8" cy="395.2" r="5.6"/>
	<circle style="fill:#FFAC1A;" cx="408.4" cy="395.2" r="5.6"/>
</g>
<path style="fill:#A4C1BC;" d="M213.2,219.2c0.8-0.8,0.8-0.8,1.6-1.6l200-188.8c6.4-6.4,6.4-17.6,0-24s-17.6-6.4-24,0L202,204.8
	c-0.8,0.8-0.8,0.8-1.6,1.6c-6.4-1.6-14.4,0.8-19.2,6.4c-8,8-13.6,24.8-6.4,32c7.2,7.2,24,2.4,32-6.4
	C212.4,233.6,214.8,225.6,213.2,219.2z"/>
<path style="fill:#B6CECB;" d="M414.8,4.8c-6.4-6.4-17.6-6.4-24,0L202,204.8c-0.8,0.8-0.8,0.8-1.6,1.6c-6.4-1.6-14.4,0.8-19.2,6.4
	c-8,8-13.6,24.8-6.4,32l0,0L414.8,4.8C414.8,5.6,414.8,4.8,414.8,4.8z"/>
</svg>