<?xml version="1.0" encoding="iso-8859-1"?>
<!-- Uploaded to: SVG Repo, www.svgrepo.com, Generator: SVG Repo Mixer Tools -->
<svg version="1.1" id="Layer_1" xmlns="http://www.w3.org/2000/svg" xmlns:xlink="http://www.w3.org/1999/xlink" 
	 viewBox="0 0 486.849 486.849" xml:space="preserve">
<path style="fill:#095A91;" d="M475.212,19.4c12,12,12,30.4,0,42.4l-189.6,172c-12,12-22.4,20-33.6,8.8l-10.4-10.4
	c-12-12-3.2-22.4,8.8-33.6l172-189.6c12-12,30.4-12,42.4,0L475.212,19.4z"/>
<path style="fill:#074568;" d="M464.812,9l10.4,10.4c12,12,12,30.4,0,42.4l-189.6,172c-12,12-22.4,20-33.6,8.8l-10.4-10.4"/>
<circle style="fill:#DB6309;" cx="239.212" cy="245" r="47.2"/>
<path style="fill:#C14006;" d="M205.612,212.2c18.4-18.4,48-18.4,66.4,0s18.4,48,0,66.4"/>
<rect x="107.212" y="331.4" style="fill:#F4CD27;" width="40" height="40"/>
<polygon style="fill:#EDB811;" points="147.212,370.6 132.012,349.8 113.612,331.4 147.212,331.4 "/>
<rect x="67.212" y="387.4" style="fill:#F4CD27;" width="32" height="32"/>
<polygon style="fill:#EDB811;" points="99.212,419.4 86.412,399.4 71.212,387.4 99.212,387.4 "/>
<rect x="35.212" y="427.4" style="fill:#F4CD27;" width="24" height="24"/>
<polygon style="fill:#EDB811;" points="59.212,446.6 49.612,436.2 37.612,427.4 59.212,427.4 "/>
<rect x="93.481" y="274.705" transform="matrix(-0.7068 -0.7074 0.7074 -0.7068 -20.3824 569.7618)" style="fill:#F4CD27;" width="28.8" height="28.8"/>
<polygon style="fill:#EDB811;" points="108.012,309 109.612,289 108.012,268.2 128.012,289 "/>
<rect x="44.365" y="278.657" transform="matrix(-0.7067 -0.7075 0.7075 -0.7067 -110.6422 533.0467)" style="fill:#F4CD27;" width="21.6" height="21.6"/>
<polygon style="fill:#EDB811;" points="55.212,304.2 56.812,289 55.212,273.8 70.412,289 "/>
<rect x="5.786" y="281.259" transform="matrix(-0.7071 -0.7071 0.7071 -0.7071 -181.4035 502.5784)" style="fill:#F4CD27;" width="15.2" height="15.2"/>
<polygon style="fill:#EDB811;" points="12.812,299.4 13.612,289 12.812,278.6 24.012,289 "/>
<rect x="175.808" y="366.635" transform="matrix(-0.7074 0.7068 -0.7068 -0.7074 594.08 516.1415)" style="fill:#F4CD27;" width="28.8" height="28.8"/>
<polygon style="fill:#EDB811;" points="210.412,381 190.412,379.4 169.612,381 190.412,361 "/>
<rect x="179.098" y="422.967" transform="matrix(-0.7071 0.7071 -0.7071 -0.7071 630.8956 606.2079)" style="fill:#F4CD27;" width="21.6" height="21.6"/>
<polygon style="fill:#EDB811;" points="205.612,433.8 190.412,432.2 175.212,433.8 190.412,418.6 "/>
<rect x="182.304" y="468.501" transform="matrix(-0.7076 0.7066 -0.7066 -0.7076 660.6982 678.8062)" style="fill:#F4CD27;" width="15.2" height="15.2"/>
<polygon style="fill:#EDB811;" points="200.812,476.2 190.412,475.4 180.012,476.2 190.412,465.8 "/>
<polygon style="fill:#F7E263;" points="159.212,325 181.612,258.6 139.212,202.6 209.612,203.4 250.412,145.8 271.212,213 
	338.412,233.8 280.812,274.6 281.612,344.2 225.612,302.6 "/>
<polygon style="fill:#F4CD27;" points="159.212,325 204.012,258.6 139.212,202.6 224.812,217.8 250.412,145.8 271.212,213 
	338.412,233.8 280.812,274.6 281.612,344.2 225.612,302.6 "/>
<polyline style="fill:#EDB811;" points="271.212,213 338.412,233.8 280.812,274.6 281.612,344.2 225.612,302.6 159.212,325 "/>
<g>
	<circle style="fill:#F7E263;" cx="168.012" cy="164.2" r="2.4"/>
	<circle style="fill:#F7E263;" cx="138.412" cy="92.2" r="10.4"/>
	<circle style="fill:#F7E263;" cx="206.412" cy="145.8" r="7.2"/>
	<circle style="fill:#F7E263;" cx="256.812" cy="93" r="12.8"/>
	<circle style="fill:#F7E263;" cx="388.812" cy="241.8" r="8.8"/>
	<circle style="fill:#F7E263;" cx="347.212" cy="281" r="4.8"/>
	<circle style="fill:#F7E263;" cx="331.212" cy="297.8" r="6.4"/>
	<circle style="fill:#F7E263;" cx="384.812" cy="317.8" r="8.8"/>
	<circle style="fill:#F7E263;" cx="324.812" cy="343.4" r="7.2"/>
	<circle style="fill:#F7E263;" cx="270.412" cy="405" r="5.6"/>
	<circle style="fill:#F7E263;" cx="82.412" cy="212.2" r="4"/>
	<circle style="fill:#F7E263;" cx="136.012" cy="258.6" r="5.6"/>
	<circle style="fill:#F7E263;" cx="102.412" cy="157" r="7.2"/>
	<circle style="fill:#F7E263;" cx="40.812" cy="249" r="1.6"/>
	<circle style="fill:#F7E263;" cx="248.012" cy="353" r="8"/>
	<circle style="fill:#F7E263;" cx="343.212" cy="215.4" r="3.2"/>
</g>
</svg>