<?xml version="1.0" encoding="iso-8859-1"?>

<!DOCTYPE svg PUBLIC "-//W3C//DTD SVG 1.1//EN" "http://www.w3.org/Graphics/SVG/1.1/DTD/svg11.dtd">
<!-- Uploaded to: SVG Repo, www.svgrepo.com, Generator: SVG Repo Mixer Tools -->
<svg height="800px" width="800px" version="1.1" id="_x36_" xmlns="http://www.w3.org/2000/svg" xmlns:xlink="http://www.w3.org/1999/xlink" 
	 viewBox="0 0 512 512"  xml:space="preserve">
<g>
	<g>
		<g>
			<g>
				<path style="fill:#799A94;" d="M399.9,431.563c-36.648,0-51.238-42.522-51.238-94.977c0-52.454,14.589-94.977,51.238-94.977
					h45.72c36.648,0,66.358,42.522,66.358,94.977c0,52.454-29.71,94.977-66.358,94.977H399.9z"/>
				<path style="fill:#799A94;" d="M163.32,336.584c0,51.794-14.247,93.867-49.864,94.906c-0.445,0.074-0.89,0.074-1.41,0.074
					H66.337c-4.23,0-8.385-0.593-12.392-1.707c-1.632-0.371-3.265-0.89-4.897-1.558c-16.77-6.456-30.943-22.112-39.699-43.038
					C3.413,371.089,0,354.393,0,336.584c0-30.942,10.314-58.398,26.268-75.761c4.823-5.194,10.091-9.498,15.805-12.689
					c7.495-4.23,15.731-6.53,24.265-6.53h45.709C148.702,241.605,163.32,284.123,163.32,336.584z"/>
			</g>
			<path style="fill:#E0CEB0;" d="M486.919,236.633c0,6.085-0.223,12.169-0.668,18.18c0,0.148-0.074,0.297-0.074,0.445
				c-0.074,1.187-0.148,2.374-0.297,3.562c-0.074,0.742-0.149,1.41-0.149,2.077c0,0.074,0,0.074,0,0.148
				c-0.074,0.149-0.074,0.371-0.074,0.52v0.074c-1.039,9.943-2.671,19.664-4.897,29.162c-8.459,36.211-25.155,69.231-47.935,96.76
				c-3.339,4.081-6.827,8.014-10.388,11.798c-4.675,4.971-9.573,9.72-14.618,14.247h-9.943c-1.929,0-3.784-0.149-5.639-0.52h-0.074
				c-0.074,0-0.148,0-0.223-0.074c-1.336,0.371-2.671,0.594-4.081,0.594c-4.452,0-8.756-2.078-12.763-5.862
				c-1.262-1.113-2.449-2.449-3.636-4.007c-0.817-3.784-1.558-7.717-2.152-11.872c-0.371-2.078-0.668-4.155-0.89-6.381
				c0.89-0.668,1.781-1.41,2.746-2.152c4.081-3.339,7.94-6.752,11.65-10.388c0.965-0.89,1.855-1.781,2.746-2.671
				c2.152-2.226,4.304-4.452,6.307-6.678c4.897-5.417,9.349-10.982,13.579-16.919c0.074,0,0.074-0.074,0.074-0.074
				c2.745-3.933,5.417-7.94,7.866-12.095c2.3-3.859,4.526-7.791,6.53-11.798c1.261-2.375,2.523-4.823,3.71-7.272
				c0.742-1.484,1.484-3.043,2.152-4.526c0.668-1.41,1.262-2.745,1.855-4.155c0.371-0.891,0.742-1.781,1.113-2.672
				c0.668-1.707,1.336-3.413,2.004-5.12c0.742-2.077,1.484-4.155,2.226-6.307c2.152-6.307,3.933-12.763,5.417-19.367
				c0.149-0.52,0.297-0.965,0.297-1.484c0.742-3.191,1.336-6.53,1.855-9.795c0.593-3.487,1.038-7.049,1.41-10.611
				c0.222-1.707,0.371-3.488,0.519-5.194v-0.371c0.074-1.41,0.223-2.82,0.223-4.23c0.074-0.297,0.074-0.668,0.074-0.965
				c0.074-1.336,0.148-2.597,0.148-3.932c0.148-1.855,0.148-3.71,0.148-5.565c0-1.336-0.074-2.672-0.074-4.007
				c-0.074-3.487-0.222-6.901-0.519-10.314c-0.074-1.781-0.222-3.562-0.519-5.268c-0.074-1.336-0.223-2.671-0.445-4.007
				c0-0.445,0-0.89-0.074-1.261c-0.074-0.52-0.149-1.039-0.223-1.558c-0.297-2.449-0.667-4.898-1.113-7.346
				c-0.223-1.187-0.445-2.374-0.742-3.487c-0.297-1.855-0.668-3.71-1.113-5.565c-0.223-1.039-0.445-2.078-0.742-3.116
				c-0.52-2.152-1.039-4.304-1.707-6.382c0-0.148,0-0.371-0.149-0.519c-0.742-2.82-1.632-5.565-2.523-8.311
				c0-0.148-0.074-0.222-0.074-0.371c-0.965-2.82-2.004-5.565-3.043-8.236c-1.187-3.191-2.523-6.307-4.007-9.424
				c-1.039-2.375-2.152-4.749-3.339-7.049c-1.484-3.117-3.191-6.233-4.971-9.275c-1.188-2.152-2.523-4.304-3.859-6.456
				c-6.307-10.091-13.579-19.589-21.593-28.271c-1.039-1.261-2.226-2.448-3.488-3.636c-0.816-0.965-1.707-1.855-2.671-2.745
				c-2.077-2.077-4.23-4.081-6.456-6.085c-2.226-2.003-4.452-3.933-6.752-5.788c-2.3-1.929-4.601-3.71-6.975-5.417
				c-2.375-1.781-4.823-3.487-7.272-5.12c-2.448-1.706-4.897-3.265-7.495-4.749c-2.523-1.559-5.046-3.043-7.717-4.453
				c-18.18-9.869-38.215-16.696-59.288-19.961c-2.226-0.371-4.452-0.668-6.753-0.89c-6.975-0.816-14.173-1.261-21.37-1.261h-0.074
				L175.86,59.139c-5.417,2.672-10.611,5.491-15.731,8.608l-7.568,4.823c-9.869,6.752-19.07,14.395-27.455,22.78
				c-0.668,0.668-1.336,1.336-1.855,2.004c-9.721,9.795-18.254,20.702-25.526,32.427c-1.558,2.523-3.043,5.12-4.526,7.717
				c-1.484,2.597-2.894,5.194-4.155,7.865c-1.336,2.671-2.597,5.342-3.784,8.088c-1.188,2.745-2.375,5.491-3.414,8.311
				c-3.265,8.385-5.936,17.141-8.014,26.045c-0.668,2.968-1.261,6.01-1.781,9.053c-0.371,1.781-0.667,3.562-0.89,5.342
				c-0.297,1.781-0.519,3.562-0.742,5.342v0.074c-0.074,0.445-0.149,0.89-0.149,1.41c-0.297,2.523-0.594,5.12-0.742,7.717
				c-0.297,3.487-0.445,6.901-0.52,10.388c-0.074,1.336-0.074,2.671-0.074,4.007c0,3.487,0.074,6.975,0.297,10.462
				c0,1.41,0.148,2.82,0.223,4.23c0,0.149,0.074,0.222,0.074,0.371c0,0.89,0.148,1.706,0.222,2.597c0,0.89,0.074,1.707,0.223,2.597
				c0.297,3.191,0.742,6.381,1.261,9.498c0.297,1.929,0.594,3.784,1.039,5.64c0.222,1.707,0.519,3.413,0.965,5.12
				c0.074,0.668,0.222,1.262,0.445,1.929c0.593,3.043,1.336,6.01,2.226,8.979c0,0.074,0,0.222,0.074,0.297
				c0.742,2.746,1.558,5.417,2.448,8.088c0.148,0.593,0.297,1.113,0.519,1.707c0.371,1.113,0.817,2.3,1.262,3.413
				c0.593,1.855,1.261,3.71,2.077,5.565c0.816,2.152,1.706,4.229,2.597,6.381c1.113,2.449,2.226,4.971,3.487,7.42
				c0.668,1.558,1.41,3.042,2.3,4.526c0.445,0.965,0.89,1.855,1.41,2.745c2.004,3.933,4.081,7.865,6.456,11.65
				c2.449,4.155,5.12,8.311,7.94,12.244c0,0.074,0,0.074,0,0.074c4.23,5.937,8.756,11.502,13.579,16.919
				c2.077,2.226,4.155,4.452,6.307,6.678c0.89,0.89,1.855,1.781,2.745,2.671c3.784,3.636,7.643,7.049,11.724,10.388
				c0.89,0.742,1.781,1.484,2.745,2.152c-0.297,2.226-0.594,4.304-0.965,6.381c-0.594,4.155-1.336,8.088-2.152,11.872
				c-1.113,1.558-2.375,2.894-3.636,4.007c-3.933,3.784-8.237,5.862-12.689,5.862c-1.41,0-2.82-0.222-4.155-0.594
				c-0.074,0.074-0.149,0.074-0.223,0.074h-0.074c-1.781,0.371-3.71,0.52-5.639,0.52h-9.943c-5.046-4.526-9.943-9.275-14.618-14.247
				c-3.562-3.785-7.049-7.717-10.389-11.798c-22.78-27.529-39.476-60.549-47.861-96.76c-2.226-9.498-3.858-19.219-4.897-29.162
				v-0.074c0-0.223-0.074-0.52-0.074-0.742c-0.223-1.855-0.371-3.636-0.52-5.565c0-0.149-0.074-0.297-0.074-0.445
				c-0.445-6.01-0.668-12.095-0.668-18.18c0-1.633,0.074-3.265,0.074-4.898c0.371-18.328,2.82-36.211,7.198-53.278
				c10.537-42.221,32.427-79.916,62.108-109.524l0.816-0.816c29.384-29.087,66.412-50.309,107.594-60.178
				c17.067-4.155,34.876-6.308,53.13-6.308H256c47.49,0,91.64,14.692,128.371,39.773c11.576,7.866,22.409,16.844,32.352,26.713
				h0.074c0.816,0.816,1.632,1.633,2.375,2.449c1.781,1.855,3.562,3.71,5.268,5.565c1.262,1.336,2.523,2.745,3.71,4.155
				c1.262,1.336,2.449,2.82,3.71,4.23c2.375,2.82,4.675,5.713,6.901,8.682c0.965,1.336,1.929,2.597,2.894,3.933
				c1.336,1.707,2.597,3.487,3.784,5.342l0.223,0.223c4.081,6.01,7.939,12.243,11.501,18.625c1.558,2.82,3.116,5.788,4.6,8.756
				c0.445,0.816,0.816,1.706,1.261,2.523c1.336,2.671,2.597,5.417,3.784,8.237c0.52,1.039,0.89,2.004,1.336,3.042
				c1.039,2.448,2.078,4.897,2.968,7.346c0.371,0.89,0.668,1.781,0.965,2.671c1.187,2.968,2.152,5.862,3.191,8.904
				c0.074,0.297,0.148,0.52,0.222,0.816c0.223,0.668,0.445,1.41,0.668,2.078c0.816,2.671,1.632,5.342,2.375,8.088
				c0.074,0.074,0.074,0.223,0.074,0.371c2.003,7.272,3.636,14.692,4.972,22.261v0.223c0.594,3.784,1.187,7.569,1.632,11.353
				c0,0.074,0,0.148,0,0.148c0.445,3.859,0.817,7.791,1.113,11.65v0.074c0.297,3.932,0.445,7.865,0.52,11.872
				C486.845,233.368,486.919,235.001,486.919,236.633z"/>
			<path style="fill:#CBC9A9;" d="M442.468,246.192c0-0.122,0.03-0.243,0.03-0.365c0.358-4.87,0.538-9.77,0.538-14.701
				c0-1.339-0.03-2.648-0.06-3.987c-2.064-103.109-85.138-186.346-186.97-186.362v-0.001h-0.03h-0.03v0.001
				C154.115,40.793,71.041,124.03,68.977,227.139c-0.03,1.339-0.06,2.648-0.06,3.987c0,4.931,0.18,9.831,0.538,14.701
				c0,0.122,0.03,0.243,0.03,0.365c0.12,1.735,0.3,3.47,0.479,5.174c2.661,25.64,10.382,49.749,22.081,71.326
				c-2.255-4.447-4.4-8.961-6.299-13.608c-2.474-5.974-4.653-12.099-6.536-18.374c-4.726-15.895-7.385-32.729-7.717-50.089
				c-0.074-1.315-0.074-2.668-0.074-3.983c0-3.983,0.111-7.966,0.369-11.911c0.037-0.827,0.074-1.691,0.148-2.518
				c0.37-4.81,0.923-9.544,1.625-14.241c13.626-90.032,90.211-159.134,182.416-159.134c92.205,0,168.79,69.102,182.416,159.134
				c0.702,4.697,1.255,9.432,1.625,14.241c0.074,0.827,0.111,1.691,0.148,2.518c0.258,3.945,0.369,7.928,0.369,11.911
				c0,1.315,0,2.668-0.074,3.983c-0.332,17.36-2.991,34.194-7.717,50.089c-1.883,6.275-4.062,12.4-6.536,18.374
				c-1.898,4.646-4.042,9.158-6.296,13.604c11.697-21.575,19.417-45.682,22.078-71.321
				C442.168,249.661,442.348,247.927,442.468,246.192z"/>
			<g>
				<g>
					<path style="fill:#6EC3B4;" d="M172.459,330.552c0,38.194-3.733,72.48-12.274,95.925c-6.22,17.227-15.065,28.656-26.867,31.513
						c-1.95,0.462-3.968,0.715-6.053,0.715H86.913c-11.13,0-21.555-6.807-30.432-18.572
						c-16.847-22.479-28.146-63.152-28.146-109.581c0-25.504,3.396-49.286,9.281-69.245c4.842-16.387,11.299-30.21,18.898-40.337
						c8.675-11.513,18.831-18.278,29.658-18.572h41.092c2.085,0,4.102,0.252,6.053,0.714
						C161.193,209.878,172.459,264.375,172.459,330.552z"/>
					<path style="fill:#638474;" d="M176.406,330.552c0,18.362-1.18,35.841-3.336,51.639c-0.936,7.185-2.074,13.992-3.417,20.42
						c-1.993,9.748-4.394,18.53-7.161,26.051c-6.753,18.74-15.501,30.042-25.021,30.042c-1.424,0-2.808-0.252-4.15-0.715
						c-5.737-2.017-11.107-8.067-15.827-17.311c-0.406-0.84-0.854-1.723-1.261-2.605c-6.144-13.067-11.067-31.639-14.158-53.572
						c-2.319-16.387-3.58-34.664-3.58-53.95v-2.101c0.081-18.656,1.383-36.387,3.661-52.27c3.092-21.765,7.975-40.169,14.077-53.152
						c0.407-0.882,0.855-1.765,1.261-2.605c4.72-9.244,10.09-15.294,15.827-17.311c1.342-0.462,2.726-0.714,4.15-0.714
						C158.993,202.399,176.406,259.795,176.406,330.552z"/>
					<path style="fill:#E3DFC3;" d="M145.895,366.159c-3.108,13.311-8.193,13.311-11.3,0c0,0-2.477-10.61-2.477-35.601
						c0-24.991,2.477-35.601,2.477-35.601c3.108-13.311,8.193-13.311,11.3,0c0,0,2.477,10.61,2.477,35.601
						C148.372,355.549,145.895,366.159,145.895,366.159z"/>
				</g>
				<g>
					<path style="fill:#6EC3B4;" d="M339.494,330.552c0,38.194,3.733,72.48,12.274,95.925c6.22,17.227,15.065,28.656,26.868,31.513
						c1.95,0.462,3.968,0.715,6.052,0.715h40.352c11.13,0,21.555-6.807,30.432-18.572c16.847-22.479,28.146-63.152,28.146-109.581
						c0-25.504-3.396-49.286-9.281-69.245c-4.842-16.387-11.299-30.21-18.898-40.337c-8.675-11.513-18.831-18.278-29.658-18.572
						h-41.092c-2.085,0-4.102,0.252-6.052,0.714C350.76,209.878,339.494,264.375,339.494,330.552z"/>
					<path style="fill:#638474;" d="M335.547,330.552c0,18.362,1.18,35.841,3.336,51.639c0.936,7.185,2.075,13.992,3.417,20.42
						c1.994,9.748,4.394,18.53,7.161,26.051c6.753,18.74,15.501,30.042,25.021,30.042c1.424,0,2.807-0.252,4.15-0.715
						c5.737-2.017,11.107-8.067,15.827-17.311c0.406-0.84,0.854-1.723,1.261-2.605c6.143-13.067,11.067-31.639,14.158-53.572
						c2.319-16.387,3.58-34.664,3.58-53.95v-2.101c-0.081-18.656-1.383-36.387-3.661-52.27
						c-3.092-21.765-7.975-40.169-14.077-53.152c-0.407-0.882-0.855-1.765-1.261-2.605c-4.72-9.244-10.09-15.294-15.827-17.311
						c-1.342-0.462-2.726-0.714-4.15-0.714C352.96,202.399,335.547,259.795,335.547,330.552z"/>
					<path style="fill:#E3DFC3;" d="M366.058,366.159c3.107,13.311,8.193,13.311,11.3,0c0,0,2.477-10.61,2.477-35.601
						c0-24.991-2.477-35.601-2.477-35.601c-3.107-13.311-8.193-13.311-11.3,0c0,0-2.477,10.61-2.477,35.601
						C363.581,355.549,366.058,366.159,366.058,366.159z"/>
				</g>
			</g>
		</g>
		<g>
			<path style="fill:#605E4E;" d="M418.578,66.263l-1.781,1.855h-0.074l-2.746,2.894L388.749,97.28l-0.148,0.148l-0.074,0.074
				c-0.519-0.594-1.039-1.188-1.633-1.707c-2.3-2.3-4.675-4.378-7.049-6.381c-2.449-2.152-4.972-4.155-7.42-6.085
				c-25.081-19.589-54.688-32.946-86.892-38.066c-2.3-0.445-4.675-0.742-7.049-1.038c-7.346-0.89-14.915-1.336-22.483-1.336
				c-3.51,0-7.016,0.118-10.504,0.31l-60.812,13.92c-16.174,6.666-31.342,15.458-45.109,26.21c-2.449,1.929-4.972,3.933-7.42,6.085
				c-2.375,2.004-4.823,4.155-7.049,6.381c-0.594,0.52-1.113,1.113-1.707,1.707l-0.148-0.148l-0.074-0.074l-4.749-4.971
				l-23.225-24.19l-1.781-1.855c30.942-29.607,69.157-50.829,111.453-60.401C221.347,2.004,238.488,0,256,0
				c44.447,0.074,86.075,12.763,121.915,34.95C392.533,43.854,406.112,54.391,418.578,66.263z"/>
			<g>
				<path style="fill:#9C9A7A;" d="M386.933,95.825c-2.265-2.274-4.686-4.385-7.107-6.415c-2.421-2.112-4.919-4.142-7.418-6.091
					c-25.068-19.572-54.665-32.972-86.841-38.088c-2.343-0.406-4.685-0.731-7.106-0.975c-7.322-0.891-14.876-1.376-22.432-1.379
					v8.77c48.9,0.015,93.555,19.288,127.66,50.927l4.905-5.102C388.03,96.939,387.505,96.342,386.933,95.825z"/>
				<path style="fill:#9C9A7A;" d="M226.438,45.231c-32.175,5.116-61.772,18.516-86.841,38.088
					c-2.499,1.949-4.998,3.979-7.419,6.091c-2.421,2.03-4.842,4.142-7.107,6.415c-0.572,0.516-1.097,1.114-1.66,1.648l4.905,5.102
					c34.105-31.64,78.76-50.912,127.66-50.927v-8.77c-7.556,0.003-15.111,0.488-22.432,1.379
					C231.123,44.499,228.781,44.825,226.438,45.231z"/>
			</g>
		</g>
	</g>
	<path style="opacity:0.12;fill:#040000;" d="M511.852,330.871c0-1.336-0.074-2.672-0.223-4.007
		c-0.074-1.261-0.148-2.523-0.297-3.71c-0.52-4.897-1.261-9.646-2.226-14.247c-1.113-5.269-2.597-10.389-4.304-15.212
		c-0.594-1.633-1.187-3.191-1.781-4.749c-0.668-1.558-1.336-3.116-2.004-4.6c-0.668-1.484-1.41-2.968-2.152-4.378
		c-0.074-0.074-0.074-0.148-0.074-0.222c-2.3-4.23-4.749-8.236-7.42-11.873c-0.89-1.187-1.855-2.374-2.746-3.562
		c-0.965-1.113-1.929-2.226-2.894-3.265l-0.074-0.074c0-0.074,0-0.074,0-0.148c0.074-0.668,0.149-1.336,0.223-2.004
		c0.149-1.188,0.222-2.375,0.297-3.562c0-0.149,0.074-0.297,0.074-0.445c0.445-6.01,0.668-12.095,0.668-18.18
		c0-1.633-0.074-3.265-0.074-4.898c-0.074-4.007-0.223-7.94-0.52-11.872v-0.074c-0.297-3.859-0.668-7.791-1.113-11.65
		c0,0,0-0.074,0-0.148c-0.445-3.784-1.039-7.569-1.632-11.353v-0.223c-1.336-7.568-2.968-14.989-4.972-22.261
		c0-0.148,0-0.297-0.074-0.371c-0.742-2.745-1.558-5.417-2.375-8.088c-0.223-0.668-0.445-1.41-0.668-2.078
		c-0.074-0.297-0.148-0.52-0.222-0.816c-1.039-3.042-2.004-5.936-3.191-8.904c-0.297-0.89-0.594-1.781-0.965-2.671
		c-0.89-2.449-1.929-4.898-2.968-7.346c-0.445-1.039-0.816-2.004-1.336-3.042c-1.187-2.82-2.449-5.565-3.784-8.237
		c-0.445-0.816-0.816-1.706-1.261-2.523c-1.484-2.968-3.043-5.937-4.6-8.756c-3.562-6.381-7.42-12.614-11.501-18.625
		c-1.336-1.855-2.597-3.71-4.007-5.565c-0.965-1.336-1.929-2.597-2.894-3.933c-2.226-2.968-4.526-5.862-6.901-8.682
		c-1.261-1.41-2.448-2.894-3.71-4.23c-1.187-1.41-2.448-2.82-3.71-4.155c-1.706-1.855-3.487-3.71-5.268-5.565
		c-0.817-0.816-1.633-1.633-2.449-2.449h0.074l1.781-1.855c-12.466-11.872-26.045-22.409-40.663-31.313
		C342.075,12.763,300.447,0.074,256,0v51.645c48.9,0,93.57,19.293,127.703,50.903l0.594-0.594
		c15.063,14.915,27.752,32.427,37.176,51.794c1.336,2.82,2.671,5.639,3.858,8.459c1.41,3.413,2.82,6.901,4.081,10.389
		c1.261,3.562,2.375,7.123,3.487,10.685c0,0,0,0,0,0.074c1.41,4.823,2.597,9.721,3.636,14.692c0.52,2.449,0.965,4.971,1.41,7.494
		c-1.039-0.52-2.077-0.965-3.116-1.336c-0.148-0.074-0.223-0.074-0.371-0.148c-0.816-0.297-1.707-0.52-2.523-0.742
		c-0.742-0.223-1.41-0.371-2.152-0.445c-0.668-0.148-1.336-0.223-2.004-0.297c-0.668-0.074-1.336-0.148-2.004-0.148h-41.108
		c-2.078,0-4.081,0.222-6.01,0.668c-1.336-0.445-2.746-0.668-4.155-0.668c-21.519,0-38.957,57.359-38.957,128.148
		c0,18.328,1.187,35.84,3.339,51.645c0.965,7.123,2.078,13.95,3.413,20.406c2.004,9.721,4.378,18.551,7.198,26.045
		c6.752,18.699,15.434,30.052,25.006,30.052c1.41,0,2.82-0.297,4.155-0.742c1.929,0.446,3.933,0.742,6.01,0.742h40.366
		c11.13,0,21.593-6.827,30.423-18.625c0.817-1.113,1.633-2.226,2.449-3.414c0.445-0.668,0.965-1.484,1.41-2.226
		c1.261-1.929,2.375-4.007,3.488-6.085h0.074v-0.074c0-0.074,0-0.074,0.074-0.148c7.049-2.745,13.654-7.124,19.59-12.763
		c0.074,0,0.074-0.074,0.149-0.074c1.41-1.409,2.82-2.894,4.155-4.378c0.668-0.816,1.41-1.633,2.077-2.449
		c0.668-0.816,1.336-1.632,1.929-2.523c2.597-3.488,5.046-7.198,7.198-11.205c1.113-2.004,2.152-4.081,3.116-6.233
		c0.965-2.152,1.929-4.303,2.745-6.53c0-0.074,0.074-0.148,0.074-0.148c0.371-1.113,0.816-2.227,1.187-3.339
		c0.371-1.113,0.817-2.3,1.113-3.413c0.742-2.375,1.41-4.749,2.004-7.198c0.593-2.226,1.039-4.527,1.484-6.827l0.223-1.336
		c0.445-2.3,0.742-4.675,1.039-7.049c0.297-2.078,0.445-4.156,0.593-6.233c0-0.074,0-0.074,0-0.149
		c0.074-1.039,0.149-2.077,0.223-3.116c0.074-2.152,0.148-4.378,0.148-6.604C512,334.655,511.926,332.726,511.852,330.871z"/>
</g>
</svg>